<svg width="253" height="63" viewBox="0 0 253 63" fill="none" xmlns="http://www.w3.org/2000/svg">
<g clip-path="url(#clip0_38_4326)">
<path d="M85.1308 41.0324H79.0884C78.7249 41.0471 78.3682 41.1362 78.0405 41.2942C77.7128 41.4522 77.421 41.6757 77.1831 41.951H74.7539C74.0735 44.9245 74.3525 48.0001 74.3729 51.0281C74.3729 51.5695 74.1578 52.0888 73.775 52.4716C73.3921 52.8544 72.8729 53.0695 72.3315 53.0695C71.4946 53.0695 70.6576 53.1171 69.8207 53.1375C70.5011 55.2333 71.7531 56.635 73.1685 56.635H79.2109C79.5746 56.6183 79.9312 56.5276 80.2587 56.3685C80.5863 56.2093 80.878 55.9852 81.1161 55.7096H85.1308C87.3014 55.7096 89.0637 52.4231 89.0637 48.3676C89.0637 44.3121 87.3014 41.0324 85.1308 41.0324ZM79.2109 55.2265C77.5574 55.2265 76.2169 52.5659 76.2169 49.293C76.2169 46.02 77.5778 43.3595 79.2109 43.3595C80.8439 43.3595 82.2048 46.0132 82.2048 49.293C82.2048 52.5728 80.8643 55.2265 79.2109 55.2265ZM85.1308 54.3011C84.2053 54.3011 83.3752 53.4709 82.8308 52.1645C83.0398 51.2216 83.1447 50.2587 83.1438 49.293C83.1525 47.9715 82.948 46.6572 82.5382 45.4008C83.0554 43.6317 84.0216 42.4341 85.1308 42.4341C86.7842 42.4341 88.1247 45.0946 88.1247 48.3676C88.1247 51.6405 86.7842 54.3011 85.1308 54.3011Z" fill="#646464"/>
<path d="M70.2903 2.38973C70.7934 2.77065 71.2165 3.24696 71.5355 3.79145L75.1147 3.32875V39.5762H72.3929V39.9232C72.3942 40.3275 72.3554 40.731 72.2772 41.1276H76.6797V1.55959L70.2903 2.38973Z" fill="#646464"/>
<path d="M181.36 37.6369L71.4742 39.9845V42.7607L74.754 43.3595L75.3188 48.2927L181.36 46.1629V37.6369Z" fill="#646464"/>
<path d="M181.36 39.7871H74.7063V48.3676H181.36V39.7871Z" fill="#646464"/>
<path d="M252.119 39.7871H145.466V48.3676H252.119V39.7871Z" fill="#646464"/>
<path d="M16.2015 22.878H14.9291V29.4239H16.2015V22.878Z" fill="#646464"/>
<path d="M14.9291 22.878L14.1125 23.7014V29.4239H14.9291V22.878Z" fill="#646464"/>
<path d="M18.0046 20.0678L15.0447 30.1316H16.2219L19.3791 20.0678H18.0046Z" fill="#646464"/>
<path d="M44.304 41.1276H40.3098C38.4097 43.6681 36.3435 46.0799 34.1245 48.3472V56.0158H37.9214C37.7655 55.1903 37.6881 54.3519 37.6901 53.5118C37.6901 49.6264 39.2415 46.4759 41.1467 46.4759C43.052 46.4759 44.6034 49.6264 44.6034 53.5118C44.6042 54.3515 44.529 55.1896 44.3789 56.0158H46.7128L48.2234 53.5118V47.517C46.5835 45.6106 45.2602 43.4534 44.304 41.1276Z" fill="#646464"/>
<path d="M7.48486 53.8656C8.16531 57.4312 9.9685 59.9896 12.1051 59.9896C14.2417 59.9896 16.0585 57.4312 16.7321 53.8656H7.48486Z" fill="#646464"/>
<path d="M4.35486 53.8656C5.03531 57.4312 6.83849 59.9896 8.9751 59.9896H12.112V57.8394C12.8574 56.6212 13.3653 55.2729 13.6089 53.8656H4.35486Z" fill="#646464"/>
<path d="M20.7401 27.4642L20.8149 27.124L19.8827 28.2535L20.1889 27.9678L20.7401 27.4642Z" fill="#646464"/>
<path d="M71.4742 44.176L61.2811 44.5571L62.5127 12.9911L63.6083 42.611L71.4742 44.176Z" fill="#646464"/>
<path d="M3.67444 45.5369C3.67444 46.1017 3.74248 46.6461 3.81053 47.1768L4.61346 46.5644L3.67444 45.5369Z" fill="#646464"/>
<path d="M22.1962 20.4556L19.7874 20.6121L18.6103 26.253L9.98218 34.1802H13.432L18.6919 29.3491L18.4469 29.179L21.3116 24.722L22.1962 20.4556Z" fill="#646464"/>
<path d="M73.6108 41.8892V2.77708L65.1052 0.511189H61.3219C60.4166 0.208251 59.4725 0.0363976 58.5185 0.00085305C58.368 -0.00336016 58.2175 0.00804161 58.0694 0.0348754C51.1084 0.204987 33.7842 3.66847 33.7842 3.66847C28.4387 5.52304 23.9974 9.33924 21.3593 14.3447C22.203 14.1882 23.2101 14.0045 24.3668 13.8207C26.7417 10.1524 30.267 7.37622 34.3898 5.92755C36.0637 5.59413 51.7821 2.51851 58.1034 2.36201L58.1987 2.43005L58.4777 2.33479C59.2098 2.37081 59.9335 2.5082 60.6279 2.74306L60.9613 2.84512H64.7854L71.2633 4.56666V44.2299H73.6516V51.3746L49.1215 53.4704C49.0399 44.8355 45.4811 40.6032 45.3178 40.4126L44.6374 39.5961H43.5486C42.2995 39.5797 41.0603 39.8207 39.9083 40.3042C38.7564 40.7877 37.7163 41.5033 36.853 42.4063C33.8523 45.4956 33.0221 50.422 32.7704 53.1914C29.5719 53.5544 26.354 53.718 23.1352 53.6814C15.14 53.6814 6.26012 53.0009 2.30672 52.6539V48.3126L2.55848 48.1153L3.52472 47.3804C2.76143 46.9392 1.95977 46.568 1.12954 46.2713L0 47.1559V54.7837C0 54.7837 12.2889 56.0153 23.1352 56.0153C27.1098 56.0966 31.0837 55.821 35.009 55.192C35.009 55.192 34.7573 42.0049 43.5486 41.9368C43.5486 41.9368 47.4 46.3938 46.7127 56.0153L75.972 53.5113V41.8892H73.6108Z" fill="#646464"/>
<path d="M2.94635 40.2839C2.79665 40.4336 2.64015 40.6037 2.48364 40.7874C2.64695 40.5969 2.80345 40.4268 2.94635 40.2839Z" fill="#646464"/>
<path d="M35.6554 19.5915L29.5314 19.9861L27.2179 28.1039L29.5586 28.063L35.6554 19.5915Z" fill="#646464"/>
<path d="M19.733 28.3964C21.5838 28.2808 23.564 28.2059 25.5372 28.1447L27.8984 20.0882L26.313 20.1902C24.7683 22.184 21.5975 26.2122 19.733 28.3964Z" fill="#646464"/>
<path d="M24.1354 20.3331L18.6918 20.6802L16.3307 28.6754C17.1472 28.5938 18.0182 28.5189 18.9368 28.4509L24.1354 20.3331Z" fill="#646464"/>
<path d="M42.698 17.3256L41.97 19.19L40.3097 19.2989L32.886 28.0358C36.4651 28.0358 39.01 28.0358 39.01 28.0358C42.8954 28.2331 43.535 26.5592 43.535 26.5592L45.6852 17.033L42.698 17.3256Z" fill="#646464"/>
<path d="M38.9624 19.3533L37.8465 19.4554L30.6201 28.0494H31.947L38.9624 19.3533Z" fill="#646464"/>
<path d="M41.7454 12.44V13.9982H42.3374L40.8812 17.693L18.6102 19.1219L19.6853 16.2709C26.9421 14.7632 34.3337 13.9995 41.7454 13.9914V12.44C33.9371 12.4315 26.1515 13.2803 18.5285 14.9712L16.3307 20.8367L41.97 19.19L44.6033 12.4808C43.6371 12.4536 42.6844 12.44 41.7454 12.44Z" fill="#646464"/>
<path d="M23.2917 46.9523C23.2917 46.9523 23.2917 44.7408 24.5778 43.4207C26.694 42.1347 30.4092 40.6037 31.3823 41.3318C32.3553 42.0598 31.5184 45.605 30.8379 45.7411C30.1575 45.8772 26.7824 46.3943 23.2917 46.9523Z" fill="#646464"/>
<path d="M54.5651 34.9968C54.5651 34.9968 30.1234 37.6301 23.8157 43.1758C23.8157 43.1758 26.9457 36.4325 44.0454 34.3299C47.5659 34.1462 51.0959 34.37 54.5651 34.9968Z" fill="#646464"/>
<path d="M98.7194 10.7184L80.6194 2.74356L76.6729 1.55959V7.2005L98.7194 10.7184Z" fill="#646464"/>
<path d="M98.7194 10.7184H79.2109V4.75769L98.7194 10.7184Z" fill="#646464"/>
<path d="M83.1439 38.0044L79.8778 3.26751L76.6729 1.55959V41.1344L181.36 37.6369L83.1439 38.0044Z" fill="#646464"/>
<path d="M51.3398 27.5391L48.4275 31.0434L49.0263 31.5401L52.3537 27.5391H51.3398Z" fill="#646464"/>
<path d="M47.2843 29.3491V32.3771C47.2843 32.3946 47.2878 32.412 47.2948 32.4282C47.3017 32.4443 47.3118 32.4589 47.3245 32.471C47.3373 32.4831 47.3523 32.4924 47.3688 32.4985C47.3853 32.5046 47.4029 32.5073 47.4204 32.5063C47.5738 32.4946 47.7261 32.4719 47.8763 32.4383C48.2701 32.3488 48.6167 32.1166 48.8493 31.7865C49.0819 31.4564 49.1839 31.0518 49.1357 30.6509C49.0875 30.2499 48.8925 29.8811 48.5882 29.6156C48.284 29.35 47.8922 29.2066 47.4884 29.213H47.4204C47.3843 29.213 47.3497 29.2273 47.3242 29.2528C47.2986 29.2784 47.2843 29.313 47.2843 29.3491Z" fill="#646464"/>
<path d="M65.5816 8.92204C65.5816 8.92204 65.2754 4.33582 61.7711 3.63496C58.2668 2.9341 54.7693 6.1254 53.2111 8.92204C53.2111 8.92204 61.0702 -0.257201 65.5816 8.92204Z" fill="#646464"/>
<path d="M40.8269 44.3665H37.6696C34.9478 44.3665 32.7704 48.4492 32.7704 53.5118C32.7704 58.5743 34.9682 62.657 37.6696 62.657H40.8269C43.5487 62.657 45.7261 58.5743 45.7261 53.5118C45.7261 48.4492 43.5487 44.3665 40.8269 44.3665ZM41.1467 60.5612C39.2414 60.5612 37.69 57.4107 37.69 53.5254C37.69 49.64 39.2414 46.4759 41.1467 46.4759C43.052 46.4759 44.6034 49.6264 44.6034 53.5118C44.6034 57.3971 43.0588 60.5612 41.1467 60.5612Z" fill="#646464"/>
<path d="M41.97 19.19H48.2233V13.9846L44.6033 12.4808L41.97 19.19Z" fill="#646464"/>
<path d="M69.8887 47.483L46.6855 48.7758L46.0118 47.8028L67.2486 46.1629L69.8887 47.483Z" fill="#646464"/>
<path d="M53.211 20.3672V26.9879H51.3534V20.3672H53.211ZM53.7962 19.7888H50.7682V27.5663H53.7962V19.7888Z" fill="#646464"/>
<path d="M49.0331 19.1151L47.2843 28.0086L55.9464 27.5663V19.7888L49.0331 19.1151ZM53.7962 27.5663H50.7682L49.7815 27.0696V20.2651L50.7682 19.7684H53.7962V27.5663Z" fill="#646464"/>
<path d="M50.428 20.3399V27.0151L50.1218 26.8586V20.4964L50.428 20.3399ZM50.7683 19.7888L49.7816 20.2855V27.09L50.7683 27.5867V19.7888Z" fill="#646464"/>
<path d="M16.3307 28.6754C12.2489 29.636 8.30987 31.1252 4.6134 33.1051L24.115 32.6629C29.8434 30.3862 35.8467 28.874 41.97 28.1651C41.97 28.1651 26.7824 26.5388 16.3307 28.6754Z" fill="#646464"/>
<path d="M4.61347 33.1051C3.19314 37.7808 2.6329 42.6754 2.95998 47.5511C2.95998 47.5511 7.21278 48.7827 21.5566 47.7212C21.6995 45.8363 24.1151 32.6629 24.1151 32.6629C24.1151 32.6629 14.2894 30.9549 4.61347 33.1051ZM20.0528 42.2504H4.61347V41.5087H20.0528V42.2504ZM20.5087 39.1203H5.06937V38.3446H20.5087V39.1203ZM20.9646 35.9902H5.52527V35.2145H20.9646V35.9902Z" fill="#646464"/>
<path d="M109.073 17.7267L99.0322 31.6075C97.8733 33.1815 96.6193 34.3664 95.2701 35.1621C93.9209 35.9577 92.5112 36.3555 91.041 36.3555C89.8648 36.3555 88.6627 36.0961 87.4346 35.5772L89.3805 31.2962C89.9513 31.4519 90.4702 31.5297 90.9372 31.5297C91.4907 31.5297 91.9837 31.4173 92.4161 31.1924C92.8658 30.9675 93.2896 30.6302 93.6874 30.1805L89.3545 17.7267H95.6852L97.7609 25.2768L103.028 17.7267H109.073ZM117.933 21.4369C118.902 21.4369 119.836 21.6964 120.735 22.2153C121.635 22.7342 122.361 23.4952 122.915 24.4985C123.486 25.4844 123.771 26.6519 123.771 28.0011C123.771 29.5232 123.425 30.907 122.733 32.1524C122.059 33.3978 121.142 34.375 119.983 35.0842C118.824 35.7934 117.57 36.148 116.221 36.148C114.318 36.148 112.969 35.5599 112.173 34.3837L110.85 40.9219H104.986L108.826 21.6964H114.353L114.093 22.9936C115.166 21.9558 116.446 21.4369 117.933 21.4369ZM115.261 31.5297C116.022 31.5297 116.636 31.2356 117.103 30.6475C117.587 30.0594 117.829 29.2724 117.829 28.2865C117.829 27.6119 117.639 27.0757 117.259 26.6779C116.895 26.2628 116.385 26.0552 115.728 26.0552C114.967 26.0552 114.344 26.3492 113.86 26.9373C113.393 27.5254 113.159 28.3125 113.159 29.2984C113.159 29.973 113.341 30.5178 113.704 30.9329C114.085 31.3308 114.604 31.5297 115.261 31.5297ZM142.584 21.6964L139.756 35.8885H134.23L134.489 34.5913C133.417 35.6291 132.137 36.148 130.649 36.148C129.681 36.148 128.747 35.8885 127.847 35.3696C126.948 34.8507 126.213 34.0983 125.642 33.1124C125.088 32.1091 124.811 30.9329 124.811 29.5838C124.811 28.0616 125.149 26.6779 125.823 25.4325C126.515 24.1871 127.441 23.2098 128.599 22.5007C129.758 21.7915 131.012 21.4369 132.362 21.4369C134.264 21.4369 135.613 22.025 136.409 23.2012L136.72 21.6964H142.584ZM130.753 29.2984C130.753 29.973 130.935 30.5178 131.298 30.9329C131.678 31.3308 132.197 31.5297 132.855 31.5297C133.616 31.5297 134.23 31.2356 134.697 30.6475C135.181 30.0594 135.423 29.2724 135.423 28.2865C135.423 27.6119 135.233 27.0757 134.852 26.6779C134.489 26.2628 133.979 26.0552 133.322 26.0552C132.561 26.0552 131.938 26.3492 131.453 26.9373C130.986 27.5254 130.753 28.3125 130.753 29.2984ZM160.619 21.6964L157.791 35.8885H151.927L153.873 26.2628H151.175L150.734 28.1049C150.215 30.267 149.678 31.9275 149.125 33.0864C148.571 34.2453 147.906 35.0669 147.127 35.5512C146.366 36.0356 145.38 36.2777 144.169 36.2777C143.305 36.2777 142.379 36.148 141.393 35.8885L142.587 31.1405C142.933 31.1751 143.14 31.1924 143.209 31.1924C143.849 31.1924 144.342 30.9502 144.688 30.4659C145.034 29.9643 145.354 29.0995 145.648 27.8714L147.101 21.6964H160.619ZM181.98 17.7267L178.348 35.8885H172.328L174.949 22.4747H169.422L166.802 35.8885H160.783L164.415 17.7267H181.98ZM193.287 21.4369C194.255 21.4369 195.189 21.6964 196.089 22.2153C196.988 22.7342 197.715 23.4952 198.268 24.4985C198.839 25.4844 199.124 26.6519 199.124 28.0011C199.124 29.5232 198.778 30.907 198.087 32.1524C197.412 33.3978 196.495 34.375 195.336 35.0842C194.177 35.7934 192.923 36.148 191.574 36.148C189.672 36.148 188.322 35.5599 187.527 34.3837L186.203 40.9219H180.34L184.18 21.6964H189.706L189.447 22.9936C190.519 21.9558 191.799 21.4369 193.287 21.4369ZM190.614 31.5297C191.375 31.5297 191.989 31.2356 192.456 30.6475C192.941 30.0594 193.183 29.2724 193.183 28.2865C193.183 27.6119 192.993 27.0757 192.612 26.6779C192.249 26.2628 191.739 26.0552 191.081 26.0552C190.32 26.0552 189.697 26.3492 189.213 26.9373C188.746 27.5254 188.513 28.3125 188.513 29.2984C188.513 29.973 188.694 30.5178 189.057 30.9329C189.438 31.3308 189.957 31.5297 190.614 31.5297ZM207.793 36.148C206.236 36.148 204.878 35.8799 203.719 35.3437C202.56 34.7902 201.661 34.0205 201.021 33.0345C200.398 32.0486 200.087 30.8983 200.087 29.5838C200.087 28.0443 200.467 26.6606 201.229 25.4325C201.99 24.1871 203.036 23.2098 204.368 22.5007C205.717 21.7915 207.239 21.4369 208.934 21.4369C210.491 21.4369 211.849 21.7137 213.008 22.2672C214.167 22.8034 215.057 23.5644 215.68 24.5504C216.32 25.5363 216.64 26.6865 216.64 28.0011C216.64 29.5405 216.26 30.9329 215.499 32.1783C214.738 33.4064 213.682 34.375 212.333 35.0842C211.001 35.7934 209.488 36.148 207.793 36.148ZM208.13 31.5297C208.891 31.5297 209.505 31.2356 209.972 30.6475C210.457 30.0594 210.699 29.2724 210.699 28.2865C210.699 27.6119 210.508 27.0757 210.128 26.6779C209.765 26.2628 209.254 26.0552 208.597 26.0552C207.836 26.0552 207.213 26.3492 206.729 26.9373C206.262 27.5254 206.028 28.3125 206.028 29.2984C206.028 29.973 206.21 30.5178 206.573 30.9329C206.954 31.3308 207.473 31.5297 208.13 31.5297ZM239.988 27.8195C239.988 29.4454 239.581 30.8638 238.768 32.0745C237.973 33.2853 236.814 34.2453 235.292 34.9545C233.787 35.6464 231.971 36.0528 229.843 36.1739L228.883 40.9219H223.798L224.758 36.0961C222.354 35.8539 220.537 35.2053 219.309 34.1502C218.099 33.0951 217.493 31.6335 217.493 29.7654C217.493 27.3265 218.375 25.3893 220.14 23.9536C221.904 22.5007 224.421 21.6618 227.69 21.4369L228.65 16.637H233.735L232.775 21.4628C235.145 21.705 236.935 22.3623 238.146 23.4347C239.374 24.4898 239.988 25.9514 239.988 27.8195ZM230.699 31.8151C232.014 31.6421 232.974 31.2789 233.579 30.7254C234.202 30.1719 234.513 29.4022 234.513 28.4162C234.513 27.6379 234.314 27.0411 233.917 26.626C233.519 26.2109 232.853 25.9341 231.919 25.7957L230.699 31.8151ZM222.968 29.0649C222.968 29.8432 223.175 30.4486 223.59 30.8811C224.005 31.3135 224.68 31.6162 225.614 31.7891L226.808 25.7957C225.458 25.9687 224.481 26.3146 223.876 26.8336C223.27 27.3525 222.968 28.0962 222.968 29.0649Z" fill="#646464"/>
<path d="M104.167 39.8005L102.842 46.426H101.328L102.407 41.0499H100.135L99.7565 42.6494C99.523 43.6464 99.2864 44.4226 99.0466 44.9778C98.8068 45.5268 98.526 45.9243 98.2042 46.1704C97.8824 46.4102 97.4817 46.5301 97.0021 46.5301C96.7624 46.5301 96.51 46.4954 96.2449 46.426L96.5951 45.1293C96.6709 45.1545 96.756 45.1671 96.8507 45.1671C97.0905 45.1671 97.2987 45.082 97.4754 44.9116C97.6521 44.7412 97.8161 44.4636 97.9676 44.0787C98.119 43.6937 98.2736 43.1637 98.4314 42.4885L99.075 39.8005H104.167ZM107.043 46.5017C106.532 46.5017 106.081 46.4071 105.689 46.2178C105.304 46.0285 105.005 45.7634 104.79 45.4227C104.582 45.0756 104.478 44.675 104.478 44.2206C104.478 43.659 104.61 43.1542 104.875 42.7062C105.14 42.2582 105.506 41.9049 105.973 41.6461C106.44 41.3874 106.967 41.2581 107.554 41.2581C108.071 41.2581 108.523 41.3527 108.908 41.542C109.292 41.7313 109.589 41.9995 109.797 42.3466C110.012 42.6873 110.119 43.0848 110.119 43.5392C110.119 44.1007 109.987 44.6055 109.722 45.0536C109.463 45.5016 109.097 45.8549 108.624 46.1136C108.157 46.3724 107.63 46.5017 107.043 46.5017ZM107.138 45.2807C107.422 45.2807 107.677 45.2113 107.904 45.0725C108.131 44.9274 108.308 44.7286 108.434 44.4762C108.56 44.2238 108.624 43.9335 108.624 43.6054C108.624 43.2584 108.523 42.9839 108.321 42.782C108.119 42.58 107.835 42.4791 107.469 42.4791C107.179 42.4791 106.92 42.5516 106.693 42.6968C106.466 42.8356 106.289 43.0312 106.163 43.2836C106.036 43.536 105.973 43.8263 105.973 44.1544C105.973 44.5014 106.074 44.7759 106.276 44.9778C106.484 45.1798 106.772 45.2807 107.138 45.2807ZM115.478 42.5453H112.856L112.099 46.426H110.622L111.645 41.3338H115.715L115.478 42.5453ZM116.507 41.3338H117.983L117.349 44.4289L120.425 41.3338H121.816L120.804 46.426H119.318L119.961 43.3215L116.885 46.426H115.484L116.507 41.3338ZM124.901 46.5017C124.378 46.5017 123.92 46.4071 123.529 46.2178C123.138 46.0285 122.835 45.7634 122.62 45.4227C122.412 45.0756 122.308 44.675 122.308 44.2206C122.308 43.659 122.441 43.1542 122.706 42.7062C122.971 42.2582 123.34 41.9049 123.813 41.6461C124.286 41.3874 124.819 41.2581 125.413 41.2581C125.955 41.2581 126.422 41.3717 126.813 41.5988C127.211 41.8197 127.507 42.1352 127.703 42.5453L126.454 43.17C126.233 42.7094 125.854 42.4791 125.318 42.4791C125.028 42.4791 124.766 42.5516 124.532 42.6968C124.305 42.8356 124.125 43.0312 123.993 43.2836C123.867 43.536 123.803 43.8231 123.803 44.1449C123.803 44.492 123.908 44.7696 124.116 44.9778C124.324 45.1798 124.614 45.2807 124.987 45.2807C125.529 45.2807 125.946 45.0536 126.236 44.5992L127.324 45.2807C127.078 45.6656 126.741 45.9654 126.312 46.1799C125.889 46.3944 125.419 46.5017 124.901 46.5017ZM132.961 42.5453H131.229L130.472 46.426H128.996L129.753 42.5453H128.049L128.295 41.3338H133.208L132.961 42.5453ZM133.995 41.3338H135.471L134.837 44.4289L137.913 41.3338H139.305L138.292 46.426H136.806L137.449 43.3215L134.373 46.426H132.972L133.995 41.3338ZM143.62 43.8704L145.021 46.426H143.317L142.399 44.4951H141.566L141.178 46.426H139.701L140.724 41.3338H142.2L141.803 43.312H142.569L144.358 41.3338H145.967L143.62 43.8704Z" fill="white"/>
</g>
<defs>
<clipPath id="clip0_38_4326">
<rect width="252.119" height="62.6556" fill="white"/>
</clipPath>
</defs>
</svg>
