<svg width="218" height="236" viewBox="0 0 218 236" fill="none" xmlns="http://www.w3.org/2000/svg">
<path d="M191.41 190.922C151.689 233.242 90.6728 220.722 81.6538 218.711C70.2917 216.176 43.2596 210.145 23.0871 186.336C-7.7977 149.884 -4.67861 92.9134 19.1732 54.5054C26.1129 43.3297 49.4695 10.1171 93.3298 2.89613C95.8933 2.47388 141.693 -4.30585 178.546 26.9112C183.514 31.1202 191.534 38.7421 198.563 49.8417C220.366 84.2712 230.686 149.076 191.41 190.922Z" fill="url(#paint0_linear_80_4567)"/>
<g clip-path="url(#clip0_80_4567)">
<path d="M46.7272 71.4905C46.7272 71.4905 43.3662 67.8179 42.3269 67.6963C41.2876 67.5748 37.0109 69.6243 36.7668 70.4331C36.5227 71.2419 41.4709 69.6243 41.7465 70.4331C42.022 71.2419 42.3269 71.7922 43.7373 71.853C45.1476 71.9138 46.3649 72.7096 46.3649 72.7096L46.7272 71.4905Z" fill="#FF9792"/>
<path d="M50.7587 200.086C49.6901 199.435 50.2977 194.569 50.2977 194.569C50.2977 194.569 55.2741 190.586 55.9576 193.636C56.6411 196.685 60.6845 198.054 62.9855 198.429C64.5738 198.686 65.0664 199.566 65.2183 200.086H50.7587Z" fill="#1B2251"/>
<path d="M49.867 196.995C48.5922 196.514 41.4926 179.461 41.7877 173.924C41.8235 173.267 41.6955 167.878 41.4926 166.759C41.3353 165.891 41.1238 164.877 40.8699 163.753C40.4826 162.042 40.002 160.072 39.4595 157.959C37.9505 152.022 36.0269 144.963 34.7012 139.343C37.0804 134.002 40.1311 129.327 42.9291 127.727C44.9253 127.97 46.8499 128.339 48.2754 128.649C49.1822 129.169 50.0554 129.745 50.89 130.375C51.107 131.482 51.4325 133.329 51.695 135.708C51.8632 137.264 52.0053 139.048 52.0715 141.001C52.5456 154.863 50.1252 169.913 56.2961 194.48C56.4686 195.165 51.8415 197.744 49.867 196.995Z" fill="#242E6C"/>
<path d="M51.695 135.716C50.6665 140.866 48.1919 151.871 39.4595 157.963C37.9504 152.025 36.0269 144.966 34.7012 139.346C37.0803 134.005 40.1311 129.33 42.929 127.73C44.9252 127.973 46.8499 128.342 48.2754 128.652C49.1822 129.172 50.0554 129.748 50.89 130.378C51.1146 131.49 51.4346 133.336 51.695 135.716Z" fill="#1B2251"/>
<path d="M40.9589 87.2629V88.1314C40.9589 88.1314 41.1943 90.8334 37.8691 91.2274C34.5439 91.6215 32.0259 90.1733 32.1192 88.089C32.4186 86.4748 32.7473 85.3664 32.7701 84.03C32.7769 83.4885 32.7374 82.9473 32.6518 82.4125L39.094 82.2833L40.9915 82.5938L40.9589 87.2629Z" fill="#FF9792"/>
<path d="M40.9827 82.5895L40.9589 87.2575C40.2327 87.5983 39.4403 87.7747 38.6383 87.7742C35.6776 87.7742 33.7638 85.603 32.7635 84.0246C32.7704 83.483 32.7308 82.9419 32.6453 82.4071L39.0874 82.2779L40.9827 82.5895Z" fill="#FF7D78"/>
<path d="M41.3592 84.8605C41.3592 84.8605 33.1053 86.5279 32.1484 81.3693C31.1915 76.2106 29.4795 72.9538 34.7066 71.6707C39.9336 70.3875 41.3245 72.1646 42.0654 73.8082C42.8064 75.4517 43.4802 84.2938 41.3592 84.8605Z" fill="#FF9792"/>
<path d="M35.4183 200.086C35.4183 200.086 34.968 197.618 34.2531 196.189C33.5381 194.76 28.9957 195.669 28.9957 195.669C28.9957 195.669 28.0865 196.449 27.8913 200.086H35.4183Z" fill="#1B2251"/>
<path d="M44.3231 130.464C44.3231 130.464 39.8002 150.629 38.3497 159.731C37.8072 163.137 36.6768 174.048 36.5053 177.492C36.2623 182.219 34.7055 196.684 34.7055 196.684C34.7055 196.684 32.0779 195.022 28.1798 196.576C28.1798 196.576 27.1948 190.091 26.5688 176.51C26.3854 172.529 27.1546 166.548 27.0613 164.606C26.6013 155.053 23.5528 130.363 25.9764 128.782C28.4001 127.201 44.3231 130.464 44.3231 130.464Z" fill="#242E6C"/>
<path d="M43.67 69.9771C43.67 69.9771 41.369 69.8002 38.6545 68.6191C36.4522 67.6616 33.6727 68.7168 32.7711 69.1923C32.8025 68.9975 32.8766 68.8121 32.9881 68.6495C32.9881 68.6495 32.5824 68.9361 32.5227 69.3377C32.4815 69.3692 32.463 69.3898 32.4739 69.3974C32.4847 69.405 32.0139 69.3128 31.7145 69.4463C31.7145 69.4463 31.9217 69.417 31.9954 69.5494C32.0039 69.5637 32.0149 69.5762 32.028 69.5863C28.5921 71.2473 28.2753 76.6806 29.3808 77.9388C30.7109 79.451 32.3101 82.8576 32.3101 82.8576C32.3101 82.8576 32.8927 82.0532 32.6507 80.7222C32.4088 79.3913 33.5577 79.3902 35.0082 78.7856C36.4587 78.1809 35.2534 76.4841 36.5238 75.4572C37.7942 74.4302 42.4495 75.0338 42.3888 74.2478C44.117 73.6171 43.67 70.1541 43.67 69.9771Z" fill="#242E6C"/>
<path d="M45.8723 69.7025C45.8723 69.7025 45.178 69.9848 44.7603 70.9672C44.2255 72.2254 44.6616 72.9126 44.6616 72.9126C44.6616 72.9126 53.3939 80.8373 52.8255 82.279C52.5293 83.0389 45.7639 87.0024 42.9529 88.6275C41.7964 88.5309 40.9013 88.5385 40.8731 88.5385C40.8731 88.5385 38.9605 94.3691 32.1126 88.0836C30.9083 89.8368 21.5836 94.1357 23.2023 101.561C23.5827 103.305 23.914 104.952 24.1961 106.502C26.1196 117.017 25.9699 123.22 25.5945 126.64C25.3027 129.311 24.1961 129.579 25.1855 130.289C25.1855 130.289 27.1112 131.157 30.7185 131.9C33.3971 132.456 37.0011 132.949 41.4297 132.977C48.4739 133.021 51.1406 130.588 51.1406 130.588C53.0056 128.764 49.3169 121.578 49.612 116.398C49.7639 113.738 49.5968 104.633 49.5708 100.449V100.444C49.9093 100.073 60.2147 88.7273 62.2435 82.2866C62.3414 81.9798 62.4218 81.6678 62.4843 81.3519C63.106 78.1744 45.8723 69.7025 45.8723 69.7025Z" fill="#F9795A"/>
<path d="M25.5945 126.638C25.9699 123.217 26.1196 117.014 24.1961 106.499C24.327 106.081 24.4576 105.68 24.5877 105.295C25.1714 103.559 27.6504 103.65 28.1082 105.42C29.5251 110.92 30.8107 120.272 25.5945 126.638Z" fill="#F24B46"/>
<path d="M23.4909 120.884C23.4909 120.884 27.7741 118.294 29.102 118.622C30.43 118.95 33.3093 120.203 33.1303 120.969C32.9513 121.736 29.6065 122.258 29.0239 122.163C28.4413 122.069 27.5051 122.178 27.121 122.507C26.737 122.836 23.7047 122.96 23.3336 122.073C22.9626 121.186 23.4909 120.884 23.4909 120.884Z" fill="#FF9792"/>
<path d="M32.1104 88.0847C32.1104 88.0847 26.8595 88.4657 24.0073 90.1386C22.163 91.2242 11.4637 108.275 11.4637 110.785C11.4637 113.295 22.6968 122.2 22.6968 122.2C22.6968 122.2 24.7819 122.893 24.86 119.571C24.86 119.571 19.2565 111.284 19.5516 110.323C19.7372 109.72 27.9954 103.092 27.9954 103.092L32.1104 88.0847Z" fill="#F9795A"/>
<path d="M62.2489 82.2822C60.2201 88.723 49.9147 100.068 49.5762 100.44V100.445C49.5469 100.337 48.6964 97.0863 50.7251 94.7653C52.781 92.4031 59.9099 86.4813 62.2489 82.2822Z" fill="#F24B46"/>
<path d="M30.1305 89.0563C30.1077 88.6003 32.2634 87.9707 32.2634 87.9707C32.2634 87.9707 34.7326 91.3935 38.7934 91.4532C38.7934 91.4532 37.6358 93.708 36.271 94.292C36.271 94.2877 30.265 91.7594 30.1305 89.0563Z" fill="#F24B46"/>
<path d="M38.7934 91.3729C38.7934 91.3729 40.947 90.0963 40.9535 88.7111C40.9535 88.7111 42.3443 88.5374 42.9519 89.2115C42.9519 89.2115 43.4618 91.5846 42.7848 92.9622C42.7848 92.9622 39.6852 92.49 38.7934 91.3729Z" fill="#F24B46"/>
<path d="M46.2781 123.518C46.237 124.636 45.781 125.699 44.999 126.499L43.7698 127.757C43.6966 127.832 43.6089 127.89 43.5122 127.929C43.4154 127.968 43.3117 127.986 43.2075 127.983C43.1033 127.98 43.0008 127.956 42.9064 127.912C42.812 127.867 42.7277 127.804 42.6589 127.726L40.9534 125.777C40.4961 125.254 40.2575 124.575 40.2873 123.881C40.3567 122.335 40.4804 119.357 40.5542 116.485C40.6149 114.158 40.6431 111.899 40.5824 110.529C40.3893 106.154 38.7945 92.2533 38.7945 92.2533H39.8446C39.8446 92.2533 42.7294 97.5303 44.4772 104.824C44.9312 106.704 45.2728 108.609 45.5002 110.529C45.5002 110.529 46.4625 118.465 46.2781 123.518Z" fill="#9E30CA"/>
<path d="M37.3364 91.1677L40.2559 90.4675C40.2559 90.4675 40.6367 90.5001 40.6269 90.9767C40.6171 91.4532 39.8045 92.8428 39.4443 92.9535C39.0842 93.0642 36.6421 92.1306 37.3364 91.1677Z" fill="#6615B2"/>
<path d="M30.1305 88.3908C30.1077 87.936 32.2634 87.3052 32.2634 87.3052C32.2634 87.3052 34.7326 90.7292 38.7934 90.7889C38.7934 90.7889 37.6358 93.0436 36.271 93.6277C36.271 93.6277 30.265 91.095 30.1305 88.3908Z" fill="#F9795A"/>
<path d="M38.7934 90.7889C38.7934 90.7889 40.947 89.5111 40.9535 88.127C40.9535 88.127 42.3443 87.9522 42.9519 88.6275C42.9519 88.6275 43.4618 90.9995 42.7848 92.3782C42.7848 92.3782 39.6852 91.9059 38.7934 90.7889Z" fill="#F9795A"/>
<path d="M46.2781 123.518C46.237 124.636 45.781 125.699 44.999 126.499L43.7698 127.757C43.6966 127.832 43.6089 127.89 43.5122 127.929C43.4154 127.968 43.3117 127.986 43.2075 127.983C43.1033 127.98 43.0008 127.956 42.9064 127.912C42.812 127.867 42.7277 127.804 42.6589 127.726L40.9534 125.777C40.4961 125.254 40.2575 124.575 40.2873 123.881C40.3567 122.335 40.4804 119.357 40.5542 116.485C43.2805 113.079 44.2179 108.52 44.4772 104.824C44.9312 106.704 45.2728 108.609 45.5002 110.529C45.5002 110.529 46.4625 118.465 46.2781 123.518Z" fill="#6615B2"/>
</g>
<g clip-path="url(#clip1_80_4567)">
<path d="M116.96 235.923L96.0774 224.528V17.1906L116.96 24.7216V235.923Z" fill="#D3B875"/>
<path d="M116.96 24.7216L189.65 7.37415V203.219L116.96 235.923V24.7216Z" fill="#B78C58"/>
<path d="M96.0774 17.1905L116.96 24.7216L189.65 7.37413L166.93 0L96.0774 17.1905Z" fill="#F2D08B"/>
<path d="M100.502 202.548V216.451L111.758 221.325V205.272L100.502 202.548Z" fill="white"/>
<path d="M101.08 203.365L110.786 205.826V206.338L101.08 203.842V203.365Z" fill="#4C402C"/>
<path d="M101.08 204.491L110.786 206.953V207.467L101.08 204.971V204.491Z" fill="#4C402C"/>
<path d="M101.08 205.803L110.786 208.264V208.778L101.08 206.282V205.803Z" fill="#4C402C"/>
<path d="M101.08 207.067L110.786 209.529V210.042L101.08 207.546V207.067Z" fill="#4C402C"/>
<path d="M101.08 212.964L105.775 214.407L105.76 214.987L101.08 213.441V212.964Z" fill="#4C402C"/>
<path d="M101.08 213.8L105.775 215.243L105.76 215.823L101.08 214.278V213.8Z" fill="#4C402C"/>
<path d="M101.08 214.811L105.775 216.256L105.76 216.836L101.08 215.29V214.811Z" fill="#4C402C"/>
<path opacity="0.6" d="M130.051 8.94787L149.825 17.1906L150.695 220.347L159.062 216.836L158.51 14.8063L136.543 7.37415L130.051 8.94787Z" fill="#846B3D"/>
<path opacity="0.6" d="M96.0774 68.4654L116.96 74.771L189.65 52.8937V59.9884L116.929 83.2997L96.0774 74.9968V68.4654Z" fill="#846B3D"/>
<path opacity="0.6" d="M96.0774 164.916L116.96 172.974L189.65 147.792V157.144L116.96 182.618L96.0774 172.974V164.916Z" fill="#846B3D"/>
</g>
<defs>
<linearGradient id="paint0_linear_80_4567" x1="218.468" y1="241.05" x2="19.1077" y2="16.0916" gradientUnits="userSpaceOnUse">
<stop stop-color="#DAE3FE"/>
<stop offset="1" stop-color="#E9EFFD"/>
</linearGradient>
<clipPath id="clip0_80_4567">
<rect width="53.7545" height="132.395" fill="white" transform="matrix(-1 0 0 1 65.2183 67.6909)"/>
</clipPath>
<clipPath id="clip1_80_4567">
<rect width="93.5727" height="235.923" fill="white" transform="translate(96.0774)"/>
</clipPath>
</defs>
</svg>
