<svg width="227" height="226" viewBox="0 0 227 226" fill="none" xmlns="http://www.w3.org/2000/svg">
<g clip-path="url(#clip0_22_321)">
<path d="M223.662 96.0643C217.51 55.939 192.283 6.64253 142.445 1.48132C142.445 1.48132 104.607 -3.10381 67.3057 3.8463C45.168 7.97268 25.7563 20.2499 13.473 37.897C1.18972 55.5441 -2.91284 77.0652 2.06675 97.5814C5.3004 110.906 7.48567 124.697 6.88636 138.39C5.84205 162.22 6.44298 184.463 29.6543 198.675C50.3798 211.364 76.4634 222.556 101.346 224.516C118.256 225.849 137.221 223.693 153.52 219.306C236.583 196.951 229.815 136.19 223.662 96.0643Z" fill="#F4F7FA"/>
<path d="M159.364 136.207C156.034 135.797 150.422 135.106 145.699 130.89C137.112 123.226 137.026 108.883 140.399 99.1641C143.295 90.8158 150.253 84.5106 164.17 71.8976C177.277 60.0209 182.117 58.0759 182.383 52.1679C182.757 43.746 173.288 39.1795 175.205 29.4202C175.435 28.2487 176.223 24.2267 179.432 22.2064C184.926 18.7475 193.656 23.5818 198.029 27.51C202.251 31.2965 207.376 38.6754 205.721 45.6571C204.522 50.7131 200.782 51.2609 200.752 55.7247C200.722 60.2151 204.498 61.0145 207.389 67.8934C208.543 70.6443 210.861 76.1575 209.187 81.542C207.023 88.5051 200.145 88.9452 199.849 94.4746C199.634 98.4691 203.154 99.5452 203.863 104.003C204.795 109.873 199.828 115.16 195.637 119.505C190.704 124.623 177.387 138.425 159.364 136.207Z" fill="url(#paint0_linear_22_321)"/>
<g style="mix-blend-mode:screen" opacity="0.16">
<path d="M182.134 24.2995C179.394 27.1701 190.673 35.1478 190.745 48.7074C190.827 63.2953 177.886 75.4447 171.905 81.059C161.704 90.6387 156.417 90.1322 150.567 99.7717C148.252 103.587 143.428 111.534 146.031 120.662C146.274 121.51 149.111 130.923 157.469 133.943C166.949 137.369 176.322 129.963 184.4 123.587C189.28 119.731 199.03 112.029 197.003 106.172C195.765 102.591 190.41 100.524 186.34 100.442C180.53 100.326 176.542 104.236 175.843 103.378C175.214 102.604 177.843 98.6851 181.87 95.3605C189.927 88.7049 195.339 91.2123 201.135 85.3682C201.838 84.6595 207.323 78.9659 206.07 72.2512C205.346 68.3781 202.364 64.0648 199.073 63.9175C195.351 63.7557 192.842 68.9865 191.865 68.3975C190.93 67.8352 192.655 62.7063 195.105 57.8866C198.702 50.8037 200.863 50.2884 201.865 46.0649C203.395 39.6213 200.007 33.9099 199.51 33.0959C194.835 25.4629 184.478 21.8455 182.134 24.2995Z" fill="white"/>
</g>
<path d="M163.306 169.774C160.104 168.768 154.714 167.075 150.837 162.074C143.788 152.984 146.317 138.865 151.406 129.917C155.774 122.231 163.766 117.289 179.747 107.404C194.799 98.0945 199.917 97.0572 201.251 91.2957C203.152 83.0809 194.673 76.8784 198.336 67.6273C198.775 66.5172 200.285 62.7039 203.807 61.2977C209.839 58.8898 217.543 65.2242 221.132 69.8741C224.594 74.3613 228.29 82.5485 225.39 89.1111C223.29 93.8661 219.512 93.7286 218.67 98.1123C217.822 102.523 221.39 103.993 222.98 111.279C223.615 114.192 224.889 120.035 222.262 125.028C218.866 131.483 212.021 130.673 210.722 136.056C209.783 139.945 213.05 141.638 212.933 146.152C212.781 152.093 206.935 156.394 202.021 159.907C196.233 164.049 180.624 175.214 163.306 169.774Z" fill="url(#paint1_linear_22_321)"/>
<g style="mix-blend-mode:screen" opacity="0.16">
<path d="M206.081 63.8423C202.863 66.1701 212.501 76.0548 210.103 89.4016C207.525 103.761 192.588 113.369 185.685 117.81C173.91 125.385 168.8 123.93 161.292 132.352C158.319 135.685 152.128 142.628 153.026 152.075C153.107 152.953 154.185 162.723 161.854 167.205C170.552 172.288 181.12 166.701 190.226 161.887C195.727 158.974 206.719 153.166 205.792 147.04C205.224 143.295 200.337 140.294 196.349 139.478C190.658 138.312 186.024 141.437 185.492 140.466C185.014 139.591 188.313 136.215 192.882 133.67C202.016 128.582 206.882 132.027 213.646 127.327C214.467 126.761 220.898 122.149 220.888 115.32C220.883 111.381 218.735 106.6 215.529 105.86C211.9 105.024 208.479 109.718 207.625 108.962C206.808 108.24 209.439 103.509 212.726 99.2119C217.553 92.9009 219.772 92.7804 221.527 88.8085C224.207 82.7484 221.914 76.52 221.572 75.6292C218.36 67.2834 208.833 61.8528 206.081 63.8423Z" fill="white"/>
</g>
<path d="M77.4865 197.928L18.3073 193.443V27.5222L77.4865 23.1547V197.928Z" fill="url(#paint2_linear_22_321)"/>
<path d="M24.0396 88.0245V158.537H22.8816V176.584H77.4865V88.0245H24.0396Z" fill="#A9C3FF"/>
<path d="M95.1993 11.062C95.1993 11.062 95.2553 49.2317 103.848 66.7502C112.44 84.2687 115.671 101.33 109.207 111.318C102.744 121.307 77.4865 106.072 77.4865 106.072C77.4865 106.072 65.5702 114.445 60.183 132.368C54.7957 150.29 19.7795 165.228 12.237 160.175C4.69455 155.123 7.92738 19.8528 7.92738 19.8528L95.1993 11.062Z" fill="white"/>
<path d="M10.621 170.463C10.621 170.463 31.8394 180.322 47.8948 171.212C63.9501 162.103 77.4848 145.732 77.4848 145.732C77.4848 145.732 93.8147 155.702 102.587 155.145C111.36 154.589 117.85 126.542 117.85 126.542C117.85 126.542 132.371 119.353 138.836 104.764C145.3 90.1751 165.146 74.2886 176.007 70.9607C186.868 67.6329 193.246 73.8452 193.246 73.8452L190.552 201.001L22.8815 209.753L10.621 170.463Z" fill="white"/>
<path d="M106.179 15.8097C106.179 15.8097 100.458 41.9628 106.179 48.8951C111.9 55.8274 116.259 75.668 117.85 81.0453C119.441 86.4225 131.832 98.1908 138.296 87.4751C144.761 76.7595 154.457 68.9469 159.307 65.3383C164.158 61.7298 194.862 58.0282 196.478 55.3177C198.094 52.6073 199.171 21.852 199.171 21.852L106.179 15.8097Z" fill="url(#paint3_linear_22_321)"/>
<path d="M117.85 188.393H186.87L186.87 32.9187H117.85L117.85 188.393Z" fill="url(#paint4_linear_22_321)"/>
<path d="M181.274 181.291V39.9134H117.85L98.8179 93.2998L117.85 181.291H181.274Z" fill="#A8C3FF"/>
<path d="M95.1993 11.062C95.1993 11.062 95.2553 49.2317 103.848 66.7502C112.44 84.2687 115.671 101.33 109.207 111.318C102.744 121.307 77.4865 106.072 77.4865 106.072C77.4865 106.072 65.5702 114.445 60.183 132.368C54.7957 150.29 19.7795 165.228 12.237 160.175C4.69455 155.123 7.92738 19.8528 7.92738 19.8528L95.1993 11.062Z" fill="white"/>
<path d="M10.621 170.463C10.621 170.463 31.8394 180.322 47.8948 171.212C63.9501 162.103 77.4848 145.732 77.4848 145.732C77.4848 145.732 93.8147 155.702 102.587 155.145C111.36 154.589 117.85 126.542 117.85 126.542C117.85 126.542 132.371 119.353 138.836 104.764C145.3 90.1751 165.146 74.2886 176.007 70.9607C186.868 67.6329 193.246 73.8452 193.246 73.8452L190.552 201.001L22.8815 209.753L10.621 170.463Z" fill="white"/>
<path d="M106.179 15.8097C106.179 15.8097 100.458 41.9628 106.179 48.8951C111.9 55.8274 116.259 75.668 117.85 81.0453C119.441 86.4225 131.832 98.1908 138.296 87.4751C144.761 76.7595 154.457 68.9469 159.307 65.3383C164.158 61.7298 194.862 58.0282 196.478 55.3177C198.094 52.6073 199.171 21.852 199.171 21.852L106.179 15.8097Z" fill="white"/>
<path d="M117.85 188.394L77.4865 197.928V23.1547L117.85 32.9196V39.9134L110.295 54.8566L107.986 178.336L117.85 181.291V188.394Z" fill="url(#paint5_linear_22_321)"/>
<path d="M117.85 157.607V41.7298L103.637 36.8825L96.5879 35.3306L95.3714 35.1882V105.885H77.4865V157.607H117.85Z" fill="#A2A1CD"/>
<path d="M95.1993 11.062C95.1993 11.062 95.2553 49.2317 103.848 66.7502C112.44 84.2687 115.671 101.33 109.207 111.318C102.744 121.307 77.4865 106.072 77.4865 106.072C77.4865 106.072 65.5702 114.445 60.183 132.368C54.7957 150.29 19.7795 165.228 12.237 160.175C4.69455 155.123 7.92738 19.8528 7.92738 19.8528L95.1993 11.062Z" fill="#BDD0FB"/>
<path d="M10.621 170.463C10.621 170.463 31.8394 180.322 47.8948 171.212C63.9501 162.103 77.4848 145.732 77.4848 145.732C77.4848 145.732 93.8147 155.702 102.587 155.145C111.36 154.589 117.85 126.542 117.85 126.542C117.85 126.542 132.371 119.353 138.836 104.764C145.3 90.1751 165.146 74.2886 176.007 70.9607C186.868 67.6329 193.246 73.8452 193.246 73.8452L190.552 201.001L22.8815 209.753L10.621 170.463Z" fill="#BDD0FB"/>
<path d="M106.179 15.8097C106.179 15.8097 100.458 41.9628 106.179 48.8951C111.9 55.8274 116.259 75.668 117.85 81.0453C119.441 86.4225 131.832 98.1908 138.296 87.4751C144.761 76.7595 154.457 68.9469 159.307 65.3383C164.158 61.7298 194.862 58.0282 196.478 55.3177C198.094 52.6073 199.171 21.852 199.171 21.852L106.179 15.8097Z" fill="#BDD0FB"/>
<path opacity="0.53" d="M150.101 39.9142H149.024V188.394H150.101V39.9142Z" fill="url(#paint6_linear_22_321)"/>
<path opacity="0.53" d="M50.7224 32.9552H49.6448V188.394H50.7224V32.9552Z" fill="url(#paint7_linear_22_321)"/>
<path opacity="0.53" d="M181.274 89.6038H117.787L117.726 89.5893L77.4459 80.0509L22.927 84.6392L22.8361 83.5688L77.5271 78.9667L77.6107 78.9869L117.914 88.531H181.274V89.6038Z" fill="url(#paint8_linear_22_321)"/>
<path d="M34.8497 116.841C34.5862 116.841 34.3294 116.759 34.1157 116.605C33.9021 116.451 33.7426 116.234 33.6599 115.985C33.5772 115.736 33.5756 115.467 33.6552 115.217C33.7349 114.966 33.8917 114.747 34.1034 114.591C34.1034 114.591 34.5907 114.234 35.4295 113.6C35.6947 113.401 36.0284 113.314 36.3574 113.36C36.6863 113.406 36.9835 113.58 37.1836 113.844C37.3837 114.108 37.4703 114.441 37.4243 114.769C37.3783 115.096 37.2035 115.393 36.9384 115.592C36.0824 116.239 35.5944 116.596 35.5944 116.596C35.3792 116.756 35.118 116.842 34.8497 116.841Z" fill="url(#paint9_linear_22_321)"/>
<path d="M142.082 121.706C141.338 121.706 140.487 121.6 139.479 121.383C139.317 121.349 139.164 121.284 139.028 121.191C138.891 121.098 138.775 120.979 138.685 120.84C138.595 120.702 138.534 120.548 138.504 120.386C138.474 120.224 138.477 120.058 138.512 119.897C138.547 119.736 138.613 119.584 138.708 119.449C138.802 119.314 138.922 119.199 139.061 119.11C139.2 119.022 139.356 118.961 139.519 118.933C139.681 118.904 139.848 118.908 140.009 118.944C141.218 119.205 142.181 119.274 142.756 119.151C143.079 119.074 143.42 119.127 143.703 119.3C143.987 119.473 144.19 119.751 144.267 120.073C144.345 120.395 144.291 120.734 144.117 121.017C143.944 121.299 143.665 121.501 143.342 121.578L143.303 121.588C142.901 121.671 142.492 121.71 142.082 121.706ZM146.174 120.546C145.889 120.546 145.613 120.45 145.391 120.273C145.169 120.097 145.013 119.85 144.951 119.573C144.888 119.297 144.922 119.007 145.046 118.753C145.17 118.498 145.378 118.293 145.635 118.171C146.553 117.734 147.42 117.199 148.221 116.575C148.483 116.371 148.815 116.279 149.145 116.32C149.475 116.36 149.775 116.53 149.98 116.791C150.185 117.052 150.277 117.383 150.236 117.712C150.196 118.04 150.026 118.34 149.764 118.544C148.819 119.279 147.796 119.91 146.714 120.425C146.545 120.505 146.359 120.547 146.172 120.546H146.174ZM136.546 120.503C136.41 120.503 136.275 120.481 136.145 120.438C135.171 120.114 134.101 119.709 132.961 119.258C132.653 119.135 132.406 118.895 132.276 118.59C132.145 118.286 132.141 117.942 132.265 117.635C132.388 117.328 132.63 117.082 132.935 116.952C133.24 116.822 133.585 116.818 133.893 116.942C134.991 117.38 136.018 117.76 136.947 118.074C137.225 118.171 137.461 118.363 137.612 118.615C137.762 118.868 137.819 119.166 137.771 119.456C137.723 119.746 137.574 120.01 137.35 120.201C137.126 120.392 136.841 120.499 136.546 120.502V120.503ZM130.36 118.057C130.186 118.057 130.014 118.021 129.855 117.95C128.885 117.524 127.857 117.056 126.8 116.56C126.651 116.49 126.518 116.391 126.407 116.27C126.297 116.149 126.211 116.007 126.155 115.853C126.1 115.699 126.075 115.535 126.083 115.371C126.091 115.208 126.131 115.047 126.201 114.899C126.271 114.751 126.37 114.618 126.492 114.508C126.613 114.397 126.756 114.312 126.91 114.257C127.065 114.201 127.229 114.177 127.394 114.185C127.558 114.192 127.719 114.232 127.868 114.302C128.907 114.788 129.916 115.249 130.867 115.668C131.13 115.784 131.345 115.986 131.476 116.241C131.607 116.495 131.646 116.787 131.587 117.068C131.528 117.348 131.373 117.599 131.15 117.779C130.926 117.959 130.648 118.058 130.36 118.057ZM151.393 116.531C151.152 116.531 150.917 116.462 150.715 116.332C150.512 116.202 150.352 116.017 150.253 115.799C150.154 115.58 150.119 115.338 150.155 115.101C150.19 114.864 150.293 114.642 150.451 114.462C151.135 113.679 151.755 112.844 152.305 111.963C152.393 111.824 152.506 111.704 152.64 111.609C152.774 111.514 152.926 111.446 153.086 111.409C153.246 111.372 153.412 111.367 153.575 111.394C153.737 111.421 153.892 111.48 154.031 111.567C154.171 111.654 154.292 111.767 154.387 111.901C154.483 112.034 154.551 112.185 154.588 112.345C154.625 112.505 154.63 112.67 154.602 112.832C154.575 112.993 154.516 113.148 154.429 113.287C153.808 114.281 153.108 115.223 152.335 116.106C152.218 116.239 152.074 116.346 151.911 116.42C151.749 116.493 151.573 116.531 151.395 116.531H151.393ZM124.334 115.237C124.142 115.237 123.952 115.193 123.78 115.108C122.816 114.634 121.811 114.13 120.791 113.61C120.644 113.535 120.514 113.432 120.408 113.307C120.301 113.183 120.22 113.038 120.17 112.882C120.119 112.726 120.1 112.562 120.113 112.399C120.127 112.235 120.172 112.076 120.247 111.93C120.322 111.785 120.425 111.655 120.55 111.549C120.676 111.443 120.821 111.362 120.977 111.312C121.134 111.261 121.299 111.242 121.463 111.256C121.626 111.269 121.786 111.314 121.933 111.389C122.941 111.902 123.936 112.402 124.889 112.87C125.143 112.995 125.347 113.201 125.468 113.456C125.588 113.711 125.619 113.999 125.555 114.273C125.49 114.548 125.335 114.792 125.113 114.967C124.891 115.142 124.617 115.237 124.334 115.237ZM38.8257 113.839C38.564 113.84 38.3087 113.758 38.0958 113.607C37.883 113.455 37.7231 113.241 37.6388 112.994C37.5545 112.747 37.5499 112.48 37.6257 112.23C37.7016 111.981 37.854 111.761 38.0616 111.602C38.8501 110.998 39.7312 110.318 40.6813 109.58C40.8109 109.479 40.9591 109.404 41.1176 109.36C41.2761 109.316 41.4417 109.304 41.6049 109.324C41.7682 109.344 41.9259 109.396 42.0691 109.476C42.2123 109.557 42.3381 109.665 42.4394 109.794C42.5407 109.923 42.6155 110.071 42.6595 110.229C42.7035 110.387 42.7159 110.552 42.6959 110.714C42.6759 110.877 42.624 111.034 42.5431 111.177C42.4621 111.319 42.3538 111.445 42.2242 111.546C41.2684 112.29 40.3816 112.975 39.5882 113.582C39.3697 113.75 39.1015 113.84 38.8257 113.839ZM118.408 112.221C118.205 112.221 118.005 112.172 117.825 112.077C116.843 111.562 115.861 111.039 114.878 110.509C114.586 110.352 114.369 110.085 114.274 109.768C114.179 109.451 114.214 109.109 114.372 108.818C114.53 108.527 114.798 108.31 115.116 108.216C115.434 108.121 115.777 108.157 116.069 108.314C117.044 108.838 118.018 109.357 118.993 109.87C119.24 110 119.437 110.209 119.551 110.463C119.666 110.718 119.692 111.003 119.624 111.274C119.557 111.544 119.401 111.785 119.18 111.956C118.96 112.128 118.688 112.221 118.408 112.221ZM44.0619 109.759C43.8006 109.761 43.5452 109.681 43.3318 109.531C43.1183 109.38 42.9573 109.167 42.8715 108.921C42.7856 108.676 42.7791 108.409 42.853 108.159C42.9268 107.909 43.0772 107.689 43.2831 107.529C44.1179 106.867 44.9836 106.176 45.8671 105.462C45.9951 105.359 46.1422 105.282 46.3001 105.235C46.4579 105.189 46.6234 105.174 46.7872 105.191C46.9509 105.208 47.1096 105.257 47.2542 105.336C47.3988 105.414 47.5266 105.52 47.6301 105.647C47.7337 105.775 47.811 105.921 47.8577 106.079C47.9044 106.236 47.9195 106.401 47.9023 106.564C47.885 106.727 47.8357 106.885 47.7571 107.029C47.6785 107.173 47.5721 107.301 47.4442 107.404C46.5509 108.122 45.6828 108.819 44.8456 109.485C44.6237 109.661 44.3481 109.757 44.0644 109.755L44.0619 109.759ZM112.555 109.07C112.343 109.07 112.135 109.016 111.95 108.914C110.969 108.374 109.997 107.835 109.035 107.296C108.746 107.133 108.533 106.863 108.443 106.544C108.354 106.225 108.395 105.884 108.558 105.596C108.721 105.308 108.992 105.096 109.312 105.006C109.632 104.917 109.974 104.958 110.264 105.121C111.219 105.657 112.185 106.194 113.161 106.732C113.405 106.865 113.596 107.076 113.706 107.33C113.816 107.584 113.838 107.868 113.769 108.136C113.699 108.404 113.542 108.641 113.322 108.811C113.103 108.98 112.833 109.072 112.555 109.071V109.07ZM106.755 105.816C106.537 105.818 106.323 105.762 106.133 105.655C105.148 105.092 104.185 104.537 103.244 103.99C103.1 103.909 102.973 103.8 102.87 103.67C102.768 103.539 102.693 103.39 102.65 103.23C102.606 103.07 102.595 102.904 102.617 102.74C102.638 102.576 102.693 102.417 102.776 102.274C102.86 102.131 102.971 102.007 103.104 101.907C103.236 101.807 103.388 101.735 103.549 101.694C103.709 101.653 103.877 101.644 104.041 101.669C104.206 101.693 104.363 101.749 104.506 101.835C105.439 102.374 106.397 102.926 107.38 103.49C107.619 103.627 107.807 103.839 107.913 104.093C108.019 104.347 108.038 104.629 107.967 104.895C107.896 105.161 107.738 105.396 107.519 105.563C107.3 105.73 107.031 105.821 106.755 105.821V105.816ZM49.2299 105.587C48.9721 105.587 48.7206 105.508 48.5096 105.36C48.2986 105.213 48.1385 105.004 48.0511 104.762C47.9637 104.521 47.9533 104.258 48.0212 104.01C48.0892 103.762 48.2322 103.542 48.4308 103.378C49.3014 102.66 50.1548 101.948 50.9685 101.261C51.2236 101.069 51.5427 100.982 51.8604 101.017C52.1782 101.051 52.4705 101.206 52.6776 101.449C52.8846 101.691 52.9906 102.004 52.9739 102.322C52.9572 102.64 52.8191 102.94 52.5878 103.159C51.7668 103.853 50.9052 104.572 50.0274 105.295C49.804 105.483 49.5218 105.586 49.2299 105.587ZM101.006 102.475C100.782 102.475 100.562 102.415 100.369 102.3C99.3685 101.709 98.4102 101.138 97.504 100.594C97.2196 100.423 97.015 100.146 96.9352 99.8252C96.8554 99.5039 96.9069 99.1643 97.0784 98.8809C97.25 98.5976 97.5275 98.3937 97.8499 98.3142C98.1723 98.2347 98.5132 98.2861 98.7976 98.457C99.6982 98.9983 100.651 99.5662 101.646 100.156C101.883 100.295 102.067 100.508 102.169 100.762C102.272 101.016 102.289 101.296 102.216 101.56C102.143 101.824 101.985 102.057 101.767 102.223C101.548 102.388 101.281 102.478 101.006 102.477V102.475ZM54.2988 101.299C54.0445 101.298 53.7964 101.22 53.5875 101.076C53.3786 100.931 53.2188 100.727 53.1293 100.49C53.0398 100.253 53.025 99.9941 53.0866 99.7483C53.1483 99.5025 53.2836 99.2812 53.4746 99.114C54.3386 98.3623 55.1685 97.6277 55.9424 96.9294C56.0643 96.8194 56.2068 96.7344 56.3617 96.6792C56.5165 96.624 56.6808 96.5998 56.8451 96.6078C57.0093 96.6159 57.1704 96.6562 57.3191 96.7263C57.4677 96.7963 57.6011 96.8949 57.7115 97.0164C57.822 97.1378 57.9073 97.2798 57.9627 97.4341C58.018 97.5884 58.0424 97.752 58.0343 97.9157C58.0262 98.0794 57.9858 98.2398 57.9154 98.388C57.8451 98.5361 57.7461 98.669 57.6242 98.779C56.839 99.4878 56.0001 100.235 55.1222 100.994C54.8937 101.192 54.6012 101.3 54.2988 101.299ZM95.3081 99.0452C95.0767 99.0452 94.8498 98.981 94.6528 98.8599C93.6134 98.2223 92.6576 97.6277 91.8106 97.0937C91.5477 96.909 91.3662 96.6306 91.3037 96.3161C91.2413 96.0017 91.3027 95.6754 91.4752 95.4049C91.6477 95.1344 91.9181 94.9404 92.2303 94.8631C92.5425 94.7859 92.8726 94.8313 93.1521 94.99C93.9877 95.5183 94.933 96.1066 95.9627 96.7376C96.1952 96.8799 96.3747 97.094 96.4739 97.3473C96.5731 97.6006 96.5865 97.8792 96.5122 98.1408C96.4378 98.4024 96.2797 98.6326 96.0619 98.7965C95.8441 98.9603 95.5786 99.0488 95.3057 99.0484L95.3081 99.0452ZM59.2207 96.8485C58.9704 96.8486 58.7257 96.774 58.5183 96.6342C58.311 96.4945 58.1504 96.296 58.0574 96.0644C57.9644 95.8328 57.9432 95.5787 57.9965 95.335C58.0499 95.0913 58.1753 94.8691 58.3567 94.6971C59.2021 93.8945 59.9882 93.1234 60.693 92.4041C60.9258 92.1705 61.2417 92.038 61.5721 92.0354C61.9025 92.0329 62.2205 92.1605 62.4568 92.3905C62.6932 92.6206 62.8287 92.9343 62.8339 93.2635C62.839 93.5926 62.7134 93.9105 62.4844 94.1477C61.7593 94.8881 60.9513 95.685 60.084 96.5038C59.8515 96.7252 59.5423 96.8487 59.2207 96.8485ZM89.696 95.473C89.4461 95.4731 89.2019 95.3984 88.9951 95.2586C88.4616 94.8986 87.9175 94.5304 87.3645 94.1486C86.9958 93.8972 86.6236 93.6431 86.2479 93.3864C86.1088 93.2955 85.9892 93.1779 85.8963 93.0404C85.8033 92.9029 85.7387 92.7484 85.7063 92.5858C85.674 92.4232 85.6745 92.2558 85.7078 92.0934C85.7411 91.931 85.8065 91.7768 85.9003 91.6399C85.9941 91.503 86.1143 91.386 86.2539 91.2959C86.3936 91.2058 86.5499 91.1443 86.7136 91.1151C86.8774 91.0858 87.0454 91.0894 87.2077 91.1255C87.3701 91.1617 87.5236 91.2297 87.6593 91.3256C88.0383 91.5818 88.4123 91.837 88.7816 92.091C89.3305 92.4664 89.8697 92.8354 90.3992 93.1922C90.6212 93.3419 90.7892 93.5587 90.8783 93.8107C90.9674 94.0626 90.9731 94.3364 90.8943 94.5918C90.8156 94.8471 90.6567 95.0706 90.4409 95.2292C90.2252 95.3879 89.9641 95.4733 89.696 95.473ZM63.8463 92.091C63.6063 92.091 63.3714 92.0223 63.1695 91.8931C62.9676 91.7638 62.8072 91.5795 62.7074 91.362C62.6077 91.1446 62.5727 90.9032 62.6068 90.6665C62.6408 90.4298 62.7424 90.2078 62.8994 90.027C63.2591 89.6128 63.5905 89.2131 63.8844 88.8385C64.2717 88.3441 64.6925 87.8767 65.144 87.4395C65.3829 87.2097 65.7037 87.0839 66.0358 87.0897C66.3679 87.0956 66.684 87.2326 66.9147 87.4707C67.1453 87.7088 67.2716 88.0284 67.2658 88.3593C67.2599 88.6901 67.1224 89.0051 66.8834 89.2349C66.5157 89.5912 66.1733 89.9723 65.8586 90.3758C65.5394 90.7803 65.1813 91.214 64.7956 91.659C64.6777 91.7944 64.5319 91.9028 64.368 91.9768C64.2042 92.0509 64.0262 92.0887 63.8463 92.0878V92.091ZM84.1861 91.7674C83.9462 91.7674 83.7113 91.6986 83.5096 91.5692C82.497 90.9219 81.5883 90.3693 80.7316 89.8871C80.4424 89.7242 80.2301 89.4536 80.1412 89.1347C80.0523 88.8158 80.0942 88.4748 80.2577 88.1867C80.4212 87.8987 80.6928 87.6871 81.0129 87.5986C81.3329 87.51 81.6751 87.5518 81.9643 87.7146C82.8624 88.2203 83.8117 88.7948 84.865 89.4704C85.0926 89.6162 85.2667 89.8317 85.3612 90.0844C85.4556 90.3371 85.4654 90.6135 85.3889 90.8722C85.3125 91.1309 85.1539 91.3579 84.9371 91.5193C84.7202 91.6807 84.4567 91.7677 84.1861 91.7674ZM78.3855 88.5521C78.2116 88.5522 78.0395 88.5161 77.8804 88.4461C76.9328 88.0218 75.9518 87.6759 74.9472 87.412C74.6253 87.3303 74.3492 87.1245 74.1797 86.8399C74.0101 86.5553 73.9609 86.2153 74.043 85.8946C74.125 85.5739 74.3316 85.2988 74.6172 85.1299C74.9028 84.9609 75.2441 84.9119 75.566 84.9937C76.7062 85.2915 77.8198 85.6826 78.8955 86.1628C79.1584 86.2783 79.3735 86.4804 79.5046 86.7351C79.6358 86.9899 79.675 87.2818 79.6156 87.562C79.5563 87.8421 79.4021 88.0934 79.1789 88.2737C78.9556 88.454 78.6769 88.5522 78.3896 88.5521H78.3855ZM68.7463 87.7357C68.4584 87.7354 68.1793 87.6364 67.9561 87.4552C67.7328 87.2741 67.579 87.0219 67.5205 86.741C67.462 86.4601 67.5023 86.1677 67.6348 85.913C67.7672 85.6583 67.9836 85.4568 68.2477 85.3424C69.4159 84.8443 70.6697 84.5756 71.9401 84.5511C72.2711 84.5445 72.5912 84.6688 72.8305 84.8967C73.0697 85.1246 73.2087 85.4376 73.217 85.7673C73.2252 86.097 73.1021 86.4166 72.8746 86.6561C72.647 86.8956 72.3335 87.0356 72.0027 87.0455C71.0527 87.0597 70.1147 87.259 69.2416 87.6321C69.0853 87.6995 68.9166 87.7339 68.7463 87.7333V87.7357Z" fill="url(#paint10_linear_22_321)"/>
<path d="M154.861 111.071C154.653 111.069 154.449 111.016 154.267 110.916C154.085 110.816 153.93 110.673 153.818 110.499C153.705 110.325 153.637 110.126 153.621 109.92C153.605 109.713 153.64 109.506 153.724 109.317C153.933 108.856 154.119 108.385 154.28 107.906C154.382 107.594 154.603 107.335 154.895 107.184C155.187 107.034 155.527 107.004 155.841 107.1C156.155 107.197 156.418 107.413 156.574 107.702C156.729 107.99 156.765 108.328 156.673 108.643C156.484 109.216 156.264 109.779 156.014 110.329C155.915 110.551 155.753 110.739 155.549 110.871C155.344 111.003 155.105 111.072 154.861 111.071Z" fill="url(#paint11_linear_22_321)"/>
<path d="M73.7859 41.5065C73.7859 56.7522 52.3474 84.5729 42.6481 96.3824C42.0817 97.0708 41.3692 97.6253 40.5617 98.0061C39.7542 98.3869 38.872 98.5844 37.9787 98.5844C37.0854 98.5844 36.2032 98.3869 35.3957 98.0061C34.5882 97.6253 33.8757 97.0708 33.3093 96.3824C23.6051 84.5729 2.16821 56.7522 2.16821 41.5065C2.16821 21.8026 18.2 5.82544 37.9803 5.82544C57.7606 5.82544 73.7859 21.8026 73.7859 41.5065Z" fill="url(#paint12_linear_22_321)"/>
<path d="M52.0989 55.5766C59.8982 47.8059 59.8982 35.2072 52.0989 27.4365C44.2997 19.6658 31.6547 19.6658 23.8555 27.4365C16.0563 35.2072 16.0563 47.8059 23.8555 55.5766C31.6547 63.3472 44.2997 63.3472 52.0989 55.5766Z" fill="white"/>
<g style="mix-blend-mode:multiply" opacity="0.3">
<path style="mix-blend-mode:multiply" opacity="0.3" d="M37.8187 81.7338C40.0909 66.8311 49.9705 62.0575 48.2749 47.9792C46.3194 31.7464 31.8931 27.4226 31.5463 12.9754C31.4983 10.7069 31.7881 8.44379 32.4063 6.25995C15.275 8.92591 2.16821 23.6911 2.16821 41.5065C2.16821 56.7522 23.6068 84.5729 33.3061 96.3824C33.9703 97.1933 34.8359 97.8168 35.8169 98.1911C36.7978 98.5654 37.8601 98.6774 38.8979 98.516C37.1585 91.9866 37.1057 86.4112 37.8187 81.7338Z" fill="url(#paint13_linear_22_321)"/>
</g>
<path d="M37.9771 121.032C42.0194 121.032 45.2963 117.767 45.2963 113.74C45.2963 109.712 42.0194 106.448 37.9771 106.448C33.9349 106.448 30.658 109.712 30.658 113.74C30.658 117.767 33.9349 121.032 37.9771 121.032Z" fill="url(#paint14_linear_22_321)"/>
<path d="M171.767 74.4317C171.767 81.3697 162.012 94.0296 157.598 99.4036C157.34 99.7172 157.016 99.9698 156.648 100.143C156.28 100.317 155.879 100.407 155.472 100.407C155.065 100.407 154.664 100.317 154.296 100.143C153.928 99.9698 153.604 99.7172 153.346 99.4036C148.932 94.0296 139.177 81.3697 139.177 74.4317C139.177 65.4654 146.472 58.1965 155.472 58.1965C164.472 58.1965 171.767 65.4654 171.767 74.4317Z" fill="url(#paint15_linear_22_321)"/>
<path d="M164.465 75.6828C165.161 70.7305 161.696 66.1537 156.725 65.4603C151.755 64.7669 147.161 68.2195 146.465 73.1719C145.769 78.1243 149.235 82.7011 154.205 83.3945C159.176 84.0879 163.769 80.6352 164.465 75.6828Z" fill="white"/>
<g style="mix-blend-mode:multiply" opacity="0.3">
<path style="mix-blend-mode:multiply" opacity="0.3" d="M155.4 92.7374C156.434 85.954 160.929 83.7824 160.158 77.3776C159.265 69.9906 152.703 68.0228 152.545 61.449C152.523 60.4163 152.655 59.3862 152.937 58.3922C145.141 59.6059 139.177 66.3213 139.177 74.4317C139.177 81.3697 148.932 94.0295 153.346 99.4035C153.649 99.7723 154.042 100.056 154.488 100.226C154.935 100.396 155.418 100.448 155.89 100.374C155.1 97.4035 155.075 94.8661 155.4 92.7374Z" fill="url(#paint16_linear_22_321)"/>
</g>
<path d="M156.443 110.462C158.203 109.93 159.198 108.078 158.665 106.324C158.132 104.57 156.273 103.579 154.512 104.11C152.752 104.642 151.757 106.494 152.29 108.248C152.824 110.002 154.683 110.993 156.443 110.462Z" fill="url(#paint17_linear_22_321)"/>
<path d="M127.982 212.119L102.651 211.087L109.664 194.716L125.984 195.675L130.35 202.79L127.982 212.119Z" fill="url(#paint18_linear_22_321)"/>
<path d="M151.745 186.096C151.914 186.096 152.08 186.108 152.246 186.124L154.879 186.096L154.863 187.124C157.413 188.893 159.184 192.762 159.184 197.253C159.184 201.921 157.271 205.918 154.555 207.582L154.543 208.41H151.742C147.633 208.41 144.303 203.415 144.303 197.253C144.303 191.091 147.634 186.096 151.745 186.096Z" fill="url(#paint19_linear_22_321)"/>
<path d="M154.879 208.41C158.987 208.41 162.317 203.415 162.317 197.253C162.317 191.091 158.987 186.096 154.879 186.096C150.771 186.096 147.44 191.091 147.44 197.253C147.44 203.415 150.771 208.41 154.879 208.41Z" fill="url(#paint20_linear_22_321)"/>
<path d="M79.0603 194.568C79.2665 194.568 79.4712 194.581 79.6742 194.6L82.8989 194.568L82.8802 195.72C86.0042 197.702 88.1725 202.036 88.1725 207.067C88.1725 212.297 85.8297 216.776 82.5059 218.637L82.4904 219.564H79.0603C74.0255 219.564 69.9473 213.968 69.9473 207.065C69.9473 200.162 74.0271 194.568 79.0603 194.568Z" fill="url(#paint21_linear_22_321)"/>
<path d="M82.8989 219.567C87.9319 219.567 92.0119 213.971 92.0119 207.067C92.0119 200.164 87.9319 194.568 82.8989 194.568C77.8659 194.568 73.7859 200.164 73.7859 207.067C73.7859 213.971 77.8659 219.567 82.8989 219.567Z" fill="url(#paint22_linear_22_321)"/>
<path d="M113.713 200.372C113.917 200.372 114.119 200.385 114.318 200.404L117.492 200.372L117.473 201.552C120.549 203.585 122.684 208.025 122.684 213.186C122.684 218.547 120.377 223.138 117.106 225.049L117.09 226H113.713C108.759 226 104.742 220.263 104.742 213.186C104.742 206.109 108.758 200.372 113.713 200.372Z" fill="url(#paint23_linear_22_321)"/>
<path d="M117.492 226.001C122.447 226.001 126.463 220.264 126.463 213.186C126.463 206.109 122.447 200.372 117.492 200.372C112.538 200.372 108.521 206.109 108.521 213.186C108.521 220.264 112.538 226.001 117.492 226.001Z" fill="url(#paint24_linear_22_321)"/>
<path d="M118.753 220.386C121.537 220.386 123.793 217.162 123.793 213.186C123.793 209.21 121.537 205.987 118.753 205.987C115.97 205.987 113.714 209.21 113.714 213.186C113.714 217.162 115.97 220.386 118.753 220.386Z" fill="#D8DEE8"/>
<path d="M117.991 219.87C120.353 219.87 122.268 216.878 122.268 213.186C122.268 209.495 120.353 206.502 117.991 206.502C115.628 206.502 113.714 209.495 113.714 213.186C113.714 216.878 115.628 219.87 117.991 219.87Z" fill="url(#paint25_linear_22_321)"/>
<path d="M203.179 186.096V199.434C203.179 200.255 203.004 201.067 202.665 201.815C202.327 202.564 201.833 203.232 201.215 203.776C200.598 204.32 199.872 204.727 199.085 204.971C198.298 205.214 197.468 205.289 196.651 205.189L164.1 201.205V186.096H203.179Z" fill="url(#paint26_linear_22_321)"/>
<path d="M188.524 184.244L179.588 198.08C178.956 199.057 178.117 199.883 177.128 200.499C176.14 201.115 175.027 201.507 173.87 201.645L144.304 205.186L142.042 190.291L188.524 184.244Z" fill="url(#paint27_linear_22_321)"/>
<path d="M186.464 190.985C186.632 190.986 186.799 190.995 186.966 191.013L189.598 190.985L189.582 192.012C192.132 193.782 193.903 197.651 193.903 202.142C193.903 206.81 191.99 210.807 189.274 212.471L189.262 213.299H186.461C182.353 213.299 179.023 208.303 179.023 202.142C179.023 195.981 182.357 190.985 186.464 190.985Z" fill="url(#paint28_linear_22_321)"/>
<path d="M189.598 213.298C193.706 213.298 197.036 208.303 197.036 202.141C197.036 195.98 193.706 190.985 189.598 190.985C185.49 190.985 182.159 195.98 182.159 202.141C182.159 208.303 185.49 213.298 189.598 213.298Z" fill="url(#paint29_linear_22_321)"/>
<path d="M190.643 208.409C192.951 208.409 194.822 205.603 194.822 202.141C194.822 198.68 192.951 195.873 190.643 195.873C188.335 195.873 186.464 198.68 186.464 202.141C186.464 205.603 188.335 208.409 190.643 208.409Z" fill="#D8DEE8"/>
<path d="M190.011 207.96C191.97 207.96 193.558 205.355 193.558 202.141C193.558 198.928 191.97 196.322 190.011 196.322C188.053 196.322 186.465 198.928 186.465 202.141C186.465 205.355 188.053 207.96 190.011 207.96Z" fill="url(#paint30_linear_22_321)"/>
<path d="M154.183 194.716L214.906 186.334C215.389 186.268 215.832 186.029 216.153 185.663C216.473 185.296 216.65 184.826 216.649 184.34V131.038C216.65 130.514 216.445 130.012 216.08 129.636C215.714 129.26 215.216 129.041 214.691 129.025L154.183 127.164V194.716Z" fill="url(#paint31_linear_22_321)"/>
<path d="M106.518 190.985L154.186 194.716V127.168L108.889 129.55C108.25 129.584 107.648 129.861 107.207 130.323C106.767 130.786 106.521 131.399 106.521 132.037L106.518 190.985Z" fill="url(#paint32_linear_22_321)"/>
<path style="mix-blend-mode:multiply" opacity="0.3" d="M176.091 153.029C184.917 141.945 202.463 150.124 211.321 137.691C213.152 135.115 214.617 132.299 215.673 129.322C215.969 129.5 216.215 129.752 216.386 130.052C216.557 130.353 216.646 130.692 216.647 131.037V184.342C216.647 184.828 216.471 185.298 216.15 185.665C215.83 186.031 215.387 186.27 214.903 186.337L159.952 193.919C163.421 190.142 166.905 185.315 169.427 179.281C174.967 166.035 170.328 160.268 176.091 153.029Z" fill="url(#paint33_linear_22_321)"/>
<path d="M144.969 155.119C146.614 162.473 150.451 183.688 146.169 206.487C146.011 207.316 145.6 208.075 144.992 208.662C144.384 209.249 143.609 209.635 142.772 209.766L127.982 212.119C127.982 212.119 127.834 198.168 120.729 197.253C113.624 196.338 106.962 202.975 106.518 214.478C106.518 214.478 91.1235 216.543 67.883 211.234C67.883 211.234 64.7744 210.571 63.4426 207.067L64.4918 191.022C64.535 190.37 64.708 189.733 65.0008 189.148C65.2936 188.563 65.7003 188.042 66.1972 187.615L79.8772 175.838C79.8772 175.838 92.3116 158.287 96.4563 154.895C96.4563 154.895 98.6765 151.355 116.588 150.913C128.924 150.608 137.417 151.423 141.51 151.959C142.342 152.068 143.12 152.43 143.739 152.995C144.358 153.561 144.788 154.302 144.969 155.119Z" fill="url(#paint34_linear_22_321)"/>
<path style="mix-blend-mode:multiply" opacity="0.6" d="M65.2787 188.665L65.9592 189.406C65.6628 197.666 63.8665 200.585 79.0603 202.142C94.254 203.7 93.7879 190.985 93.7879 190.985L113.713 182.328L130.35 156.223C133.653 153.572 139.423 152.848 143.335 152.681C144.165 153.263 144.748 154.132 144.969 155.119C146.614 162.474 150.451 183.688 146.169 206.488C146.011 207.316 145.6 208.076 144.992 208.663C144.384 209.25 143.609 209.636 142.773 209.767L127.982 212.119C127.982 212.119 127.834 198.168 120.729 197.253C113.624 196.338 106.962 202.975 106.518 214.479C106.518 214.479 91.1235 216.543 67.883 211.234C67.883 211.234 64.7744 210.571 63.4426 207.067L64.4918 191.022C64.5482 190.182 64.819 189.371 65.2787 188.665Z" fill="url(#paint35_linear_22_321)"/>
<path d="M113.917 178.519C113.653 178.951 113.269 179.297 112.813 179.518C112.356 179.738 111.846 179.822 111.342 179.761L79.792 175.907L79.8732 175.838C79.8732 175.838 90.1921 161.274 95.1628 156.116L124.255 157.86C124.484 157.874 124.706 157.947 124.898 158.071C125.091 158.195 125.248 158.367 125.354 158.57C125.46 158.773 125.512 158.999 125.504 159.228C125.497 159.456 125.43 159.679 125.311 159.874L113.917 178.519Z" fill="url(#paint36_linear_22_321)"/>
<g style="mix-blend-mode:overlay" opacity="0.3">
<path d="M95.1302 168.73C103.721 165.366 110.858 169.353 116.766 164.648C119.04 162.837 120.393 160.324 121.193 157.676L124.255 157.86C124.484 157.874 124.706 157.947 124.898 158.071C125.091 158.196 125.248 158.367 125.354 158.57C125.46 158.773 125.512 158.999 125.504 159.228C125.497 159.456 125.43 159.679 125.311 159.874L113.917 178.519C113.653 178.951 113.269 179.297 112.813 179.518C112.356 179.738 111.846 179.822 111.342 179.761L85.1621 176.564C88.6004 172.112 92.1394 169.902 95.1302 168.73Z" fill="white"/>
</g>
<path d="M67.248 190.793C67.2629 190.655 67.3287 190.527 67.4327 190.435C67.5367 190.343 67.6714 190.292 67.8107 190.293C75.6723 190.362 85.5584 192.01 88.831 192.595C88.9774 192.62 89.1171 192.675 89.2416 192.756C89.366 192.837 89.4726 192.942 89.555 193.066C89.6373 193.189 89.6936 193.328 89.7205 193.473C89.7474 193.619 89.7442 193.768 89.7113 193.913C89.0714 196.634 88.006 198.475 87.228 199.543C86.9667 199.901 86.6304 200.199 86.2424 200.416C85.8543 200.632 85.4237 200.763 84.9802 200.797C82.5067 200.991 77.022 201.32 74.3592 200.689C71.9929 200.128 69.7304 199.009 68.5123 198.343C68.1614 198.154 67.8587 197.887 67.6276 197.563C67.3964 197.239 67.2429 196.867 67.1789 196.474C66.8793 194.554 67.1237 191.889 67.248 190.793Z" fill="url(#paint37_linear_22_321)"/>
<path d="M105.717 191.549C105.77 191.444 105.799 191.329 105.804 191.211C105.809 191.094 105.789 190.977 105.746 190.868C105.702 190.758 105.636 190.66 105.552 190.577C105.468 190.495 105.367 190.432 105.257 190.391C104.562 190.134 103.611 189.839 103.058 189.905C102.333 189.99 96.2047 191.576 93.4014 192.308C92.9807 192.415 92.6105 192.665 92.3542 193.014C92.0979 193.364 91.9715 193.791 91.9965 194.223C92.1216 196.124 92.8419 199.136 96.1194 199.474C100.669 199.941 103.543 195.944 105.717 191.549Z" fill="url(#paint38_linear_22_321)"/>
<path d="M76.2464 202.79C88.1724 204.45 90.5924 200.372 90.5924 200.372C93.4143 200.79 97.4267 200.239 99.6997 199.844C100.566 199.695 101.405 200.104 101.892 200.836C102.255 201.383 102.915 201.936 104.113 202.142C106.07 202.478 109.403 201.738 111.036 201.318C108.66 204.566 106.997 208.777 106.778 214.462C106.778 214.462 91.1243 216.543 67.8797 211.234C67.8797 211.234 64.7711 210.571 63.4393 207.067L64.1239 196.604C65.3452 198.461 68.5302 201.717 76.2464 202.79Z" fill="url(#paint39_linear_22_321)"/>
<path style="mix-blend-mode:multiply" opacity="0.6" d="M95.6435 204.854C95.9544 204.825 96.268 204.861 96.5637 204.962C96.8594 205.062 97.1304 205.223 97.3587 205.436C97.5871 205.648 97.7676 205.906 97.8884 206.193C98.0091 206.48 98.0674 206.789 98.0593 207.1C97.9968 209.923 98.2859 212.877 98.5417 214.873C91.7894 214.888 81.1099 214.256 67.883 211.232C67.883 211.232 64.7744 210.568 63.4426 207.065L63.8413 200.967C73.3701 206.352 89.4084 205.456 95.6435 204.854Z" fill="url(#paint40_linear_22_321)"/>
<path d="M139.882 159.384L135.598 160.417C134.197 160.755 132.971 161.597 132.156 162.781L121.549 178.197C120.825 179.249 121.76 180.643 123.011 180.382L141.39 176.508C141.75 176.433 142.075 176.241 142.313 175.961C142.55 175.682 142.688 175.332 142.704 174.966C142.82 172.325 142.942 166.066 141.904 160.693C141.862 160.472 141.776 160.262 141.651 160.075C141.526 159.889 141.364 159.729 141.175 159.607C140.986 159.484 140.774 159.402 140.552 159.363C140.329 159.325 140.102 159.332 139.882 159.384Z" fill="url(#paint41_linear_22_321)"/>
</g>
<defs>
<linearGradient id="paint0_linear_22_321" x1="212.318" y1="70.9376" x2="132.255" y2="88.1571" gradientUnits="userSpaceOnUse">
<stop stop-color="#8F8DE3"/>
<stop offset="1" stop-color="#71AEF6"/>
</linearGradient>
<linearGradient id="paint1_linear_22_321" x1="227.392" y1="115.119" x2="145.67" y2="117.58" gradientUnits="userSpaceOnUse">
<stop stop-color="#858AFF"/>
<stop offset="1" stop-color="#836FFB"/>
</linearGradient>
<linearGradient id="paint2_linear_22_321" x1="13359.7" y1="238805" x2="56486.6" y2="238805" gradientUnits="userSpaceOnUse">
<stop stop-color="#6966FF"/>
<stop offset="1" stop-color="#FB6FBB"/>
</linearGradient>
<linearGradient id="paint3_linear_22_321" x1="141.408" y1="13.3581" x2="188.186" y2="118.502" gradientUnits="userSpaceOnUse">
<stop stop-color="#FCB148"/>
<stop offset="0.05" stop-color="#FDBA46"/>
<stop offset="0.14" stop-color="#FFC244"/>
<stop offset="0.32" stop-color="#FFC444"/>
<stop offset="0.48" stop-color="#FDB946"/>
<stop offset="0.78" stop-color="#F99C4D"/>
<stop offset="0.87" stop-color="#F8924F"/>
<stop offset="1" stop-color="#F8924F"/>
</linearGradient>
<linearGradient id="paint4_linear_22_321" x1="116282" y1="135322" x2="309117" y2="355820" gradientUnits="userSpaceOnUse">
<stop stop-color="#6672E0"/>
<stop offset="1" stop-color="#FB6FBB"/>
</linearGradient>
<linearGradient id="paint5_linear_22_321" x1="30370.5" y1="238588" x2="67617.4" y2="238641" gradientUnits="userSpaceOnUse">
<stop stop-color="#706DE2"/>
<stop offset="1" stop-color="#6F85FB"/>
</linearGradient>
<linearGradient id="paint6_linear_22_321" x1="149.024" y1="114.154" x2="150.101" y2="114.154" gradientUnits="userSpaceOnUse">
<stop stop-color="#311944"/>
<stop offset="1" stop-color="#A03976"/>
</linearGradient>
<linearGradient id="paint7_linear_22_321" x1="708.426" y1="212655" x2="722.726" y2="212655" gradientUnits="userSpaceOnUse">
<stop stop-color="#311944"/>
<stop offset="1" stop-color="#A03976"/>
</linearGradient>
<linearGradient id="paint8_linear_22_321" x1="44577.2" y1="11160" x2="353698" y2="11160" gradientUnits="userSpaceOnUse">
<stop stop-color="#311944"/>
<stop offset="1" stop-color="#A03976"/>
</linearGradient>
<linearGradient id="paint9_linear_22_321" x1="33.5967" y1="115.095" x2="156.729" y2="115.095" gradientUnits="userSpaceOnUse">
<stop stop-color="#AA80F9"/>
<stop offset="1" stop-color="#6165D7"/>
</linearGradient>
<linearGradient id="paint10_linear_22_321" x1="48498.8" y1="47443.2" x2="224818" y2="47443.2" gradientUnits="userSpaceOnUse">
<stop stop-color="#8280F9"/>
<stop offset="1" stop-color="#6165D7"/>
</linearGradient>
<linearGradient id="paint11_linear_22_321" x1="1437.72" y1="5533.39" x2="6147.99" y2="5533.39" gradientUnits="userSpaceOnUse">
<stop stop-color="#AA80F9"/>
<stop offset="1" stop-color="#6165D7"/>
</linearGradient>
<linearGradient id="paint12_linear_22_321" x1="29420.6" y1="32741.4" x2="78424.9" y2="130195" gradientUnits="userSpaceOnUse">
<stop stop-color="#8280F9"/>
<stop offset="1" stop-color="#6165D7"/>
</linearGradient>
<linearGradient id="paint13_linear_22_321" x1="11659" y1="38289.1" x2="70485.4" y2="114275" gradientUnits="userSpaceOnUse">
<stop stop-color="#AA80F9"/>
<stop offset="1" stop-color="#6165D7"/>
</linearGradient>
<linearGradient id="paint14_linear_22_321" x1="8568.3" y1="18050.6" x2="4367.88" y2="24449.6" gradientUnits="userSpaceOnUse">
<stop stop-color="#8280F9"/>
<stop offset="1" stop-color="#6165D7"/>
</linearGradient>
<linearGradient id="paint15_linear_22_321" x1="61691.1" y1="35814.1" x2="71838.3" y2="55994.7" gradientUnits="userSpaceOnUse">
<stop stop-color="#FF9085"/>
<stop offset="1" stop-color="#FB6FBB"/>
</linearGradient>
<linearGradient id="paint16_linear_22_321" x1="38408" y1="36828.8" x2="50589.5" y2="52564.1" gradientUnits="userSpaceOnUse">
<stop stop-color="#FF9085"/>
<stop offset="1" stop-color="#FB6FBB"/>
</linearGradient>
<linearGradient id="paint17_linear_22_321" x1="13298" y1="8389.4" x2="12426.8" y2="9718.72" gradientUnits="userSpaceOnUse">
<stop stop-color="#FF9085"/>
<stop offset="1" stop-color="#FB6FBB"/>
</linearGradient>
<linearGradient id="paint18_linear_22_321" x1="130.35" y1="203.417" x2="102.65" y2="203.417" gradientUnits="userSpaceOnUse">
<stop stop-color="#444B8C"/>
<stop offset="1" stop-color="#26264F"/>
</linearGradient>
<linearGradient id="paint19_linear_22_321" x1="159.184" y1="197.253" x2="144.306" y2="197.253" gradientUnits="userSpaceOnUse">
<stop stop-color="#311944"/>
<stop offset="1" stop-color="#6B3976"/>
</linearGradient>
<linearGradient id="paint20_linear_22_321" x1="51258.1" y1="54584.6" x2="53983.5" y2="54584.6" gradientUnits="userSpaceOnUse">
<stop stop-color="#311944"/>
<stop offset="1" stop-color="#6B3976"/>
</linearGradient>
<linearGradient id="paint21_linear_22_321" x1="79323.3" y1="64165.8" x2="83413.6" y2="64165.8" gradientUnits="userSpaceOnUse">
<stop stop-color="#311944"/>
<stop offset="1" stop-color="#6B3976"/>
</linearGradient>
<linearGradient id="paint22_linear_22_321" x1="78469.1" y1="64174.2" x2="82559.5" y2="64174.2" gradientUnits="userSpaceOnUse">
<stop stop-color="#311944"/>
<stop offset="1" stop-color="#6B3976"/>
</linearGradient>
<linearGradient id="paint23_linear_22_321" x1="70500.8" y1="67727.1" x2="74464.8" y2="67727.1" gradientUnits="userSpaceOnUse">
<stop stop-color="#311944"/>
<stop offset="1" stop-color="#6B3976"/>
</linearGradient>
<linearGradient id="paint24_linear_22_321" x1="69669.4" y1="67729.3" x2="73633.5" y2="67729.3" gradientUnits="userSpaceOnUse">
<stop stop-color="#311944"/>
<stop offset="1" stop-color="#6B3976"/>
</linearGradient>
<linearGradient id="paint25_linear_22_321" x1="111.893" y1="212.529" x2="120.107" y2="213.421" gradientUnits="userSpaceOnUse">
<stop offset="0.01" stop-color="#D8DEE8"/>
<stop offset="1" stop-color="#F4F7FA"/>
</linearGradient>
<linearGradient id="paint26_linear_22_321" x1="114757" y1="46461.4" x2="133563" y2="46461.4" gradientUnits="userSpaceOnUse">
<stop stop-color="#444B8C"/>
<stop offset="1" stop-color="#26264F"/>
</linearGradient>
<linearGradient id="paint27_linear_22_321" x1="144833" y1="50582.5" x2="171439" y2="50582.5" gradientUnits="userSpaceOnUse">
<stop stop-color="#444B8C"/>
<stop offset="1" stop-color="#26264F"/>
</linearGradient>
<linearGradient id="paint28_linear_22_321" x1="45510.5" y1="55939.6" x2="48236.4" y2="55939.6" gradientUnits="userSpaceOnUse">
<stop stop-color="#311944"/>
<stop offset="1" stop-color="#6B3976"/>
</linearGradient>
<linearGradient id="paint29_linear_22_321" x1="44932.2" y1="55937.5" x2="47657.5" y2="55937.5" gradientUnits="userSpaceOnUse">
<stop stop-color="#311944"/>
<stop offset="1" stop-color="#6B3976"/>
</linearGradient>
<linearGradient id="paint30_linear_22_321" x1="22782.4" y1="29415.5" x2="21762.6" y2="29331.9" gradientUnits="userSpaceOnUse">
<stop offset="0.01" stop-color="#D8DEE8"/>
<stop offset="1" stop-color="#F4F7FA"/>
</linearGradient>
<linearGradient id="paint31_linear_22_321" x1="216.649" y1="160.942" x2="154.182" y2="160.942" gradientUnits="userSpaceOnUse">
<stop stop-color="#4457FF"/>
<stop offset="1" stop-color="#5666F3"/>
</linearGradient>
<linearGradient id="paint32_linear_22_321" x1="168647" y1="134491" x2="196626" y2="134491" gradientUnits="userSpaceOnUse">
<stop stop-color="#526AE6"/>
<stop offset="1" stop-color="#7362DA"/>
</linearGradient>
<linearGradient id="paint33_linear_22_321" x1="157005" y1="129166" x2="196588" y2="129166" gradientUnits="userSpaceOnUse">
<stop stop-color="#444BFF"/>
<stop offset="1" stop-color="#5956F3"/>
</linearGradient>
<linearGradient id="paint34_linear_22_321" x1="305795" y1="144856" x2="394106" y2="144856" gradientUnits="userSpaceOnUse">
<stop offset="0.01" stop-color="#D8DEE8"/>
<stop offset="1" stop-color="#F4F7FA"/>
</linearGradient>
<linearGradient id="paint35_linear_22_321" x1="349378" y1="141872" x2="324074" y2="196425" gradientUnits="userSpaceOnUse">
<stop offset="0.01" stop-color="#D8DEE8"/>
<stop offset="1" stop-color="#F4F7FA"/>
</linearGradient>
<linearGradient id="paint36_linear_22_321" x1="177848" y1="49277.5" x2="203583" y2="49277.5" gradientUnits="userSpaceOnUse">
<stop stop-color="#444B8C"/>
<stop offset="1" stop-color="#26264F"/>
</linearGradient>
<linearGradient id="paint37_linear_22_321" x1="101558" y1="25161.1" x2="101530" y2="28615.4" gradientUnits="userSpaceOnUse">
<stop stop-color="#444B8C"/>
<stop offset="1" stop-color="#26264F"/>
</linearGradient>
<linearGradient id="paint38_linear_22_321" x1="-57290.9" y1="22342.8" x2="-58532.5" y2="25488.8" gradientUnits="userSpaceOnUse">
<stop stop-color="#FCB148"/>
<stop offset="0.05" stop-color="#FDBA46"/>
<stop offset="0.14" stop-color="#FFC244"/>
<stop offset="0.32" stop-color="#FFC444"/>
<stop offset="0.48" stop-color="#FDB946"/>
<stop offset="0.78" stop-color="#F99C4D"/>
<stop offset="0.87" stop-color="#F8924F"/>
<stop offset="1" stop-color="#F8924F"/>
</linearGradient>
<linearGradient id="paint39_linear_22_321" x1="193641" y1="46626.8" x2="221536" y2="46626.8" gradientUnits="userSpaceOnUse">
<stop stop-color="#444B8C"/>
<stop offset="1" stop-color="#26264F"/>
</linearGradient>
<linearGradient id="paint40_linear_22_321" x1="148212" y1="35937" x2="163383" y2="35937" gradientUnits="userSpaceOnUse">
<stop stop-color="#444B8C"/>
<stop offset="1" stop-color="#26264F"/>
</linearGradient>
<linearGradient id="paint41_linear_22_321" x1="79095.5" y1="44407.1" x2="84779.3" y2="44407.1" gradientUnits="userSpaceOnUse">
<stop stop-color="#444B8C"/>
<stop offset="1" stop-color="#26264F"/>
</linearGradient>
<clipPath id="clip0_22_321">
<rect width="227" height="226" fill="white"/>
</clipPath>
</defs>
</svg>
