<svg width="44" height="24" viewBox="0 0 44 24" fill="none" xmlns="http://www.w3.org/2000/svg">
<path d="M0.547363 0.574585L43.2488 0.574585V23.428L0.547363 23.428L0.547363 0.574585Z" stroke="#005326" stroke-linejoin="round"/>
<path d="M0.547363 5.10001C1.89292 5.10001 3.18337 4.62323 4.13483 3.77454C5.08628 2.92586 5.6208 1.7748 5.6208 0.574585L0.547363 0.574585L0.547363 5.10001Z" stroke="#005326" stroke-linecap="round" stroke-linejoin="round"/>
<path d="M0.546875 18.675C1.89243 18.675 3.18288 19.1518 4.13434 20.0005C5.08579 20.8492 5.62031 22.0003 5.62031 23.2005H0.546875L0.546875 18.675Z" stroke="#005326" stroke-linecap="round" stroke-linejoin="round"/>
<path d="M43.1638 18.675V23.2005H38.0903C38.0903 22.0003 38.6249 20.8492 39.5763 20.0005C40.5278 19.1518 41.8182 18.675 43.1638 18.675Z" stroke="#005326" stroke-linecap="round" stroke-linejoin="round"/>
<path d="M43.2487 5.0994C41.9032 5.0994 40.6127 4.62262 39.6613 3.77393C38.7098 2.92525 38.1753 1.77419 38.1753 0.573975L43.2487 0.573975V5.0994Z" stroke="#005326" stroke-linecap="round" stroke-linejoin="round"/>
<path d="M21.8973 17.7143C24.8447 17.7143 27.2349 15.1566 27.2349 12.0009C27.2349 8.84527 24.8447 6.2876 21.8973 6.2876C18.9498 6.2876 16.5596 8.84527 16.5596 12.0009C16.5596 15.1566 18.9498 17.7143 21.8973 17.7143Z" stroke="#005326" stroke-linejoin="round"/>
<path d="M22.5335 12.7563C23.073 12.7563 23.5904 12.5324 23.9718 12.134C24.3532 11.7355 24.5675 11.195 24.5675 10.6315C24.5675 10.068 24.3532 9.52753 23.9718 9.12905C23.5904 8.73058 23.073 8.50671 22.5335 8.50671H20.4996C20.4276 8.50671 20.3586 8.53656 20.3078 8.58969C20.2569 8.64282 20.2284 8.71488 20.2284 8.79002V12.1897H19.4148C19.3428 12.1897 19.2738 12.2195 19.223 12.2727C19.1721 12.3258 19.1436 12.3979 19.1436 12.473C19.1436 12.5481 19.1721 12.6202 19.223 12.6733C19.2738 12.7265 19.3428 12.7563 19.4148 12.7563H20.2284V13.3229H19.4148C19.3428 13.3229 19.2738 13.3528 19.223 13.4059C19.1721 13.459 19.1436 13.5311 19.1436 13.6062C19.1436 13.6814 19.1721 13.7534 19.223 13.8066C19.2738 13.8597 19.3428 13.8895 19.4148 13.8895H20.2284V15.0228C20.2284 15.0979 20.2569 15.17 20.3078 15.2231C20.3586 15.2762 20.4276 15.3061 20.4996 15.3061C20.5715 15.3061 20.6405 15.2762 20.6913 15.2231C20.7422 15.17 20.7708 15.0979 20.7708 15.0228V13.8895H22.3979C22.4699 13.8895 22.5389 13.8597 22.5897 13.8066C22.6406 13.7534 22.6691 13.6814 22.6691 13.6062C22.6691 13.5311 22.6406 13.459 22.5897 13.4059C22.5389 13.3528 22.4699 13.3229 22.3979 13.3229H20.7708V12.7563H22.5335ZM20.7708 9.07333H22.5335C22.9291 9.07333 23.3085 9.23749 23.5883 9.52971C23.868 9.82193 24.0251 10.2183 24.0251 10.6315C24.0251 11.0448 23.868 11.4411 23.5883 11.7333C23.3085 12.0255 22.9291 12.1897 22.5335 12.1897H20.7708V9.07333Z" fill="#005326"/>
</svg>
