<svg width="28" height="30" viewBox="0 0 28 30" fill="none" xmlns="http://www.w3.org/2000/svg">
<path d="M12.557 1.29463C12.9982 1.05577 13.4945 0.93042 13.9991 0.93042C14.5037 0.93042 15 1.05577 15.4411 1.29463L26.602 7.33863C26.8334 7.46409 27.0261 7.64758 27.1604 7.87009C27.2946 8.0926 27.3653 8.34605 27.3653 8.60419L27.3653 20.5286C27.3652 21.045 27.2235 21.552 26.9547 21.997C26.686 22.4421 26.3002 22.809 25.8371 23.0597L15.4411 28.6925C15 28.9313 14.5037 29.0567 13.9991 29.0567C13.4945 29.0567 12.9982 28.9313 12.557 28.6925L2.16102 23.0597C1.69819 22.8091 1.31246 22.4424 1.04377 21.9977C0.775085 21.5529 0.633203 21.0462 0.632813 20.53L0.632813 8.60419C0.632802 8.34605 0.703568 8.0926 0.837784 7.87009C0.972 7.64758 1.16478 7.46409 1.39617 7.33863L12.5585 1.29463H12.557Z" stroke="#005326" stroke-linecap="round" stroke-linejoin="round"/>
<path d="M7.31641 4.1333L20.6827 11.3734V16.4414" stroke="#005326" stroke-linecap="round" stroke-linejoin="round"/>
<path d="M5.08789 15.4678L9.54331 17.8888" stroke="#005326" stroke-linecap="round" stroke-linejoin="round"/>
<path d="M13.9991 14.9932L13.9991 28.7493M0.632812 7.75317L13.9991 14.9932L0.632812 7.75317ZM13.9991 14.9932L27.3653 7.75317L13.9991 14.9932Z" stroke="#005326" stroke-linejoin="round"/>
</svg>
