<svg width="80" height="528" viewBox="0 0 80 528" fill="none" xmlns="http://www.w3.org/2000/svg">
<g clip-path="url(#clip0_95_1906)">
<path d="M54.0015 603.905L54.0015 -3.93799L25.0015 -3.93799L25.0015 603.905H54.0015Z" fill="url(#paint0_radial_95_1906)"/>
<path d="M50.5352 622L50.5352 -16H49.3757L49.3757 622H50.5352Z" fill="white"/>
<path d="M29.9736 622L29.9736 -16H28.8141L28.8141 622H29.9736Z" fill="white"/>
<path d="M38.9201 598.004V582.064H40.0796V598.004H38.9201ZM38.9201 566.11V550.17H40.0796V566.11H38.9201ZM38.9201 534.23L38.9201 518.276H40.0796L40.0796 534.23H38.9201ZM38.9201 502.336V486.381H40.0796V502.408L38.9201 502.336ZM38.9201 470.441V454.487H40.0796V470.441H38.9201ZM38.9201 438.547V422.593H40.0796V438.547H38.9201ZM38.9201 406.653V390.699H40.0796V406.653H38.9201ZM38.9201 374.759V358.804H40.0796V374.744L38.9201 374.759ZM38.9201 342.864V326.924H40.0796V342.864H38.9201ZM38.9201 310.97L38.9201 295.03H40.0796L40.0796 310.97H38.9201ZM38.9201 279.076V263.136H40.0796V279.076H38.9201ZM38.9201 247.182V231.242H40.0796V247.182H38.9201ZM38.9201 215.287V199.405H40.0796V215.345L38.9201 215.287ZM38.9201 183.407L38.9201 167.453H40.0796L40.0796 183.407H38.9201ZM38.9201 151.513V135.559H40.0796V151.513H38.9201ZM38.9201 119.619V103.665H40.0796V119.619H38.9201ZM38.9201 87.7247V71.7704H40.0796V87.7247H38.9201ZM38.9201 55.8017V39.8905H40.0796V55.8017H38.9201ZM38.9201 23.9074V7.99622H40.0796V23.9362L38.9201 23.9074Z" fill="white"/>
</g>
<ellipse cx="40" cy="251" rx="40" ry="39" fill="#B8FFC8"/>
<path d="M38.557 237.295C38.9982 237.056 39.4945 236.93 39.9991 236.93C40.5037 236.93 41 237.056 41.4411 237.295L52.602 243.339C52.8334 243.464 53.0261 243.648 53.1604 243.87C53.2946 244.093 53.3653 244.346 53.3653 244.604V256.529C53.3652 257.045 53.2235 257.552 52.9547 257.997C52.686 258.442 52.3002 258.809 51.8371 259.06L41.4411 264.692C41 264.931 40.5037 265.057 39.9991 265.057C39.4945 265.057 38.9982 264.931 38.557 264.692L28.161 259.06C27.6982 258.809 27.3125 258.442 27.0438 257.998C26.7751 257.553 26.6332 257.046 26.6328 256.53L26.6328 244.604C26.6328 244.346 26.7036 244.093 26.8378 243.87C26.972 243.648 27.1648 243.464 27.3962 243.339L38.5585 237.295H38.557Z" stroke="#005326" stroke-linecap="round" stroke-linejoin="round"/>
<path d="M33.3164 240.133L46.6827 247.373V252.441" stroke="#005326" stroke-linecap="round" stroke-linejoin="round"/>
<path d="M31.0879 251.468L35.5433 253.889" stroke="#005326" stroke-linecap="round" stroke-linejoin="round"/>
<path d="M39.9991 250.993V264.749M26.6328 243.753L39.9991 250.993L26.6328 243.753ZM39.9991 250.993L53.3653 243.753L39.9991 250.993Z" stroke="#005326" stroke-linejoin="round"/>
<ellipse cx="40" cy="349" rx="40" ry="39" fill="#B8FFC8"/>
<g clip-path="url(#clip1_95_1906)">
<path d="M50.8644 344.188H48.6448L49.3135 336.701C49.3148 336.688 49.315 336.674 49.3151 336.661C49.3151 336.66 49.3152 336.659 49.3152 336.658C49.3152 336.658 49.3152 336.657 49.3152 336.657C49.3152 336.453 49.1891 336.274 49.0038 336.196C49.0022 336.195 49.0007 336.194 48.9991 336.194C48.9876 336.189 48.9757 336.185 48.9637 336.181C48.9593 336.18 48.955 336.178 48.9505 336.177C48.9407 336.174 48.9307 336.171 48.9207 336.169C48.9137 336.167 48.9069 336.165 48.8998 336.164C48.8911 336.162 48.882 336.161 48.873 336.16C48.8646 336.159 48.8564 336.157 48.8479 336.157C48.8465 336.157 48.8452 336.156 48.8437 336.156C48.8346 336.155 48.8257 336.156 48.8167 336.155C48.8106 336.155 48.8047 336.154 48.7986 336.154H48.7921C48.7916 336.154 48.791 336.154 48.7906 336.154H38.2295C37.9444 336.154 37.7131 336.38 37.7131 336.658C37.7131 336.935 37.9444 337.161 38.2295 337.161H48.2357L47.2079 348.667C47.2077 348.668 47.2077 348.669 47.2076 348.67L46.9483 351.573H29.0029L29.303 348.552H32.7199C33.0052 348.552 33.2364 348.326 33.2364 348.048C33.2364 347.77 33.0052 347.545 32.7199 347.545H29.4032L30.0369 341.167H35.4751C35.7604 341.167 35.9916 340.942 35.9916 340.663C35.9916 340.385 35.7604 340.16 35.4751 340.16H30.1371L30.4351 337.161H36.1637C36.4481 337.161 36.6802 336.935 36.6802 336.658C36.6802 336.38 36.4481 336.154 36.1637 336.154H29.9664C29.9661 336.154 29.9659 336.154 29.9656 336.154C29.723 336.154 29.5126 336.321 29.4617 336.552C29.4613 336.553 29.4607 336.555 29.4604 336.557C29.4578 336.569 29.456 336.582 29.4543 336.595C29.4538 336.599 29.4529 336.603 29.4525 336.607C29.4525 336.608 29.4523 336.608 29.4522 336.609L29.0993 340.16H22.8387C22.5534 340.16 22.3223 340.385 22.3223 340.663C22.3223 340.942 22.5534 341.167 22.8387 341.167H28.9992L28.3654 347.545H26.5228C26.2375 347.545 26.0064 347.77 26.0064 348.048C26.0064 348.326 26.2375 348.552 26.5228 348.552H28.2654L27.9203 352.024C27.9202 352.025 27.9202 352.025 27.9201 352.026L27.3865 357.395C27.3865 357.396 27.3864 357.397 27.3863 357.397L27.3861 357.399C27.3854 357.406 27.3855 357.413 27.3851 357.42C27.3846 357.429 27.3836 357.438 27.3836 357.448C27.3836 357.448 27.3837 357.449 27.3837 357.449C27.3837 357.462 27.3847 357.475 27.3856 357.487C27.3861 357.492 27.3859 357.496 27.3864 357.5C27.3878 357.513 27.39 357.526 27.3925 357.538C27.3931 357.542 27.3935 357.546 27.3943 357.55C27.3962 357.559 27.3991 357.569 27.4017 357.578C27.4035 357.585 27.4049 357.592 27.407 357.598C27.4076 357.6 27.4084 357.602 27.409 357.603C27.434 357.678 27.4764 357.746 27.5318 357.801C27.5328 357.802 27.5336 357.803 27.5347 357.804C27.5402 357.809 27.5462 357.814 27.5519 357.819C27.5875 357.851 27.6278 357.878 27.6718 357.899C27.6809 357.903 27.6899 357.908 27.6993 357.912C27.7021 357.913 27.7052 357.914 27.708 357.915C27.721 357.92 27.734 357.925 27.7474 357.929C27.7487 357.929 27.7498 357.929 27.7511 357.93C27.7664 357.934 27.7818 357.938 27.7976 357.941C27.7996 357.942 27.8018 357.942 27.8038 357.942C27.8188 357.945 27.8338 357.947 27.8492 357.949C27.8495 357.949 27.8498 357.949 27.8502 357.949C27.8671 357.951 27.8839 357.951 27.9006 357.951C27.9008 357.951 27.9011 357.951 27.9013 357.951H30.2004C30.4543 359.828 32.1045 361.282 34.0977 361.282C36.0907 361.282 37.7409 359.828 37.9948 357.951H46.2785C46.5324 359.828 48.1826 361.282 50.1757 361.282C52.1687 361.282 53.819 359.828 54.073 357.951H56.3726C56.3729 357.951 56.3734 357.951 56.3737 357.951C56.3909 357.951 56.4079 357.95 56.4247 357.949C56.4277 357.948 56.4306 357.948 56.4336 357.948C56.447 357.946 56.4604 357.944 56.4735 357.942C56.4791 357.941 56.4846 357.939 56.4901 357.938C56.5003 357.936 56.5105 357.933 56.5204 357.93C56.5271 357.928 56.5337 357.926 56.5403 357.924C56.5487 357.921 56.5572 357.918 56.5655 357.915C56.5727 357.912 56.5795 357.909 56.5865 357.906C56.5941 357.903 56.6016 357.899 56.609 357.895C56.616 357.892 56.6228 357.888 56.6295 357.884C56.6366 357.88 56.6436 357.876 56.6506 357.872C56.6571 357.868 56.6635 357.864 56.6697 357.86C56.6768 357.855 56.6834 357.85 56.6903 357.845C56.6959 357.84 56.7016 357.836 56.7071 357.831C56.7142 357.826 56.7209 357.819 56.7276 357.813C56.7323 357.809 56.7372 357.805 56.7418 357.8C56.7489 357.793 56.7557 357.785 56.7626 357.778C56.7662 357.774 56.77 357.77 56.7735 357.766C56.7811 357.756 56.788 357.747 56.7949 357.738C56.7972 357.734 56.7998 357.731 56.8021 357.728C56.8105 357.716 56.8184 357.703 56.8257 357.69C56.8263 357.689 56.8268 357.688 56.8271 357.687C56.8349 357.674 56.8421 357.659 56.8485 357.644C56.8503 357.64 56.8517 357.636 56.8534 357.632C56.8576 357.621 56.8617 357.611 56.8652 357.6C56.8675 357.593 56.8692 357.586 56.8711 357.579C56.8734 357.57 56.8758 357.562 56.8778 357.554C56.8795 357.546 56.8806 357.538 56.8819 357.53C56.8831 357.524 56.8846 357.517 56.8855 357.51C56.9074 357.339 57.3118 354.176 57.4924 352.13C57.4926 352.128 57.4927 352.126 57.4929 352.124C57.5449 351.534 57.5782 351.038 57.5782 350.734C57.5782 347.124 54.5664 344.188 50.8644 344.188ZM48.5548 345.195H50.6676L50.3977 348.216H48.2849L48.5548 345.195ZM34.0978 360.274C32.4991 360.274 31.1985 359.006 31.1985 357.448C31.1985 355.889 32.4992 354.621 34.0978 354.621C35.6964 354.621 36.9971 355.889 36.9971 357.448C36.9971 359.006 35.6964 360.274 34.0978 360.274ZM50.1757 360.274C48.577 360.274 47.2765 359.006 47.2765 357.448C47.2765 355.889 48.5771 354.621 50.1757 354.621C51.7744 354.621 53.075 355.889 53.075 357.448C53.075 359.006 51.7744 360.274 50.1757 360.274ZM55.9163 356.944H54.0731C53.8193 355.067 52.169 353.613 50.1758 353.613C48.1827 353.613 46.5324 355.067 46.2786 356.944H37.995C37.7411 355.067 36.0909 353.613 34.0978 353.613C32.1047 353.613 30.4543 355.067 30.2005 356.944H28.4691L28.9028 352.58H47.4216V352.58C47.4218 352.58 47.422 352.58 47.4223 352.58C47.4396 352.58 47.4567 352.579 47.4737 352.577C47.4769 352.577 47.4799 352.576 47.4831 352.576C47.4966 352.574 47.51 352.573 47.5233 352.57C47.529 352.569 47.5346 352.567 47.5402 352.566C47.5505 352.564 47.5609 352.561 47.5709 352.558C47.5778 352.556 47.5843 352.554 47.591 352.552C47.5997 352.549 47.6084 352.546 47.6168 352.542C47.624 352.539 47.631 352.536 47.638 352.533C47.6456 352.53 47.6533 352.526 47.6606 352.522C47.6677 352.519 47.6745 352.515 47.6815 352.511C47.6886 352.507 47.6956 352.503 47.7025 352.499C47.7092 352.494 47.7155 352.49 47.7219 352.485C47.7287 352.481 47.7354 352.476 47.742 352.471C47.7479 352.466 47.7537 352.462 47.7595 352.457C47.7661 352.451 47.7725 352.445 47.7787 352.44C47.7839 352.435 47.7891 352.43 47.7942 352.425C47.8004 352.418 47.8064 352.412 47.8123 352.405C47.8169 352.4 47.8215 352.395 47.8259 352.389C47.8316 352.382 47.8371 352.375 47.8424 352.368C47.8465 352.362 47.8504 352.357 47.8543 352.351C47.8593 352.343 47.8641 352.336 47.8687 352.328C47.8722 352.322 47.8758 352.316 47.879 352.31C47.8833 352.302 47.887 352.294 47.891 352.286C47.894 352.279 47.8971 352.273 47.8999 352.266C47.9032 352.258 47.9061 352.25 47.909 352.242C47.9116 352.235 47.9142 352.228 47.9165 352.22C47.9188 352.212 47.9207 352.204 47.9227 352.196C47.9247 352.188 47.9269 352.181 47.9285 352.172C47.9301 352.164 47.931 352.156 47.9323 352.148C47.9335 352.14 47.935 352.132 47.9358 352.123C47.9359 352.122 47.9362 352.121 47.9363 352.12L48.1951 349.223H50.8643C52.4466 349.223 53.1602 350.022 53.9157 350.869C54.5391 351.567 55.235 352.346 56.4181 352.536C56.2678 354.085 56.0249 356.073 55.9163 356.944ZM56.5063 351.527C55.7389 351.374 55.2667 350.848 54.6947 350.208C53.9793 349.406 53.106 348.428 51.4318 348.246L51.699 345.255C54.4371 345.65 56.5453 347.956 56.5453 350.734C56.5453 350.923 56.5308 351.197 56.5063 351.527Z" fill="#005326"/>
<path d="M34.0977 355.601C33.0536 355.601 32.2041 356.429 32.2041 357.447C32.2041 358.466 33.0536 359.294 34.0977 359.294C35.1419 359.294 35.9914 358.466 35.9914 357.447C35.9914 356.429 35.1419 355.601 34.0977 355.601ZM34.0977 358.287C33.6231 358.287 33.237 357.91 33.237 357.447C33.237 356.985 33.6231 356.608 34.0977 356.608C34.5724 356.608 34.9585 356.985 34.9585 357.447C34.9585 357.91 34.5723 358.287 34.0977 358.287Z" fill="#005326"/>
<path d="M50.1754 355.601C49.1313 355.601 48.2817 356.429 48.2817 357.447C48.2817 358.466 49.1313 359.294 50.1754 359.294C51.2195 359.294 52.069 358.466 52.069 357.447C52.069 356.429 51.2195 355.601 50.1754 355.601ZM50.1754 358.287C49.7007 358.287 49.3146 357.91 49.3146 357.447C49.3146 356.985 49.7007 356.608 50.1754 356.608C50.65 356.608 51.0361 356.985 51.0361 357.447C51.0361 357.91 50.65 358.287 50.1754 358.287Z" fill="#005326"/>
<path d="M27.2117 344.188H24.6869C24.4016 344.188 24.1704 344.413 24.1704 344.692C24.1704 344.97 24.4016 345.195 24.6869 345.195H27.2117C27.4969 345.195 27.7281 344.97 27.7281 344.692C27.7281 344.413 27.4969 344.188 27.2117 344.188Z" fill="#005326"/>
</g>
<ellipse cx="40" cy="55" rx="40" ry="39" fill="#B8FFC8"/>
<rect x="16.5" y="42.5" width="33.6667" height="18.5" rx="9.25" stroke="#005326"/>
<path d="M27.08 51.632C27.544 51.784 27.912 52.04 28.184 52.4C28.456 52.752 28.592 53.192 28.592 53.72C28.592 54.448 28.312 55.012 27.752 55.412C27.192 55.804 26.376 56 25.304 56H21.128V47.6H25.064C26.056 47.6 26.82 47.796 27.356 48.188C27.892 48.572 28.16 49.104 28.16 49.784C28.16 50.2 28.064 50.568 27.872 50.888C27.68 51.208 27.416 51.456 27.08 51.632ZM22.688 48.824V51.14H24.896C25.44 51.14 25.856 51.044 26.144 50.852C26.44 50.652 26.588 50.364 26.588 49.988C26.588 49.604 26.44 49.316 26.144 49.124C25.856 48.924 25.44 48.824 24.896 48.824H22.688ZM25.208 54.776C26.416 54.776 27.02 54.372 27.02 53.564C27.02 52.756 26.416 52.352 25.208 52.352H22.688V54.776H25.208ZM34.0856 56.12C32.9256 56.12 32.0216 55.796 31.3736 55.148C30.7256 54.492 30.4016 53.556 30.4016 52.34V47.6H31.9616V52.28C31.9616 53.928 32.6736 54.752 34.0976 54.752C35.5136 54.752 36.2216 53.928 36.2216 52.28V47.6H37.7576V52.34C37.7576 53.556 37.4336 54.492 36.7856 55.148C36.1456 55.796 35.2456 56.12 34.0856 56.12ZM43.6659 53.036V56H42.1059V53.06L38.8059 47.6H40.4739L42.9339 51.692L45.4179 47.6H46.9539L43.6659 53.036Z" fill="#005326"/>
<rect x="44.0005" y="57.6" width="3.33333" height="3.25" rx="1.625" fill="#B8FFC8"/>
<path d="M43.7858 57.1472C43.957 57.0019 44.2106 56.9627 44.4908 57.0382C44.7709 57.1137 45.0546 57.2978 45.2795 57.5498L52.3453 65.4695C52.4953 65.6375 52.6844 65.7602 52.8712 65.8106C53.0579 65.8609 53.227 65.8348 53.3412 65.7379C53.4554 65.6411 53.5053 65.4814 53.4801 65.2941C53.4548 65.1068 53.3564 64.9072 53.2065 64.7392L50.3428 61.5295L50.4123 61.4616C50.6717 61.2149 50.9518 60.9862 51.1455 60.8999C51.2914 60.8362 51.5072 60.8068 51.7371 60.8033C51.8508 60.8003 52.0324 60.88 52.2212 61.0916L54.4981 63.6437C54.648 63.8117 54.8372 63.9344 55.0239 63.9847C55.2107 64.0351 55.3798 64.0089 55.4939 63.9121C55.6081 63.8152 55.6581 63.6556 55.6328 63.4683C55.6076 63.281 55.5091 63.0814 55.3592 62.9133L53.5899 60.9302L53.6699 60.8401C53.9149 60.579 54.1615 60.401 54.3248 60.3738C54.4784 60.3459 54.8172 60.417 55.2294 60.5637C55.4077 60.6262 55.5734 60.6949 55.6945 60.7458L57.2162 62.4514C57.3661 62.6194 57.5552 62.7421 57.742 62.7925C57.9287 62.8428 58.0978 62.8167 58.212 62.7198C58.3262 62.623 58.3761 62.4633 58.3509 62.276C58.3256 62.0887 58.2272 61.8891 58.0773 61.7211L56.9467 60.4539L57.2412 60.2041C57.3616 60.1021 57.5137 60.0382 57.6878 60.0168C57.8619 59.9953 58.0541 60.0167 58.252 60.0796C58.4499 60.1425 58.6491 60.2454 58.8368 60.3818C59.0245 60.5181 59.1965 60.6849 59.3416 60.8713L62.1777 64.5096C62.542 64.9772 62.8307 65.484 63.0251 65.9968L64.5846 70.11C64.6335 70.2389 64.651 70.3657 64.6354 70.4774C64.6198 70.5891 64.5716 70.6819 64.4958 70.7463L59.0691 75.3489C58.9892 75.4167 58.8817 75.4504 58.7586 75.4463C58.6355 75.4422 58.5017 75.4004 58.3721 75.3256L54.5244 73.1019L47.63 69.6335C47.4521 69.5435 47.2877 69.3979 47.1677 69.224C47.0477 69.0501 46.9804 68.86 46.9783 68.6892C46.9763 68.5185 47.0396 68.3789 47.1566 68.2968C47.2735 68.2146 47.4359 68.1955 47.6133 68.243L52.4132 69.5368C52.5525 69.5745 52.6832 69.5699 52.7887 69.5237C52.8942 69.4774 52.9697 69.3915 53.0057 69.2768C53.0417 69.1621 53.0366 69.0239 52.991 68.8795C52.9454 68.7351 52.8613 68.5911 52.7495 68.4657L43.9878 58.6453C43.7629 58.3933 43.6153 58.0938 43.5774 57.8129C43.5395 57.5319 43.6145 57.2925 43.7858 57.1472ZM49.2111 60.2611L46.1406 56.8195C45.6159 56.2313 44.9539 55.802 44.3003 55.6258C43.6466 55.4496 43.0549 55.5411 42.6552 55.88C42.2555 56.219 42.0807 56.7777 42.1691 57.4333C42.2575 58.0888 42.602 58.7875 43.1267 59.3757L50.5238 67.6666L47.4228 66.8308C46.9027 66.692 46.4267 66.7486 46.0841 66.9898C45.7415 67.2311 45.5558 67.6406 45.562 68.1413C45.5682 68.6421 45.7658 69.1997 46.1176 69.7096C46.4695 70.2195 46.9515 70.6466 47.4732 70.9107L54.3133 74.3539L58.1068 76.5457C58.4958 76.7704 58.8977 76.896 59.2673 76.9085C59.6369 76.9209 59.9598 76.8196 60.1996 76.6161L65.6263 72.0135C65.8539 71.8203 65.9984 71.542 66.0452 71.2067C66.092 70.8715 66.0394 70.4913 65.8928 70.1046L64.3344 65.9927C64.062 65.2739 63.6572 64.5637 63.1464 63.9083L60.3104 60.2701C60.02 59.8975 59.6761 59.5641 59.3008 59.2916C58.9255 59.0191 58.5272 58.8134 58.1315 58.6878C57.7358 58.5622 57.3516 58.5195 57.0035 58.5624C56.6555 58.6053 56.3513 58.7329 56.1107 58.937L55.6104 59.3613C55.4609 59.2996 55.3114 59.2423 55.1621 59.1895C54.7387 59.0388 54.0808 58.8422 53.5949 58.9249C53.1164 59.0057 52.7171 59.3755 52.4756 59.6338L52.3755 59.7454C51.9757 59.4778 51.5486 59.3348 51.1675 59.3409C50.8194 59.3407 50.4953 59.3994 50.2064 59.5149C49.8693 59.6627 49.5044 59.9811 49.2502 60.2235L49.2111 60.2611Z" fill="#005326"/>
<ellipse cx="40" cy="447" rx="40" ry="39" fill="#B8FFC8"/>
<g clip-path="url(#clip2_95_1906)">
<path d="M55.6242 444.202L51.2333 441.907L54.7402 439.602C54.9391 439.471 55.0518 439.248 55.0363 439.014C55.0209 438.781 54.8795 438.573 54.665 438.469L44.7746 433.646C44.5655 433.544 44.317 433.555 44.1179 433.675L40.0955 436.104L36.0732 433.675C35.8742 433.555 35.6256 433.544 35.4165 433.646L25.5259 438.469C25.3114 438.573 25.1701 438.781 25.1546 439.015C25.1391 439.248 25.2518 439.471 25.4507 439.602L28.9576 441.907L24.5667 444.202C24.3522 444.314 24.2163 444.53 24.2111 444.767C24.2058 445.004 24.3322 445.226 24.5415 445.347L34.3376 451.007C34.4434 451.068 34.5622 451.098 34.6813 451.098C34.7907 451.098 34.9003 451.072 34.9999 451.02L39.4212 448.71V458.518L30.9032 454.356V450.563C30.9032 450.2 30.6014 449.905 30.2289 449.905C29.8564 449.905 29.5546 450.2 29.5546 450.563V454.762C29.5546 455.011 29.6987 455.238 29.9268 455.349L39.7933 460.171C39.7997 460.174 39.8064 460.176 39.8127 460.179C39.8233 460.183 39.8338 460.188 39.8445 460.192C39.8612 460.199 39.878 460.204 39.895 460.209C39.9053 460.213 39.9156 460.216 39.9261 460.218C39.9446 460.223 39.9633 460.227 39.9821 460.23C39.9917 460.231 40.001 460.233 40.0106 460.235C40.0359 460.238 40.0613 460.239 40.0868 460.24C40.0898 460.24 40.0928 460.24 40.0959 460.24C40.1245 460.24 40.1533 460.238 40.1821 460.234C40.1892 460.233 40.1962 460.232 40.2034 460.231C40.2244 460.227 40.2454 460.223 40.2662 460.218C40.276 460.215 40.2854 460.212 40.295 460.21C40.3129 460.204 40.3306 460.198 40.3482 460.191C40.3588 460.187 40.3691 460.183 40.3794 460.178C40.3855 460.175 40.3916 460.173 40.3975 460.17L50.264 455.349C50.4921 455.238 50.6363 455.01 50.6363 454.762V450.563C50.6363 450.2 50.3344 449.905 49.9619 449.905C49.5894 449.905 49.2876 450.2 49.2876 450.563V454.356L40.7697 458.518V448.709L45.191 451.02C45.2906 451.072 45.4002 451.098 45.5096 451.098C45.6287 451.098 45.7475 451.068 45.8534 451.006L55.6494 445.347C55.8587 445.226 55.985 445.004 55.9798 444.767C55.9747 444.53 55.8388 444.314 55.6242 444.202ZM40.0955 446.847L31.6451 441.965L40.0955 437.621L48.5459 441.965L40.0955 446.847ZM44.508 434.986L53.0287 439.141L49.9196 441.184L41.452 436.832L44.508 434.986ZM35.683 434.986L38.7389 436.832L30.2712 441.184L27.1622 439.141L35.683 434.986ZM34.6978 449.686L26.2576 444.81L30.2828 442.706L38.723 447.582L34.6978 449.686ZM45.4931 449.686L41.4679 447.582L49.9081 442.706L53.9333 444.81L45.4931 449.686Z" fill="#005326"/>
</g>
<ellipse cx="40" cy="153" rx="40" ry="39" fill="#B8FFC8"/>
<path d="M18.5474 141.575H61.2488V164.428H18.5474L18.5474 141.575Z" stroke="#005326" stroke-linejoin="round"/>
<path d="M18.5474 146.1C19.8929 146.1 21.1834 145.623 22.1348 144.775C23.0863 143.926 23.6208 142.775 23.6208 141.575H18.5474V146.1Z" stroke="#005326" stroke-linecap="round" stroke-linejoin="round"/>
<path d="M18.5469 159.675C19.8924 159.675 21.1829 160.152 22.1343 161.001C23.0858 161.849 23.6203 163 23.6203 164.2H18.5469V159.675Z" stroke="#005326" stroke-linecap="round" stroke-linejoin="round"/>
<path d="M61.1638 159.675V164.2H56.0903C56.0903 163 56.6249 161.849 57.5763 161.001C58.5278 160.152 59.8182 159.675 61.1638 159.675Z" stroke="#005326" stroke-linecap="round" stroke-linejoin="round"/>
<path d="M61.2487 146.099C59.9032 146.099 58.6127 145.623 57.6613 144.774C56.7098 143.925 56.1753 142.774 56.1753 141.574H61.2487V146.099Z" stroke="#005326" stroke-linecap="round" stroke-linejoin="round"/>
<path d="M39.8973 158.714C42.8447 158.714 45.2349 156.157 45.2349 153.001C45.2349 149.845 42.8447 147.288 39.8973 147.288C36.9498 147.288 34.5596 149.845 34.5596 153.001C34.5596 156.157 36.9498 158.714 39.8973 158.714Z" stroke="#005326" stroke-linejoin="round"/>
<path d="M40.5335 153.756C41.073 153.756 41.5904 153.532 41.9718 153.134C42.3532 152.735 42.5675 152.195 42.5675 151.632C42.5675 151.068 42.3532 150.528 41.9718 150.129C41.5904 149.731 41.073 149.507 40.5335 149.507H38.4996C38.4276 149.507 38.3586 149.537 38.3078 149.59C38.2569 149.643 38.2284 149.715 38.2284 149.79V153.19H37.4148C37.3428 153.19 37.2738 153.22 37.223 153.273C37.1721 153.326 37.1436 153.398 37.1436 153.473C37.1436 153.548 37.1721 153.62 37.223 153.673C37.2738 153.726 37.3428 153.756 37.4148 153.756H38.2284V154.323H37.4148C37.3428 154.323 37.2738 154.353 37.223 154.406C37.1721 154.459 37.1436 154.531 37.1436 154.606C37.1436 154.681 37.1721 154.753 37.223 154.807C37.2738 154.86 37.3428 154.89 37.4148 154.89H38.2284V156.023C38.2284 156.098 38.2569 156.17 38.3078 156.223C38.3586 156.276 38.4276 156.306 38.4996 156.306C38.5715 156.306 38.6405 156.276 38.6913 156.223C38.7422 156.17 38.7708 156.098 38.7708 156.023V154.89H40.3979C40.4699 154.89 40.5389 154.86 40.5897 154.807C40.6406 154.753 40.6691 154.681 40.6691 154.606C40.6691 154.531 40.6406 154.459 40.5897 154.406C40.5389 154.353 40.4699 154.323 40.3979 154.323H38.7708V153.756H40.5335ZM38.7708 150.073H40.5335C40.9291 150.073 41.3085 150.237 41.5883 150.53C41.868 150.822 42.0251 151.218 42.0251 151.632C42.0251 152.045 41.868 152.441 41.5883 152.733C41.3085 153.026 40.9291 153.19 40.5335 153.19H38.7708V150.073Z" fill="#005326"/>
<defs>
<radialGradient id="paint0_radial_95_1906" cx="0" cy="0" r="1" gradientUnits="userSpaceOnUse" gradientTransform="translate(39.4984 299.984) rotate(90) scale(216.209 93.3556)">
<stop stop-color="#262626"/>
<stop offset="0.31" stop-color="#212121"/>
<stop offset="0.67" stop-color="#131313"/>
<stop offset="1"/>
</radialGradient>
<clipPath id="clip0_95_1906">
<rect width="638" height="29" fill="white" transform="translate(54 -16) rotate(90)"/>
</clipPath>
<clipPath id="clip1_95_1906">
<rect width="35.2559" height="34.3745" fill="white" transform="translate(22.3223 331.53)"/>
</clipPath>
<clipPath id="clip2_95_1906">
<rect width="31.7691" height="30.9748" fill="white" transform="translate(24.2109 431.42)"/>
</clipPath>
</defs>
</svg>
