<svg width="53" height="39" viewBox="0 0 53 39" fill="none" xmlns="http://www.w3.org/2000/svg">
<rect x="0.5" y="0.5" width="33.6667" height="18.5" rx="9.25" stroke="#005326"/>
<path d="M11.08 9.632C11.544 9.784 11.912 10.04 12.184 10.4C12.456 10.752 12.592 11.192 12.592 11.72C12.592 12.448 12.312 13.012 11.752 13.412C11.192 13.804 10.376 14 9.304 14H5.128V5.6H9.064C10.056 5.6 10.82 5.796 11.356 6.188C11.892 6.572 12.16 7.104 12.16 7.784C12.16 8.2 12.064 8.568 11.872 8.888C11.68 9.208 11.416 9.456 11.08 9.632ZM6.688 6.824V9.14H8.896C9.44 9.14 9.856 9.044 10.144 8.852C10.44 8.652 10.588 8.364 10.588 7.988C10.588 7.604 10.44 7.316 10.144 7.124C9.856 6.924 9.44 6.824 8.896 6.824H6.688ZM9.208 12.776C10.416 12.776 11.02 12.372 11.02 11.564C11.02 10.756 10.416 10.352 9.208 10.352H6.688V12.776H9.208ZM18.0856 14.12C16.9256 14.12 16.0216 13.796 15.3736 13.148C14.7256 12.492 14.4016 11.556 14.4016 10.34V5.6H15.9616V10.28C15.9616 11.928 16.6736 12.752 18.0976 12.752C19.5136 12.752 20.2216 11.928 20.2216 10.28V5.6H21.7576V10.34C21.7576 11.556 21.4336 12.492 20.7856 13.148C20.1456 13.796 19.2456 14.12 18.0856 14.12ZM27.6659 11.036V14H26.1059V11.06L22.8059 5.6H24.4739L26.9339 9.692L29.4179 5.6H30.9539L27.6659 11.036Z" fill="#005326"/>
<rect x="28.0005" y="15.6" width="3.33333" height="3.25" rx="1.625" fill="#B8FFC8"/>
<path d="M27.7858 15.1472C27.957 15.0019 28.2106 14.9627 28.4908 15.0382C28.7709 15.1137 29.0546 15.2978 29.2795 15.5498L36.3453 23.4695C36.4953 23.6375 36.6844 23.7602 36.8712 23.8106C37.0579 23.8609 37.227 23.8348 37.3412 23.7379C37.4554 23.6411 37.5053 23.4814 37.4801 23.2941C37.4548 23.1068 37.3564 22.9072 37.2065 22.7392L34.3428 19.5295L34.4123 19.4616C34.6717 19.2149 34.9518 18.9862 35.1455 18.8999C35.2914 18.8362 35.5072 18.8068 35.7371 18.8033C35.8508 18.8003 36.0324 18.88 36.2212 19.0916L38.4981 21.6437C38.648 21.8117 38.8372 21.9344 39.0239 21.9847C39.2107 22.0351 39.3798 22.0089 39.4939 21.9121C39.6081 21.8152 39.6581 21.6556 39.6328 21.4683C39.6076 21.281 39.5091 21.0814 39.3592 20.9133L37.5899 18.9302L37.6699 18.8402C37.9149 18.579 38.1615 18.401 38.3248 18.3738C38.4784 18.3459 38.8172 18.417 39.2294 18.5637C39.4077 18.6262 39.5734 18.6949 39.6945 18.7458L41.2162 20.4514C41.3661 20.6194 41.5552 20.7421 41.742 20.7925C41.9287 20.8428 42.0978 20.8167 42.212 20.7198C42.3262 20.623 42.3761 20.4633 42.3509 20.276C42.3256 20.0887 42.2272 19.8891 42.0773 19.7211L40.9467 18.4539L41.2412 18.2041C41.3616 18.1021 41.5137 18.0382 41.6878 18.0168C41.8619 17.9953 42.0541 18.0167 42.252 18.0796C42.4499 18.1425 42.6491 18.2454 42.8368 18.3818C43.0245 18.5181 43.1965 18.6849 43.3416 18.8713L46.1777 22.5096C46.542 22.9772 46.8307 23.484 47.0251 23.9968L48.5846 28.11C48.6335 28.2389 48.651 28.3657 48.6354 28.4774C48.6198 28.5891 48.5716 28.6819 48.4958 28.7463L43.0691 33.3489C42.9892 33.4167 42.8817 33.4504 42.7586 33.4463C42.6355 33.4422 42.5017 33.4004 42.3721 33.3256L38.5244 31.1019L31.63 27.6335C31.4521 27.5435 31.2877 27.3979 31.1677 27.224C31.0477 27.0501 30.9804 26.86 30.9783 26.6892C30.9763 26.5185 31.0396 26.3789 31.1566 26.2968C31.2735 26.2146 31.4359 26.1955 31.6133 26.243L36.4132 27.5368C36.5525 27.5745 36.6832 27.5699 36.7887 27.5237C36.8942 27.4774 36.9697 27.3915 37.0057 27.2768C37.0417 27.1621 37.0366 27.0239 36.991 26.8795C36.9454 26.7351 36.8613 26.5911 36.7495 26.4657L27.9878 16.6453C27.7629 16.3933 27.6153 16.0938 27.5774 15.8129C27.5395 15.5319 27.6145 15.2925 27.7858 15.1472ZM33.2111 18.2611L30.1406 14.8195C29.6159 14.2313 28.9539 13.802 28.3003 13.6258C27.6466 13.4496 27.0549 13.5411 26.6552 13.88C26.2555 14.219 26.0807 14.7777 26.1691 15.4333C26.2575 16.0888 26.602 16.7875 27.1267 17.3757L34.5238 25.6666L31.4228 24.8308C30.9027 24.692 30.4267 24.7486 30.0841 24.9898C29.7415 25.2311 29.5558 25.6406 29.562 26.1413C29.5682 26.6421 29.7658 27.1997 30.1176 27.7096C30.4695 28.2195 30.9515 28.6466 31.4732 28.9107L38.3133 32.3539L42.1068 34.5457C42.4958 34.7704 42.8977 34.896 43.2673 34.9085C43.6369 34.9209 43.9598 34.8196 44.1996 34.6161L49.6263 30.0135C49.8539 29.8203 49.9984 29.542 50.0452 29.2067C50.092 28.8715 50.0394 28.4913 49.8928 28.1046L48.3344 23.9927C48.062 23.2739 47.6572 22.5637 47.1464 21.9083L44.3104 18.2701C44.02 17.8975 43.6761 17.5642 43.3008 17.2916C42.9255 17.0191 42.5272 16.8134 42.1315 16.6878C41.7358 16.5622 41.3516 16.5195 41.0035 16.5624C40.6555 16.6053 40.3513 16.7329 40.1107 16.937L39.6104 17.3613C39.4609 17.2996 39.3114 17.2423 39.1621 17.1895C38.7387 17.0388 38.0808 16.8422 37.5949 16.9249C37.1164 17.0057 36.7171 17.3755 36.4756 17.6338L36.3755 17.7454C35.9757 17.4778 35.5486 17.3348 35.1675 17.3409C34.8194 17.3407 34.4953 17.3994 34.2064 17.5149C33.8693 17.6627 33.5044 17.9811 33.2502 18.2235L33.2111 18.2611Z" fill="#005326"/>
</svg>
