<svg width="32" height="32" viewBox="0 0 32 32" fill="none" xmlns="http://www.w3.org/2000/svg">
<g clip-path="url(#clip0_95_1951)">
<path d="M31.6242 13.2017L27.2333 10.9067L30.7402 8.60211C30.9391 8.47149 31.0518 8.24769 31.0363 8.01442C31.0209 7.78116 30.8795 7.5734 30.665 7.46882L20.7746 2.64596C20.5655 2.54401 20.317 2.55488 20.1179 2.67506L16.0955 5.10433L12.0732 2.67506C11.8742 2.55488 11.6256 2.54401 11.4165 2.64596L1.52593 7.46891C1.3114 7.57349 1.17007 7.78125 1.1546 8.01451C1.13914 8.24778 1.2518 8.47149 1.45067 8.60219L4.95758 10.9068L0.566688 13.2018C0.352165 13.3139 0.216313 13.53 0.211098 13.7672C0.205793 14.0044 0.332206 14.2259 0.541514 14.3469L10.3376 20.0066C10.4434 20.0678 10.5622 20.0984 10.6813 20.0984C10.7907 20.0984 10.9003 20.0725 10.9999 20.0204L15.4212 17.7096V27.518L6.90321 23.3558V19.5629C6.90321 19.1998 6.60138 18.9055 6.22889 18.9055C5.8564 18.9055 5.55457 19.1998 5.55457 19.5629V23.7617C5.55457 24.0105 5.6987 24.2381 5.92679 24.3495L15.7933 29.1705C15.7997 29.1736 15.8064 29.1758 15.8127 29.1787C15.8233 29.1834 15.8338 29.1878 15.8445 29.192C15.8612 29.1986 15.878 29.2043 15.895 29.2094C15.9053 29.2126 15.9156 29.2158 15.9261 29.2185C15.9446 29.2232 15.9633 29.2267 15.9821 29.2298C15.9917 29.2313 16.001 29.2334 16.0106 29.2346C16.0359 29.2377 16.0613 29.2394 16.0868 29.2397C16.0898 29.2397 16.0928 29.2403 16.0959 29.2403C16.1245 29.2403 16.1533 29.238 16.1821 29.2343C16.1892 29.2335 16.1962 29.2319 16.2034 29.2307C16.2244 29.2274 16.2454 29.2233 16.2662 29.2179C16.276 29.2155 16.2854 29.2125 16.295 29.2096C16.3129 29.2042 16.3306 29.198 16.3482 29.191C16.3588 29.1869 16.3691 29.1826 16.3794 29.178C16.3855 29.1752 16.3916 29.1733 16.3975 29.1704L26.264 24.3494C26.4921 24.238 26.6363 24.0104 26.6363 23.7616V19.5628C26.6363 19.1997 26.3344 18.9054 25.9619 18.9054C25.5894 18.9054 25.2876 19.1997 25.2876 19.5628V23.3558L16.7697 27.5177V17.7094L21.191 20.0202C21.2906 20.0723 21.4002 20.0983 21.5096 20.0983C21.6287 20.0983 21.7475 20.0676 21.8534 20.0064L31.6494 14.3467C31.8587 14.2258 31.985 14.0042 31.9798 13.767C31.9747 13.5298 31.8388 13.3138 31.6242 13.2017ZM16.0955 15.8468L7.64514 10.9647L16.0955 6.62096L24.5459 10.9647L16.0955 15.8468ZM20.508 3.98621L29.0287 8.14118L25.9196 10.1843L17.452 5.83175L20.508 3.98621ZM11.683 3.98621L14.7389 5.83183L6.27124 10.1844L3.16218 8.14118L11.683 3.98621ZM10.6978 18.6861L2.25761 13.8098L6.28283 11.7059L14.723 16.5822L10.6978 18.6861ZM21.4931 18.6861L17.4679 16.5823L25.9081 11.706L29.9333 13.8099L21.4931 18.6861Z" fill="#005326"/>
</g>
<defs>
<clipPath id="clip0_95_1951">
<rect width="31.7691" height="30.9748" fill="white" transform="translate(0.210938 0.420166)"/>
</clipPath>
</defs>
</svg>
