<svg width="29" height="528" viewBox="0 0 29 528" fill="none" xmlns="http://www.w3.org/2000/svg">
<g clip-path="url(#clip0_95_1907)">
<path d="M29.0015 603.905L29.0015 -3.93799L0.00146294 -3.93799L0.00146294 603.905H29.0015Z" fill="url(#paint0_radial_95_1907)"/>
<path d="M25.5352 622L25.5352 -16H24.3757L24.3757 622H25.5352Z" fill="white"/>
<path d="M4.97363 622L4.97363 -16H3.81413L3.81413 622H4.97363Z" fill="white"/>
<path d="M13.9201 598.004V582.064H15.0796V598.004H13.9201ZM13.9201 566.11V550.17H15.0796V566.11H13.9201ZM13.9201 534.23V518.276H15.0796V534.23H13.9201ZM13.9201 502.336L13.9201 486.381H15.0796L15.0796 502.408L13.9201 502.336ZM13.9201 470.441L13.9201 454.487H15.0796L15.0796 470.441H13.9201ZM13.9201 438.547L13.9201 422.593H15.0796L15.0796 438.547H13.9201ZM13.9201 406.653L13.9201 390.699H15.0796L15.0796 406.653H13.9201ZM13.9201 374.759L13.9201 358.804H15.0796L15.0796 374.744L13.9201 374.759ZM13.9201 342.864L13.9201 326.924H15.0796L15.0796 342.864H13.9201ZM13.9201 310.97V295.03H15.0796V310.97H13.9201ZM13.9201 279.076V263.136H15.0796V279.076H13.9201ZM13.9201 247.182V231.242H15.0796V247.182H13.9201ZM13.9201 215.287V199.405H15.0796V215.345L13.9201 215.287ZM13.9201 183.407V167.453H15.0796L15.0796 183.407H13.9201ZM13.9201 151.513L13.9201 135.559H15.0796L15.0796 151.513H13.9201ZM13.9201 119.619L13.9201 103.665H15.0796L15.0796 119.619H13.9201ZM13.9201 87.7247L13.9201 71.7704H15.0796L15.0796 87.7247H13.9201ZM13.9201 55.8017L13.9201 39.8905H15.0796L15.0796 55.8017H13.9201ZM13.9201 23.9074V7.99622H15.0796L15.0796 23.9362L13.9201 23.9074Z" fill="white"/>
</g>
<defs>
<radialGradient id="paint0_radial_95_1907" cx="0" cy="0" r="1" gradientUnits="userSpaceOnUse" gradientTransform="translate(14.4984 299.984) rotate(90) scale(216.209 93.3556)">
<stop stop-color="#262626"/>
<stop offset="0.31" stop-color="#212121"/>
<stop offset="0.67" stop-color="#131313"/>
<stop offset="1"/>
</radialGradient>
<clipPath id="clip0_95_1907">
<rect width="638" height="29" fill="white" transform="translate(29 -16) rotate(90)"/>
</clipPath>
</defs>
</svg>
