<svg width="36" height="35" viewBox="0 0 36 35" fill="none" xmlns="http://www.w3.org/2000/svg">
<g clip-path="url(#clip0_95_1936)">
<path d="M28.8644 13.1879H26.6448L27.3135 5.7014C27.3148 5.68784 27.315 5.67448 27.3151 5.66112C27.3151 5.65998 27.3152 5.65891 27.3152 5.65776C27.3152 5.65756 27.3152 5.65743 27.3152 5.65723C27.3152 5.45346 27.1891 5.27387 27.0038 5.19579C27.0022 5.19512 27.0007 5.19431 26.9991 5.19364C26.9876 5.18894 26.9757 5.18491 26.9637 5.18102C26.9593 5.17961 26.955 5.17786 26.9505 5.17652C26.9407 5.17363 26.9307 5.17135 26.9207 5.169C26.9137 5.16739 26.9069 5.16544 26.8998 5.1641C26.8911 5.16242 26.882 5.16135 26.873 5.16007C26.8646 5.15886 26.8564 5.15745 26.8479 5.15671C26.8465 5.15658 26.8452 5.15631 26.8437 5.15618C26.8346 5.15537 26.8257 5.15551 26.8167 5.15517C26.8106 5.15497 26.8047 5.1543 26.7986 5.1543H26.7921C26.7916 5.1543 26.791 5.1543 26.7906 5.1543H16.2295C15.9444 5.1543 15.7131 5.37988 15.7131 5.65783C15.7131 5.93511 15.9444 6.16137 16.2295 6.16137H26.2357L25.2079 17.6671C25.2077 17.668 25.2077 17.6689 25.2076 17.6698L24.9483 20.5729H7.00288L7.30304 17.5518H10.7199C11.0052 17.5518 11.2364 17.3263 11.2364 17.0483C11.2364 16.7702 11.0052 16.5447 10.7199 16.5447H7.40316L8.03694 10.167H13.4751C13.7604 10.167 13.9916 9.94151 13.9916 9.66342C13.9916 9.38533 13.7604 9.15988 13.4751 9.15988H8.13706L8.43509 6.16137H14.1637C14.4481 6.16137 14.6802 5.93511 14.6802 5.65783C14.6802 5.37988 14.4481 5.1543 14.1637 5.1543H7.96636C7.96608 5.1543 7.96588 5.15436 7.9656 5.15436C7.72301 5.1543 7.51258 5.3208 7.46169 5.55162C7.46134 5.5533 7.46072 5.55491 7.46038 5.55659C7.45776 5.56914 7.45604 5.58197 7.45432 5.59486C7.45384 5.59895 7.45294 5.60285 7.45253 5.60694C7.45246 5.60775 7.45225 5.60849 7.45219 5.60929L7.09935 9.15988H0.838712C0.553427 9.15988 0.322266 9.38533 0.322266 9.66342C0.322266 9.94151 0.553427 10.167 0.838712 10.167H6.99923L6.36545 16.5447H4.52283C4.23755 16.5447 4.00639 16.7702 4.00639 17.0483C4.00639 17.3263 4.23755 17.5518 4.52283 17.5518H6.26539L5.92027 21.0242C5.9202 21.0248 5.9202 21.0253 5.92013 21.0258L5.38654 26.3954C5.38647 26.396 5.3864 26.3967 5.38633 26.3972L5.38613 26.3992C5.38544 26.4062 5.38551 26.413 5.38509 26.42C5.38461 26.4293 5.38365 26.4383 5.38365 26.4477C5.38365 26.4481 5.38371 26.4485 5.38371 26.449C5.38371 26.4619 5.38468 26.4747 5.38564 26.4875C5.38606 26.4916 5.38592 26.4957 5.3864 26.4997C5.38778 26.5128 5.39005 26.5256 5.39246 26.5384C5.39315 26.5421 5.39349 26.5459 5.39425 26.5496C5.39625 26.5593 5.39907 26.5686 5.40169 26.5781C5.40348 26.5847 5.40492 26.5915 5.40699 26.598C5.40761 26.5999 5.40844 26.6016 5.40899 26.6035C5.43398 26.6784 5.4764 26.7457 5.53176 26.8006C5.5328 26.8016 5.53362 26.8027 5.53466 26.8037C5.54016 26.8091 5.54615 26.8139 5.55194 26.819C5.58754 26.8508 5.62775 26.8778 5.67175 26.899C5.68091 26.9034 5.68993 26.908 5.6993 26.9118C5.70212 26.913 5.70515 26.9139 5.70804 26.9149C5.72099 26.92 5.734 26.9248 5.74743 26.9289C5.74867 26.9292 5.74984 26.9294 5.75108 26.9298C5.76637 26.9343 5.78179 26.9382 5.79756 26.9413C5.79963 26.9417 5.80176 26.9419 5.80376 26.9423C5.81877 26.945 5.83385 26.9474 5.84921 26.9488C5.84955 26.9488 5.84983 26.9489 5.85017 26.949C5.86711 26.9506 5.88391 26.9514 5.90057 26.9514C5.90078 26.9514 5.90106 26.9513 5.90133 26.9513H8.20041C8.4543 28.828 10.1045 30.2816 12.0977 30.2816C14.0907 30.2816 15.7409 28.828 15.9948 26.9513H24.2785C24.5324 28.828 26.1826 30.2816 28.1757 30.2816C30.1687 30.2816 31.819 28.828 32.073 26.9513H34.3726C34.3729 26.9513 34.3734 26.9514 34.3737 26.9514C34.3909 26.9514 34.4079 26.9504 34.4247 26.9488C34.4277 26.9485 34.4306 26.9479 34.4336 26.9476C34.447 26.946 34.4604 26.9442 34.4735 26.9416C34.4791 26.9406 34.4846 26.9391 34.4901 26.9378C34.5003 26.9355 34.5105 26.9331 34.5204 26.9302C34.5271 26.9283 34.5337 26.926 34.5403 26.9238C34.5487 26.921 34.5572 26.918 34.5655 26.9147C34.5727 26.912 34.5795 26.909 34.5865 26.9059C34.5941 26.9025 34.6016 26.899 34.609 26.8953C34.616 26.8918 34.6228 26.8882 34.6295 26.8844C34.6366 26.8804 34.6436 26.8763 34.6506 26.872C34.6571 26.8679 34.6635 26.8638 34.6697 26.8595C34.6768 26.8548 34.6834 26.8497 34.6903 26.8446C34.6959 26.8403 34.7016 26.836 34.7071 26.8314C34.7142 26.8256 34.7209 26.8195 34.7276 26.8132C34.7323 26.8089 34.7372 26.8046 34.7418 26.8C34.7489 26.7929 34.7557 26.7854 34.7626 26.7778C34.7662 26.7737 34.77 26.7697 34.7735 26.7655C34.7811 26.7564 34.788 26.747 34.7949 26.7375C34.7972 26.7343 34.7998 26.7312 34.8021 26.7278C34.8105 26.7155 34.8184 26.7029 34.8257 26.6899C34.8263 26.6891 34.8268 26.6883 34.8271 26.6875C34.8349 26.6735 34.8421 26.6592 34.8485 26.6444C34.8503 26.6402 34.8517 26.6358 34.8534 26.6316C34.8576 26.6212 34.8617 26.6108 34.8652 26.6C34.8675 26.593 34.8692 26.5858 34.8711 26.5788C34.8734 26.5704 34.8758 26.5621 34.8778 26.5535C34.8795 26.5459 34.8806 26.5382 34.8819 26.5304C34.8831 26.5236 34.8846 26.517 34.8855 26.5101C34.9074 26.339 35.3118 23.1755 35.4924 21.13C35.4926 21.128 35.4927 21.126 35.4929 21.1241C35.5449 20.5344 35.5782 20.0378 35.5782 19.7338C35.5782 16.1244 32.5664 13.1879 28.8644 13.1879ZM26.5548 14.1951H28.6676L28.3977 17.216H26.2849L26.5548 14.1951ZM12.0978 29.2744C10.4991 29.2744 9.19846 28.0063 9.19846 26.4476C9.19846 24.889 10.4992 23.6209 12.0978 23.6209C13.6964 23.6209 14.9971 24.889 14.9971 26.4476C14.9971 28.0063 13.6964 29.2744 12.0978 29.2744ZM28.1757 29.2744C26.577 29.2744 25.2765 28.0063 25.2765 26.4476C25.2765 24.889 26.5771 23.6209 28.1757 23.6209C29.7744 23.6209 31.075 24.889 31.075 26.4476C31.075 28.0063 29.7744 29.2744 28.1757 29.2744ZM33.9163 25.9439H32.0731C31.8193 24.0671 30.169 22.6135 28.1758 22.6135C26.1827 22.6135 24.5324 24.0671 24.2786 25.9439H15.995C15.7411 24.0671 14.0909 22.6135 12.0978 22.6135C10.1047 22.6135 8.4543 24.0671 8.20048 25.9439H6.46908L6.90282 21.5797H25.4216V21.5799C25.4218 21.5799 25.422 21.5799 25.4223 21.5799C25.4396 21.5799 25.4567 21.579 25.4737 21.5773C25.4769 21.5771 25.48 21.5764 25.4831 21.576C25.4966 21.5744 25.51 21.5726 25.5233 21.57C25.529 21.5689 25.5346 21.5673 25.5402 21.566C25.5505 21.5636 25.5609 21.5612 25.5709 21.5583C25.5778 21.5562 25.5843 21.5538 25.591 21.5515C25.5997 21.5486 25.6084 21.5457 25.6168 21.5423C25.624 21.5395 25.631 21.5362 25.638 21.533C25.6456 21.5296 25.6533 21.5262 25.6606 21.5224C25.6677 21.5188 25.6745 21.5149 25.6815 21.511C25.6886 21.507 25.6956 21.5029 25.7025 21.4986C25.7092 21.4943 25.7155 21.4899 25.7219 21.4855C25.7287 21.4808 25.7354 21.4759 25.742 21.4709C25.7479 21.4663 25.7537 21.4615 25.7595 21.4566C25.7661 21.4511 25.7725 21.4455 25.7787 21.4396C25.7839 21.4347 25.7891 21.4297 25.7942 21.4245C25.8004 21.4182 25.8064 21.4117 25.8123 21.405C25.8169 21.3998 25.8215 21.3946 25.8259 21.3892C25.8316 21.3822 25.8371 21.3749 25.8424 21.3676C25.8465 21.3621 25.8504 21.3566 25.8543 21.3509C25.8593 21.3433 25.8641 21.3356 25.8687 21.3276C25.8722 21.3217 25.8758 21.3158 25.879 21.3098C25.8833 21.3019 25.887 21.2938 25.891 21.2857C25.894 21.2792 25.8971 21.2728 25.8999 21.2661C25.9032 21.2581 25.9061 21.25 25.909 21.2419C25.9116 21.2347 25.9142 21.2275 25.9165 21.2201C25.9188 21.2124 25.9207 21.2044 25.9227 21.1965C25.9247 21.1885 25.9269 21.1805 25.9285 21.1724C25.9301 21.1645 25.931 21.1564 25.9323 21.1484C25.9335 21.1401 25.935 21.1319 25.9358 21.1234C25.9359 21.1222 25.9362 21.1211 25.9363 21.1198L26.1951 18.2228H28.8643C30.4466 18.2228 31.1602 19.0222 31.9157 19.8685C32.5391 20.5668 33.235 21.346 34.4181 21.536C34.2678 23.0849 34.0249 25.0733 33.9163 25.9439ZM34.5063 20.527C33.7389 20.3744 33.2667 19.8484 32.6947 19.2076C31.9793 18.4063 31.106 17.4285 29.4318 17.2463L29.699 14.2554C32.4371 14.6502 34.5453 16.9563 34.5453 19.734C34.5453 19.9227 34.5308 20.1969 34.5063 20.527Z" fill="#005326"/>
<path d="M12.0977 24.6012C11.0536 24.6012 10.2041 25.4294 10.2041 26.4475C10.2041 27.4656 11.0536 28.2938 12.0977 28.2938C13.1419 28.2938 13.9914 27.4656 13.9914 26.4475C13.9914 25.4295 13.1419 24.6012 12.0977 24.6012ZM12.0977 27.2867C11.6231 27.2867 11.237 26.9103 11.237 26.4475C11.237 25.9847 11.6231 25.6083 12.0977 25.6083C12.5724 25.6083 12.9585 25.9847 12.9585 26.4475C12.9585 26.9103 12.5723 27.2867 12.0977 27.2867Z" fill="#005326"/>
<path d="M28.1754 24.6012C27.1313 24.6012 26.2817 25.4294 26.2817 26.4475C26.2817 27.4656 27.1313 28.2938 28.1754 28.2938C29.2195 28.2938 30.069 27.4656 30.069 26.4475C30.069 25.4295 29.2195 24.6012 28.1754 24.6012ZM28.1754 27.2867C27.7007 27.2867 27.3146 26.9103 27.3146 26.4475C27.3146 25.9847 27.7007 25.6083 28.1754 25.6083C28.65 25.6083 29.0361 25.9847 29.0361 26.4475C29.0361 26.9103 28.65 27.2867 28.1754 27.2867Z" fill="#005326"/>
<path d="M5.21166 13.188H2.68686C2.40157 13.188 2.17041 13.4134 2.17041 13.6915C2.17041 13.9696 2.40157 14.1951 2.68686 14.1951H5.21166C5.49694 14.1951 5.72811 13.9696 5.72811 13.6915C5.72811 13.4134 5.49694 13.188 5.21166 13.188Z" fill="#005326"/>
</g>
<defs>
<clipPath id="clip0_95_1936">
<rect width="35.2559" height="34.3745" fill="white" transform="translate(0.322266 0.530273)"/>
</clipPath>
</defs>
</svg>
