<svg width="1920" height="1416" viewBox="0 0 1920 1416" fill="none" xmlns="http://www.w3.org/2000/svg">
<path d="M1917.73 327.906C1917.73 295.387 1917.73 263.076 1917.73 230.556C1917.73 223.885 1917.73 217.215 1916.69 210.752V209.502C1911.32 207.834 1909.87 217.006 1904.5 214.713C1907.78 209.583 1912.34 205.413 1917.73 202.622C1917.73 197.619 1917.73 192.199 1917.73 186.988C1918.65 181.538 1918.65 175.969 1917.73 170.52L1913.8 173.647C1912.77 169.06 1917.31 166.559 1918.35 164.057V146.338L1914.21 145.296L1918.76 142.586L1915.45 139.042L1919.17 134.665C1919.17 127.786 1917.73 120.489 1916.9 113.819H1915.25V128.619L1913.39 125.076H1908.63C1908.63 121.115 1908.63 117.571 1908.63 114.236L1905.32 109.024L1910.08 98.8097L1903.26 91.0967C1903.26 87.5529 1906.98 83.5922 1903.26 79.6314L1899.95 85.6767C1897.88 81.9245 1901.19 78.5891 1901.81 75.8792L1898.92 68.7915H1904.29L1901.81 61.9124L1894.37 64.4139L1896.64 58.3686L1893.75 55.6586C1893.96 52.257 1893.96 48.8458 1893.75 45.4441C1893.75 44.4018 1892.09 43.7764 1890.85 42.7341L1885.48 46.2779C1885.48 50.864 1883.62 55.2417 1883 58.994L1874.11 66.7069L1877.62 75.4622L1873.49 77.7553C1872.71 79.7956 1872.67 82.0516 1873.39 84.1159C1874.11 86.1802 1875.54 87.9168 1877.42 89.0121L1869.98 92.9728C1868.32 100.894 1874.73 104.021 1877.01 109.233L1873.9 114.027L1869.56 111.943L1862.54 120.906H1869.15L1862.95 125.076L1861.71 131.329L1856.13 112.985L1849.31 114.236L1846 123.199L1840.21 116.529C1836.09 119.892 1831.18 122.119 1825.95 122.991V116.112L1830.91 113.193C1830.91 111.734 1830.91 110.275 1830.91 109.024C1830.91 107.773 1830.91 109.024 1829.46 109.024C1824.91 109.024 1821.19 115.903 1815.61 112.776V110.066L1820.57 107.148V104.021C1815.41 102.562 1814.17 108.607 1810.03 109.233L1805.69 107.565V101.728L1812.93 94.432L1810.03 91.7221H1802.18V79.2145L1795.98 77.7553C1794.53 83.5922 1793.5 88.8036 1792.26 93.8067H1783.78L1789.57 101.728L1780.47 106.106L1773.24 113.61L1775.72 116.112L1764.14 118.196L1762.28 123.199C1769.09 124.923 1775.35 128.367 1780.47 133.205L1777.17 138.625C1774.06 136.124 1772 132.58 1767.24 132.58C1764.35 136.124 1767.24 139.042 1767.24 142.169L1756.29 144.254C1756.29 152.592 1765.38 149.882 1768.48 154.468L1780.27 153.009C1773.31 158.477 1765.28 162.386 1756.7 164.474C1756.7 166.767 1756.7 168.852 1755.25 170.103L1745.95 178.858L1752.36 181.568L1756.7 176.148L1760.22 180.109L1768.48 173.438C1768.48 174.897 1766.42 179.692 1770.55 181.568L1764.14 186.363C1760.63 186.194 1757.12 186.775 1753.84 188.068C1750.56 189.362 1747.59 191.337 1745.13 193.867L1736.24 194.909L1731.9 200.121H1740.99C1743.27 200.121 1744.92 200.121 1744.92 203.456C1742.58 204.582 1740.3 205.834 1738.1 207.209C1735.75 208.982 1733.54 210.933 1731.48 213.045V215.338C1733.48 215.926 1735.61 215.903 1737.6 215.272C1739.58 214.641 1741.34 213.431 1742.65 211.795C1745.78 208.474 1750.09 206.528 1754.63 206.375L1763.32 205.332L1768.07 201.372C1768.07 209.502 1763.52 212.212 1746.16 216.381C1745.89 219.633 1744.98 222.798 1743.49 225.696C1742 228.593 1739.96 231.166 1737.48 233.266L1741.82 238.477L1731.07 251.819L1727.14 245.357C1728.59 242.021 1729.42 238.894 1725.08 236.601L1717.84 244.106C1717.84 238.061 1723.42 231.39 1715.98 227.221L1708.54 233.266L1703.37 230.973C1707.09 227.638 1707.51 222.843 1712.26 222.218C1712.26 216.798 1716.6 211.795 1712.26 208.042C1712.26 201.372 1720.53 202.622 1722.59 197.411L1720.73 194.701L1708.13 199.704L1701.3 198.036L1711.64 185.32L1708.54 181.151L1713.5 171.145L1709.57 169.477L1707.3 173.855L1704.4 170.937L1699.86 174.272L1689.73 164.891L1700.68 153.009C1699.8 150.69 1699.04 148.324 1698.41 145.921H1696.96V150.716C1691.8 148.631 1688.9 157.804 1682.29 154.26C1686.01 149.674 1685.18 143.42 1690.35 139.042C1690.35 139.042 1690.35 136.541 1690.35 135.082H1682.29L1684.97 130.079H1676.5C1676.5 130.079 1676.5 130.079 1675.26 130.079L1680.22 123.825V118.822C1674.85 115.278 1672.16 124.867 1666.58 121.115C1666.58 118.822 1666.58 115.695 1666.58 112.36L1661.41 108.607C1670.92 104.438 1670.92 104.438 1670.09 92.3475H1666.37C1666.37 88.1783 1666.37 84.426 1666.37 80.0484H1661.62C1661.62 83.3837 1661.62 86.0937 1661.62 89.6375L1656.86 85.0514C1655 89.6375 1655 89.6375 1648.8 90.0544L1647.15 91.9305L1645.29 95.0574V85.8852C1646.73 82.9668 1649.21 82.7583 1651.9 82.5499C1652.78 80.8703 1653.54 79.1286 1654.18 77.3384C1654.71 75.2796 1655.12 73.1916 1655.42 71.0846H1649.42L1661.62 66.0816L1658.52 59.4109C1660.08 58.1359 1661.26 56.4441 1661.91 54.528C1662.57 52.6118 1662.68 50.548 1662.24 48.571H1658.31L1655 54.8248L1649.21 46.2779L1641.77 49.6133L1646.11 50.8641L1642.19 65.4562L1640.74 61.4955L1635.98 60.0363L1637.23 53.7825C1634.95 51.0725 1630.2 57.1178 1628.96 51.281L1633.92 44.4018V37.3142L1630.2 33.7704C1629.88 29.3987 1629.88 25.0091 1630.2 20.6375C1630.57 19.585 1630.68 18.4576 1630.52 17.3528C1630.36 16.2479 1629.93 15.1987 1629.28 14.2958C1628.63 13.3929 1627.77 12.6633 1626.78 12.1702C1625.79 11.677 1624.69 11.4351 1623.58 11.4652C1623.58 8.75527 1623.58 6.25378 1623.58 3.75227L1618.83 0L1615.11 4.58609V10.423L1611.18 12.2991L1607.46 10.2145C1606.22 14.5921 1610.15 13.3414 1611.39 14.3837L1606.84 15.8429C1601.67 21.8882 1611.59 23.9728 1608.29 29.3928L1604.77 29.1843C1601.46 40.0242 1591.96 44.1934 1584.1 50.0302L1581.83 45.861L1577.07 48.9879L1579.14 57.1178L1576.25 63.997C1570.46 65.2477 1570.46 65.4562 1567.15 70.2508L1572.11 69L1574.8 71.9184L1588.24 74.003L1578.31 76.9215L1587.2 82.9668L1581.41 88.1783L1569.22 90.2629L1563.64 86.9275L1558.26 92.7644L1564.46 103.187H1558.47V109.024L1574.59 119.03L1563.64 122.783V128.411C1565.87 129.538 1567.6 131.473 1568.48 133.83C1569.37 136.187 1569.33 138.793 1568.39 141.127C1562.15 136.419 1557.12 130.272 1553.72 123.199L1548.55 124.242V131.121C1546.89 134.456 1541.93 136.541 1544 141.127C1545.16 142.781 1546.55 144.256 1548.13 145.505C1550.05 146.537 1552.05 147.375 1554.13 148.006L1550.62 151.967L1538.42 153.634C1538.42 159.888 1544 161.139 1545.86 163.224L1547.51 174.897L1552.48 176.357L1556.4 182.819C1548.96 185.112 1541.73 180.943 1534.08 185.529L1531.8 188.239L1533.46 201.163L1540.69 207.417L1538.42 210.544L1540.49 208.876L1546.89 217.006C1547.41 219.962 1548.32 222.835 1549.58 225.553C1549.69 226.941 1549.69 228.334 1549.58 229.722C1545.86 225.344 1542.97 222.009 1540.28 218.465C1538.77 218.576 1537.31 219.075 1536.04 219.914C1534.78 220.753 1533.75 221.905 1533.04 223.26L1540.9 234.725L1537.39 236.184L1535.32 240.562C1535.32 236.184 1535.32 233.057 1534.29 228.888L1526.64 231.39L1525.4 240.145L1518.78 232.849H1515.47L1513.2 223.26L1502.25 221.801V219.716H1492.53C1492.53 219.716 1492.53 219.716 1492.53 218.048L1498.94 216.589V212.628L1490.26 214.921L1485.92 208.251L1492.94 211.378C1496.87 211.378 1500.39 211.378 1503.9 210.127C1507.41 208.876 1505.55 208.459 1506.38 207.834L1504.31 204.29L1487.78 203.039L1494.39 200.538V195.952L1476.82 198.036C1476.82 198.036 1474.75 198.036 1472.27 196.16L1482.61 193.45L1484.47 189.489L1480.33 184.903C1486.74 184.903 1486.74 189.906 1488.81 193.45L1495.22 191.783L1491.29 183.653C1495.63 183.653 1497.9 186.154 1497.9 189.281C1497.9 192.408 1500.8 194.284 1503.07 196.16C1507 191.991 1503.07 187.613 1506.59 182.402L1508.24 189.698L1517.34 193.033C1517.34 191.366 1517.34 190.115 1517.34 189.281C1514.85 184.278 1512.37 179.483 1510.1 175.314C1505.42 173.449 1500.87 171.291 1496.46 168.852C1492.83 166.294 1488.48 164.979 1484.06 165.1V161.347H1487.98C1487.98 159.471 1487.98 157.804 1487.98 156.344C1487.98 154.885 1481.78 154.26 1481.37 154.26C1479.52 154.568 1477.86 155.588 1476.74 157.104C1475.63 158.621 1475.13 160.516 1475.37 162.39C1470.21 162.39 1465.25 164.891 1461.11 161.347V153.218L1470.21 160.097C1470.21 156.97 1471.45 154.26 1472.07 151.967L1476.61 149.048C1479.06 149.825 1481.42 150.874 1483.64 152.175C1485.53 153.805 1487.33 155.545 1489.02 157.387C1494.39 154.885 1491.7 151.341 1490.88 149.465C1492.8 148.331 1494.6 147.004 1496.25 145.505C1505.55 135.707 1485.09 139.251 1480.33 132.163H1473.72V129.662L1464.62 131.746V128.411H1456.56C1456.56 124.867 1456.56 122.157 1454.91 118.405C1458.84 120.073 1462.35 121.532 1465.87 123.408C1465.87 123.408 1465.87 124.867 1465.87 125.701L1475.17 124.45C1475.17 122.574 1476.82 121.115 1477.65 119.239L1483.44 122.991H1484.68V118.613C1477.78 112.119 1469.61 107.149 1460.7 104.021L1468.97 99.4351L1474.55 86.9275H1467.31L1461.94 91.9305L1456.77 83.3837C1460.9 83.3837 1465.45 83.3837 1467.52 76.0876C1462.45 77.6656 1456.97 77.2179 1452.22 74.8369L1459.46 69.4169C1452.64 65.8731 1446.23 74.003 1440.03 70.6677V65.6647L1446.85 59.2024C1447.58 57.4556 1448.13 55.64 1448.5 53.7825L1437.96 56.4924V46.4864C1434.65 46.4864 1434.24 40.858 1429.9 43.568C1429.9 49.4049 1428.66 55.2417 1428.04 61.7039L1418.32 58.577C1418.32 58.577 1418.32 58.577 1416.88 58.577C1415.43 58.577 1418.32 62.5378 1418.94 64.4139L1424.32 67.1239L1412.74 74.42L1406.13 85.4683L1394.34 86.7191V90.0544L1415.02 102.979L1409.85 109.441C1406.13 107.148 1404.27 101.728 1398.07 105.689L1399.72 113.193C1396 116.32 1391.24 113.193 1387.52 117.571C1389.55 119.814 1392 121.618 1394.74 122.872C1397.47 124.127 1400.43 124.806 1403.44 124.867C1403.44 126.535 1403.44 127.994 1403.44 129.245C1403.35 130.633 1403.35 132.026 1403.44 133.414L1389.18 138.208C1389.18 140.71 1389.18 142.795 1389.18 144.671L1380.7 149.882V155.094L1382.56 154.26L1386.7 149.465L1390 154.26L1397.65 146.755L1399.31 148.631L1400.75 149.674L1398.07 153.009L1403.23 154.26L1400.96 158.429L1378.22 163.641L1376.15 167.81L1361.69 170.103V175.731L1375.33 176.982L1366.65 183.027C1364.49 184.65 1362.42 186.39 1360.44 188.239C1358.79 189.906 1358.58 191.783 1361.48 193.45C1371.07 189.465 1379.73 183.5 1386.9 175.94L1388.14 183.027H1394.55C1394.22 180.639 1394.78 178.213 1396.12 176.213C1397.45 174.214 1399.47 172.78 1401.79 172.187C1405.3 172.187 1406.95 173.438 1406.33 176.982L1396 184.278C1393.61 187.468 1390.47 190 1386.86 191.639C1383.24 193.279 1379.28 193.974 1375.33 193.659L1370.78 199.079L1373.26 201.163L1365.41 209.918V216.172H1370.16C1371.37 214.426 1372.68 212.755 1374.09 211.169C1374.09 211.169 1375.53 211.169 1376.77 211.169L1372.85 216.798L1366.44 220.341C1363.34 224.719 1360.86 228.054 1359 230.973L1350.52 232.224L1345.56 238.06L1337.09 236.184V232.641C1339.36 226.387 1348.04 223.885 1346.8 216.798C1342.05 215.13 1340.19 219.299 1336.05 221.175C1336.05 215.547 1336.05 210.127 1334.4 204.707C1331.92 204.707 1329.85 201.58 1326.13 204.707V216.172L1320.96 224.094H1320.55C1320.65 223.402 1320.65 222.701 1320.55 222.009C1313.73 215.547 1311.46 228.888 1304.63 224.719C1296.37 216.589 1302.77 205.124 1298.85 195.118H1290.58C1281.28 202.622 1287.27 213.254 1283.76 221.801L1268.05 216.381C1268.05 221.801 1268.05 225.761 1267.01 229.097L1278.8 235.559V249.734L1268.25 253.07C1262.47 248.483 1258.95 240.354 1249.65 244.523C1247.79 251.61 1253.16 254.946 1257.71 260.366H1232.49V263.909L1231.25 257.03H1225.05C1225.05 261.408 1223.4 265.369 1222.57 268.704L1220.3 270.58C1215.54 265.369 1211 259.74 1207.28 254.737L1197.56 253.07C1203.97 245.982 1212.44 240.145 1214.1 228.888H1202.31L1195.49 234.517L1186.6 224.511L1201.69 222.426V211.795H1177.51L1187.22 206.792C1187.22 204.707 1187.22 203.039 1187.22 201.58C1178.96 198.245 1175.65 205.332 1170.07 207.417C1165.31 203.039 1166.97 198.036 1167.38 193.242L1176.48 186.154L1169.65 178.65L1162.01 183.653C1159.73 174.897 1163.87 165.517 1153.32 160.305L1145.06 165.725V186.571L1128.73 184.07C1132.65 189.698 1137.61 193.242 1136.99 196.994L1111.78 217.84C1110.34 217.655 1108.88 217.655 1107.44 217.84C1105.16 217.84 1103.1 219.091 1099.99 219.925C1102.89 226.151 1107.38 231.478 1113.02 235.35C1114.67 236.601 1114.67 239.728 1115.7 242.23L1100.2 244.731L1107.23 258.906L1086.56 261.825C1095.65 272.665 1107.23 273.707 1120.05 279.961L1105.37 286.215C1100.2 287.882 1095.03 288.924 1090.9 289.967L1084.28 298.305L1078.7 304.559H1066.92C1063.61 304.559 1060.31 304.559 1057 304.559C1062.02 306.213 1067.13 307.604 1072.3 308.728C1088.83 314.565 1094.83 314.357 1105.99 305.601C1105.99 309.562 1105.99 313.314 1107.02 316.858L1116.53 320.819L1086.97 325.405V328.949L1074.98 330.825C1075.21 330.299 1075.33 329.731 1075.33 329.157C1075.33 328.583 1075.21 328.016 1074.98 327.49C1071.06 324.363 1069.61 332.284 1065.68 330.199C1061.75 328.115 1065.68 318.943 1062.37 313.314H1057.41C1052.04 318.526 1055.55 324.363 1053.49 329.574L1044.39 327.49V334.994L1051.21 337.913V341.248C1049.85 340.912 1048.44 340.912 1047.08 341.248L1045.42 349.169C1042.12 346.876 1040.05 342.29 1034.68 345.417L1023.51 346.668C1026.89 343.453 1029.29 339.332 1030.42 334.79C1031.56 330.248 1031.38 325.473 1029.92 321.027L1025.79 319.36C1027.23 315.816 1028.47 312.689 1029.92 309.562L1024.34 302.891C1025.58 300.598 1027.03 298.305 1028.27 296.429L1017.31 287.257V276C1015.96 274.767 1014.31 273.923 1012.53 273.557C1010.75 273.19 1008.9 273.314 1007.18 273.915C1005.94 280.378 1004.5 286.84 1003.26 293.302L998.708 292.26L992.507 302.057L997.675 308.103L992.3 316.441C992.824 318.774 992.824 321.196 992.3 323.529C990.233 324.571 988.58 326.656 986.512 327.698C983.619 325.405 984.652 322.278 984.859 319.36L990.233 314.773L986.099 310.813L981.758 314.148C980.311 309.145 981.758 303.308 976.797 301.015L971.836 304.767V316.441H962.328C964.602 319.568 967.495 321.444 967.082 323.529L961.914 328.532C961.199 327.856 960.439 327.229 959.641 326.656C959.055 328.418 958.639 330.233 958.4 332.076L952.406 337.913C951.585 337.768 950.746 337.768 949.925 337.913L945.585 339.58C946.47 340.441 947.439 341.209 948.478 341.873H940.21L937.11 337.704C925.947 338.955 924.707 337.704 922.64 329.366L937.73 327.906C932.149 318.317 925.947 310.396 920.573 301.849L928.014 295.595V273.707L922.02 263.493L911.891 265.577C904.863 259.949 904.863 259.949 896.388 265.577L893.701 260.574L905.277 258.906L892.668 251.61L899.696 243.897H889.774C886.26 238.686 891.841 230.973 882.539 227.221C882.539 232.849 881.092 237.435 880.472 242.647C877.815 241.952 875.124 241.395 872.41 240.979C872.41 240.979 870.963 242.855 869.31 244.731L876.751 248.9C876.751 255.571 876.751 259.115 871.17 259.532L863.109 253.486L861.248 254.529L863.729 261.616C859.388 262.867 853.807 259.74 850.086 265.994L859.388 271.622L855.667 277.459C853.826 275.953 851.527 275.131 849.156 275.131C846.785 275.131 844.486 275.953 842.645 277.459L852.567 292.051C848.621 294.433 844.886 297.153 841.404 300.181C838.304 303.1 832.723 305.184 834.79 311.23C839.425 312.079 844.137 312.429 848.846 312.272C853.996 310.766 858.982 308.741 863.729 306.227L856.287 317.9L839.131 321.444L829.829 327.49C826.728 326.239 823.834 323.112 821.561 326.239L830.449 333.952L834.79 332.284V333.535L826.315 340.622L827.968 344.583L842.851 335.411L844.918 338.955C844.918 341.665 843.678 344.583 843.265 347.293H839.544L835.617 353.964H833.756C828.525 356.593 823.483 359.588 818.667 362.928C812.768 366.276 808.394 371.809 806.471 378.354C806.471 379.604 806.471 381.272 807.711 382.94C807.546 384.234 807.684 385.55 808.115 386.781C808.545 388.012 809.257 389.124 810.192 390.027L806.884 391.487L805.438 395.447L801.303 391.695H793.448L790.968 388.777C782.493 390.861 781.459 390.236 779.806 383.565L791.588 381.064C787.247 374.184 782.286 368.556 778.359 362.302L784.147 356.674V337.704L779.392 330.199L771.537 332.701C765.956 328.949 765.956 328.949 759.342 332.701L757.481 328.949L766.37 326.656L756.655 322.07L762.029 315.399H754.381C751.694 311.855 755.828 305.393 748.8 303.1C748.8 307.477 748.8 311.23 747.146 315.399H740.945C740.945 315.399 739.705 317.067 738.464 318.526L744.252 321.236C744.252 326.447 744.252 329.157 739.911 329.991L733.71 326.03L732.263 327.073L734.124 332.284C730.816 333.743 726.269 332.284 723.582 336.87L730.816 340.622L727.922 345.417C726.506 344.212 724.712 343.551 722.858 343.551C721.005 343.551 719.211 344.212 717.794 345.417C720.688 349.169 723.168 352.505 725.442 355.84C722.398 358.085 719.498 360.522 716.76 363.136C714.487 365.846 710.146 367.931 711.593 372.517C715.232 372.95 718.909 372.95 722.548 372.517C726.606 370.917 730.486 368.891 734.124 366.471C731.85 370.641 729.99 373.559 728.336 376.269L715.107 380.647L707.872 386.067C705.391 386.067 703.118 383.357 701.464 386.067L708.285 391.278L711.799 389.61L705.185 396.073L706.425 398.991L718 390.444L722.548 397.949L728.956 394.822L726.062 400.45C720.94 402.064 715.903 403.942 710.972 406.079C706.902 408.646 702.969 411.43 699.19 414.417C694.6 417.544 691.237 422.189 689.682 427.55C689.682 427.55 689.682 429.635 689.682 430.885C694.022 427.967 693.609 422.547 698.777 420.671C698.777 423.798 698.777 426.508 697.33 431.511C699.116 429.907 700.774 428.164 702.291 426.299C703.738 424.006 704.565 421.505 705.805 419.42C707.045 417.335 707.872 419.42 708.905 419.42C709.939 419.42 704.565 423.589 708.905 425.048L713.866 421.713L719.654 429.218C715.52 431.302 710.559 429.218 707.045 433.387L709.732 434.638L697.95 441.308C703.738 445.894 708.285 438.598 713.453 439.641L704.565 451.106L695.883 452.565L684.307 460.695L679.346 455.484L673.972 469.033L672.938 466.949C673.899 465.577 674.415 463.938 674.415 462.258C674.415 460.579 673.899 458.94 672.938 457.568L664.463 463.613V457.985C673.559 456.943 667.977 447.562 674.592 445.061L676.866 434.429C675.329 432.724 673.256 431.606 670.996 431.264C668.736 430.922 666.429 431.378 664.463 432.553V419.42L671.285 411.499L668.184 407.538C662.396 411.082 658.882 416.502 653.301 419.42C647.72 422.339 649.167 424.423 647.307 426.925L643.379 422.338C648.134 418.795 652.888 415.668 657.022 411.916C661.015 407.928 664.744 403.68 668.184 399.199C666.324 396.073 664.877 393.154 663.223 390.236C656.815 393.154 655.988 401.493 649.581 403.994C645.446 399.199 655.988 395.03 651.234 391.07H641.932L657.022 378.77L652.681 374.393C653.733 372.555 654.287 370.47 654.287 368.348C654.287 366.225 653.733 364.14 652.681 362.302L648.547 369.181L639.452 370.224L638.418 365.846H628.083L637.592 361.468V356.257L645.446 348.752C639.039 348.752 645.446 343.958 640.692 343.124C635.938 342.29 642.553 337.704 638.005 336.245L633.044 348.544L631.39 345.417L626.636 348.752V359.801L621.468 356.674C622.321 348.128 621.549 339.496 619.195 331.242C618.672 327.299 618.672 323.303 619.195 319.36C613.614 317.9 614.027 313.106 614.44 307.894H608.239C608.239 311.438 608.239 314.148 608.239 316.65L603.072 319.985C605.345 324.571 599.558 329.783 603.072 334.369C602.052 336.7 601.526 339.221 601.526 341.769C601.526 344.317 602.052 346.838 603.072 349.169L597.49 351.879L595.423 360.843L589.636 350.003H586.535L584.675 354.172L580.127 349.378C580.127 355.423 580.127 359.384 580.127 364.387H589.222L584.468 367.097V371.266C588.189 375.644 596.043 374.601 596.25 382.106H590.462L585.088 378.354H578.473L573.926 371.474C573.926 376.686 573.926 380.021 573.926 383.357L571.239 385.233L573.306 388.36L570.619 391.695L573.926 394.196H569.378C569.378 391.07 569.378 388.36 569.378 385.65L565.658 383.565L566.691 385.858L561.317 388.36L562.764 391.487C561.524 395.656 560.49 398.574 559.663 401.493L557.803 399.616L553.875 404.203L557.596 406.912L553.875 413.166H544.574L540.853 410.456H534.652C534.377 407.924 533.678 405.457 532.585 403.16L541.886 401.076C542.92 397.532 548.294 397.115 547.881 392.529H535.065C536.004 389.874 536.763 387.157 537.339 384.399C537.528 382.737 537.528 381.058 537.339 379.396L526.59 389.819L521.422 383.565L531.551 378.979L541.473 366.263C536.925 363.761 531.758 367.305 527.83 366.263V360.635C523.49 360.635 520.389 365.846 515.841 364.387C521.579 361.822 526.255 357.327 529.071 351.671L517.288 352.922L519.975 348.335H515.014L517.495 342.707L510.674 344.166L506.333 339.997L508.607 336.453L505.919 328.74L498.685 321.027L495.997 322.278C494.344 326.656 495.997 330.825 493.724 335.203L487.936 332.701L486.489 335.411L491.657 339.997L486.489 344.166L489.383 346.876L481.115 344.792C479.254 349.169 483.388 349.795 485.662 352.296H472.02V355.84L477.187 357.299C476.569 358.825 476.219 360.447 476.154 362.094C476.154 363.345 477.394 364.387 478.221 365.846C472.64 365.846 469.952 361.26 464.578 364.178C465.136 366.693 466.293 369.033 467.95 370.994C469.607 372.956 471.713 374.48 474.087 375.435L465.612 381.689L459.41 380.23V387.734L453.829 393.571L462.511 391.487L464.578 395.03H473.053L449.902 409.206L447.628 407.955C446.91 406.868 445.909 406.002 444.734 405.453C445.974 401.909 447.215 398.783 448.248 395.656L439.36 388.36H440.393L433.572 374.393L427.784 375.852C428.693 380.343 428.012 385.014 425.859 389.051C423.707 393.089 420.219 396.237 416.002 397.949L420.963 404.828C419.723 409.622 422.823 415.459 417.862 419.212C417.862 421.922 417.862 424.215 417.862 425.882L410.834 434.846H412.488V463.822L404.426 465.49V450.48C402.39 448.426 400.458 446.27 398.639 444.018L392.024 447.771C391.348 446.27 390.589 444.808 389.75 443.393L392.437 441.1C393.067 439.858 393.486 438.52 393.678 437.139L386.443 435.263C385.895 433.785 385.051 432.436 383.962 431.302H382.102C380.871 430.624 379.548 430.132 378.175 429.843L372.594 427.758L377.761 420.254L370.32 421.505C370.432 417.298 369.279 413.156 367.013 409.622C360.811 412.541 364.739 417.544 362.052 421.505H356.47V425.257L361.018 427.133V430.677L358.951 426.925C356.061 428.082 353.603 430.123 351.923 432.761C350.269 434.221 350.269 435.263 350.889 436.097C349.754 437.578 348.51 438.972 347.169 440.266C345.474 440.685 343.955 441.633 342.828 442.976C337.453 436.305 350.889 432.345 344.895 426.716L332.906 424.215L352.543 410.873L347.789 404.411C348.937 401.965 349.446 399.263 349.265 396.562C349.084 393.862 348.22 391.253 346.755 388.985L341.588 397.115H329.599L328.358 392.32L316.576 390.861V389.61L328.978 385.441C328.978 382.731 328.978 380.23 328.978 378.77L339.107 370.432C330.839 370.432 338.074 364.178 332.906 362.302C331.252 362.302 335.386 355.84 329.599 353.338L322.984 368.139L320.917 363.761L314.922 367.514V381.689L307.688 376.894C308.742 365.829 307.761 354.663 304.794 343.958C304.18 338.904 304.18 333.794 304.794 328.74C297.559 326.03 297.972 319.777 298.593 313.314L290.531 312.064C290.531 316.441 290.531 319.985 290.531 323.32L283.916 326.656C286.81 332.909 279.369 338.746 283.916 345C282.583 348.018 281.893 351.285 281.893 354.589C281.893 357.893 282.583 361.16 283.916 364.178L276.682 366.888C275.648 370.849 275.028 373.976 273.995 377.937L266.346 362.719H262.212L259.938 367.722L253.944 362.719L254.977 381.897L266.346 383.565L260.352 386.275V391.903C265.313 397.949 275.441 397.949 275.648 407.538H268.207L261.385 401.701H252.704C250.843 398.574 249.396 396.49 246.916 392.112C246.916 398.783 246.916 402.952 246.916 407.329L243.402 409.206L246.089 413.583L242.575 417.335L246.916 421.296H240.921C240.921 417.127 240.921 413.583 240.921 410.039H239.681L235.754 404.411L237.201 407.746L230.173 410.039L231.826 414.209C230.379 419.42 229.139 422.964 228.106 426.508L225.005 423.798L220.044 429.218L225.005 433.178C223.145 435.888 221.698 438.181 220.251 440.683H208.468L204.334 436.305C200.013 437.227 195.526 436.959 191.343 435.528C187.16 434.098 183.437 431.558 180.563 428.175L204.334 425.257C205.781 421.088 212.603 421.296 212.396 415.251L196.479 413.792C197.72 409.622 198.753 406.704 199.373 403.577C199.647 401.502 199.647 399.399 199.373 397.323L185.731 408.789L178.496 397.115L191.518 392.737L204.334 377.937C198.34 373.976 191.932 377.937 186.764 375.435V368.139C180.976 368.139 177.049 373.768 171.261 371.058C174.89 369.91 178.256 368.048 181.166 365.579C184.076 363.11 186.47 360.083 188.211 356.674H173.122L176.429 351.254L170.021 349.795L173.328 342.915H164.44C162.786 341.039 160.926 339.372 159.066 337.079L161.959 332.909C160.306 328.323 159.066 324.571 158.445 322.486L149.557 313.106L146.25 314.148C143.976 319.568 146.25 325.196 143.149 330.616L135.708 326.239L133.847 329.574L140.462 336.453L133.847 340.831L137.568 344.583L136.328 345.834L125.786 341.665C123.512 347.085 128.68 348.544 131.78 352.296L114.21 350.628V355.006L120.825 357.716C119.98 359.625 119.49 361.674 119.378 363.761C120.028 365.658 121.008 367.423 122.272 368.973C115.037 368.973 111.523 361.885 104.702 364.595C105.397 368.027 106.856 371.255 108.969 374.036C111.081 376.816 113.792 379.077 116.897 380.647L105.735 387.317L97.8804 384.399C97.8804 388.36 97.8804 391.487 98.9139 394.405L91.6792 400.867L103.048 399.408L105.529 404.203L117.724 405.87L87.7517 420.462L82.3774 417.127L77.6231 419.628L81.964 422.755L85.478 425.048C84.4444 432.553 85.478 439.015 89.1987 439.224C92.9194 439.432 92.2993 434.638 93.9529 432.553L100.361 437.556L106.149 434.429L109.249 440.683L117.931 434.221L122.065 438.598L112.35 445.894C101.102 447.373 90.2315 450.98 80.3103 456.526C73.9024 456.526 69.9749 452.357 63.7737 455.067L71.2152 462.988C71.2152 469.867 60.053 474.036 65.6341 482.792C67.7976 480.821 69.6147 478.495 71.0085 475.913C71.553 474.745 72.3946 473.744 73.4477 473.012C74.5007 472.28 75.7275 471.842 77.003 471.743C79.4835 475.496 71.8353 480.499 79.6902 482.792L87.7517 472.16L93.3328 476.538L100.154 469.45L101.188 480.915L107.596 485.919H89.4054C89.4054 485.919 89.4054 486.961 87.9584 487.586L93.1261 491.338C92.4096 492.249 91.4982 492.985 90.4602 493.49C89.4222 493.995 88.2843 494.258 87.1316 494.257C84.7909 494.11 82.45 494.539 80.3103 495.508C76.7144 499.47 72.5305 502.846 67.9079 505.514C67.1716 506.252 66.3367 506.884 65.4274 507.39C65.4274 500.928 64.1871 495.299 63.567 489.879H59.4329C59.4329 485.71 59.4329 481.958 59.4329 478.206H54.472V486.127L49.3043 489.254V496.967L47.6507 498.635L50.3378 506.973H46.2037C41.8628 512.81 51.7848 515.103 47.8574 520.731H44.1366C42.483 525.109 40.6226 529.278 39.1757 533.239L35.0415 525.109V520.523H33.8013L29.6672 526.568L24.9129 523.858C24.4408 524.99 24.2875 526.231 24.4699 527.444C24.6523 528.658 25.1632 529.798 25.9464 530.737L23.8794 533.03C28.0135 536.157 28.0135 536.157 34.6281 536.366L28.2202 539.076C29.4604 545.121 34.6281 546.58 38.1421 549.082L36.6952 559.922L30.494 552.626L25.7397 553.876L18.2983 545.746C15.1977 549.499 18.2983 552.626 18.2983 556.378L13.544 553.668L9.61661 568.677H3.41542L8.78978 574.931L5.48248 576.807L-145 596.194V1492.57H1920V327.49L1917.73 327.906ZM710.972 484.876H713.04L715.933 480.915L718.621 482.792V484.668L710.972 484.876ZM810.192 418.795H811.845V420.879L810.192 418.795ZM814.739 414H821.354V415.042L818.253 416.502H816.186L814.739 414ZM827.968 396.906C829.593 396.324 831.249 395.837 832.929 395.447V399.199L828.795 402.743L827.968 396.906ZM1506.59 301.641H1502.25L1500.18 297.263H1493.36L1491.5 294.553L1500.39 286.84L1505.97 290.592L1502.25 293.511L1506.59 301.641ZM1511.34 267.662C1514.68 269.314 1517.64 271.658 1520.02 274.541L1514.44 278.085L1511.34 267.662ZM1859.23 156.553L1866.05 159.471L1863.78 161.139L1872.46 169.894C1867.08 171.562 1867.29 166.976 1864.4 165.517H1857.99L1860.88 161.347H1850.34V152.175L1859.23 156.553ZM1849.31 151.758C1847.4 151.872 1845.58 152.634 1844.15 153.921C1842.73 155.208 1841.77 156.944 1841.45 158.846H1836.28L1834.22 154.26L1837.94 152.175V148.84C1841.24 153.009 1847.03 148.423 1849.1 151.758H1849.31ZM1840 126.326C1840 129.662 1834.42 131.955 1838.35 135.707L1848.07 137.583L1844.35 143.837C1844.35 143.837 1842.07 143.837 1841.24 143.837C1838.78 142.382 1836.55 140.554 1834.63 138.417C1833.29 136.964 1831.65 135.82 1829.83 135.064C1828.01 134.309 1826.05 133.959 1824.09 134.039C1829.46 133.414 1833.18 126.118 1839.8 126.326H1840ZM1740.37 295.178L1750.29 299.764L1741.41 304.351L1738.92 302.057L1732.31 303.308L1740.37 295.178ZM1585.96 57.7432V50.0302L1588.44 51.9064L1598.16 45.0272L1602.91 51.281V66.7069L1597.74 74.6284C1597.74 70.4592 1597.74 66.9154 1597.74 63.5801C1597.33 57.5347 1593.82 55.6586 1585.96 57.7432ZM1547.93 151.758L1559.09 154.051C1561.59 155.961 1564.22 157.702 1566.94 159.263C1569.84 160.722 1572.94 161.556 1575.63 163.015C1578.31 164.474 1577.07 165.517 1578.11 167.601L1571.49 164.057L1569.84 168.435C1565.7 165.308 1564.05 158.637 1556.2 160.722L1547.93 151.758ZM1476.41 234.1C1480.95 231.807 1481.78 235.976 1484.06 237.435H1488.6L1490.67 233.057C1493.77 234.934 1495.42 239.103 1501.01 237.435L1502.45 234.308L1497.28 232.015V229.514C1498.06 228.676 1499.09 228.121 1500.21 227.932C1501.33 227.744 1502.48 227.933 1503.49 228.471L1512.79 233.057C1512.79 240.979 1512.79 242.438 1517.13 246.816L1513.41 249.943C1515.27 257.447 1522.3 255.154 1528.29 255.363C1525.19 257.656 1521.06 255.363 1519.2 259.949C1517.34 258.281 1516.09 255.571 1512.17 256.822V261.825L1500.39 254.946H1491.08L1505.35 253.278V248.483L1490.88 250.151L1489.43 247.441H1474.96C1479.51 240.77 1482.2 237.644 1477.23 234.1H1476.41ZM1472.27 260.783C1475.48 262.228 1478.48 264.123 1481.16 266.411C1482.21 267.558 1483.58 268.358 1485.09 268.704C1488.46 268.913 1491.84 268.913 1495.22 268.704C1495.41 267.391 1495.41 266.056 1495.22 264.743C1495.22 264.743 1493.98 263.492 1492.94 262.867C1499.09 263.079 1505.1 264.719 1510.51 267.662L1504.73 275.375L1508.24 280.378H1506.79L1497.9 276V274.124H1494.18L1491.7 269.538H1488.4L1486.74 273.707H1481.37L1479.51 269.955H1472.48L1474.75 267.453C1474.75 261.616 1464.62 264.535 1464.62 257.656L1472.27 260.783ZM1374.71 244.731C1374.71 242.855 1374.71 240.354 1376.15 237.644L1380.5 234.725C1383.6 240.145 1376.15 241.604 1377.6 245.982L1384.63 247.233L1374.71 248.9L1364.79 255.154L1357.34 250.151L1374.71 244.731ZM1318.07 228.054L1322.62 229.514C1322.62 233.683 1319.1 234.517 1316.42 235.35C1314.84 235.932 1313.37 236.777 1312.08 237.852C1311.37 236.792 1310.75 235.677 1310.22 234.517C1313.11 232.224 1316.42 230.348 1318.9 228.054H1318.07ZM1247.79 274.541L1239.73 281.42L1247.38 292.468C1245.25 291.893 1243.22 290.978 1241.38 289.758C1241.38 285.381 1234.56 284.964 1236.83 279.752H1240.55C1239.31 276.625 1238.07 273.707 1237.04 270.789H1232.7V265.994L1247.79 274.541ZM1212.65 287.674V292.26H1197.56C1192.81 287.048 1181.85 286.423 1183.3 274.958L1212.65 287.674ZM1085.32 346.459C1086.06 345.669 1086.75 344.834 1087.39 343.958L1090.49 350.42H1084.49C1084.97 349.069 1085.52 347.747 1086.15 346.459H1085.32ZM1097.31 351.879H1100.2L1107.02 342.915V353.755C1099.99 357.908 1092.67 361.531 1085.11 364.595H1082.22C1088 361.005 1093.35 356.737 1098.13 351.879H1097.31ZM1035.3 350.628L1036.54 351.879H1035.3V350.628ZM955.093 372.725H953.233L950.339 370.224L955.093 372.725ZM948.478 348.752L950.546 351.879L945.171 353.338L946.825 356.465L940.417 353.338L948.478 348.752ZM919.953 270.789L923.054 279.752C919.749 280.121 916.568 281.23 913.743 282.997C910.918 284.764 908.52 287.145 906.724 289.967C906.724 287.882 904.45 286.006 902.796 283.088L919.953 270.789ZM820.32 369.39C820.32 373.351 820.32 377.103 818.46 383.148C820.606 381.363 822.61 379.412 824.454 377.311C826.108 374.601 827.142 371.683 829.002 368.973C830.862 366.263 831.482 368.973 832.929 368.973C834.376 368.973 827.348 373.767 832.929 376.06L835.41 374.601C834.584 377.673 834.584 380.911 835.41 383.982C834.521 384.057 833.657 384.318 832.874 384.749C832.091 385.179 831.406 385.77 830.862 386.483L834.17 388.568L829.415 390.653V387.317H821.974L819.287 393.154C819.844 390.188 819.622 387.127 818.643 384.275C817.664 381.423 815.962 378.878 813.706 376.894C813.706 373.559 815.153 370.432 819.287 369.39H820.32ZM802.337 394.196C806.678 400.867 807.711 401.284 817.013 403.369L812.672 405.662V410.039L806.884 413.375C805.698 411.974 804.246 410.829 802.612 410.005C800.979 409.181 799.198 408.697 797.376 408.58L804.404 406.496V401.493L794.689 398.157L802.337 394.196ZM778.979 336.036L781.459 342.707C776.199 344.044 771.67 347.413 768.85 352.088L765.75 347.085L778.979 336.036ZM690.715 471.535C690.715 469.659 690.715 467.783 689.475 464.447L698.157 458.193H703.324L700.637 465.073L707.045 462.571L711.593 464.864L720.068 455.484C720.068 457.568 721.101 459.027 720.068 460.07C718.828 462.111 717.446 464.062 715.933 465.906L704.771 471.952V472.994H692.162L698.57 481.749L691.749 485.502L685.754 484.042V476.329L690.715 471.535ZM574.753 395.864H577.853L583.641 401.076L589.842 405.453L585.501 409.831L574.753 404.411V395.864ZM549.328 429.635L550.361 430.885L547.881 429.843L549.328 429.635ZM551.395 432.345L552.842 434.429L551.188 436.097H549.121L544.987 438.39H542.093L540.853 435.68L551.395 432.345ZM526.383 406.287C526.271 407.605 526.271 408.93 526.383 410.248C525.076 409.455 523.892 408.471 522.869 407.329L526.383 406.287ZM451.142 434.429C452.305 433.241 453.055 431.705 453.278 430.052C453.502 428.398 453.188 426.715 452.382 425.257C453.623 423.381 454.863 421.505 455.896 419.628L460.857 422.964L465.405 420.045L467.679 424.632L474.707 418.795L477.807 421.922L470.159 428.384C463.304 429.633 456.767 432.255 450.935 436.097L451.142 434.429ZM461.477 459.444L456.723 457.568V451.106L460.444 446.52C460.444 449.647 460.444 452.774 460.444 455.484L465.198 458.61L461.477 459.444ZM461.477 494.882L459.824 499.052L455.483 500.302L458.17 496.133L459.41 494.882H461.477ZM448.868 416.502C448.517 418.937 448.951 421.422 450.109 423.589L443.287 426.299V424.84L448.868 416.502ZM394.711 466.949H395.745C395.417 467.086 395.066 467.157 394.711 467.157C394.356 467.157 394.005 467.086 393.678 466.949H394.711ZM381.275 434.221V436.722L377.555 439.224L375.901 435.471L381.275 434.221ZM343.655 460.487L345.722 462.571L338.074 468.616L335.593 465.281L343.655 460.487ZM247.329 422.338H251.463C254.151 425.048 256.424 427.55 258.905 429.843C261.385 432.136 264.073 434.012 266.966 436.305L261.385 441.308L247.329 432.553V422.338ZM198.133 453.607C204.128 458.402 208.055 462.78 214.67 461.946L219.217 468.408L216.117 470.909C216.117 473.619 217.15 476.121 217.77 479.039C218.39 481.958 214.463 479.039 214.05 479.039C213.636 479.039 210.536 473.411 208.468 470.076L198.133 468.616V453.607ZM85.478 525.734L87.9584 527.819L88.992 533.447H87.3383L83.8243 528.861L85.478 525.734ZM77.4164 533.03C77.4164 533.03 77.4164 534.698 77.4164 535.532H75.3493H73.9024L77.4164 533.03ZM695.883 487.169L700.637 484.876L698.983 487.169H695.883Z" fill="#CAFFD6" fill-opacity="0.5"/>
</svg>
